<svg width="16" height="16" viewBox="0 0 16 16" fill="none" xmlns="http://www.w3.org/2000/svg">
<path d="M10.6667 14V12.6667C10.6667 11.9594 10.3857 11.2811 9.88563 10.781C9.38553 10.281 8.70725 10 8.00001 10H4.00001C3.29277 10 2.61449 10.281 2.11439 10.781C1.6143 11.2811 1.33334 11.9594 1.33334 12.6667V14" stroke="#18181B" stroke-width="1.33" stroke-linecap="round" stroke-linejoin="round"/>
<path d="M6.00001 7.33333C7.47277 7.33333 8.66668 6.13943 8.66668 4.66667C8.66668 3.19391 7.47277 2 6.00001 2C4.52725 2 3.33334 3.19391 3.33334 4.66667C3.33334 6.13943 4.52725 7.33333 6.00001 7.33333Z" stroke="#18181B" stroke-width="1.33" stroke-linecap="round" stroke-linejoin="round"/>
<path d="M14.6667 14V12.6667C14.6662 12.0758 14.4696 11.5019 14.1076 11.0349C13.7456 10.5679 13.2387 10.2344 12.6667 10.0867" stroke="#18181B" stroke-width="1.33" stroke-linecap="round" stroke-linejoin="round"/>
<path d="M10.6667 2.08667C11.2403 2.23354 11.7487 2.56714 12.1117 3.03488C12.4748 3.50262 12.6719 4.07789 12.6719 4.67C12.6719 5.26212 12.4748 5.83739 12.1117 6.30513C11.7487 6.77287 11.2403 7.10647 10.6667 7.25334" stroke="#18181B" stroke-width="1.33" stroke-linecap="round" stroke-linejoin="round"/>
</svg>
