<svg width="16" height="16" viewBox="0 0 16 16" fill="none" xmlns="http://www.w3.org/2000/svg">
<g clip-path="url(#clip0_432_506)">
<path d="M13.3333 6.66665C13.3333 10.6666 7.99999 14.6666 7.99999 14.6666C7.99999 14.6666 2.66666 10.6666 2.66666 6.66665C2.66666 5.25216 3.22856 3.8956 4.22875 2.89541C5.22895 1.89522 6.5855 1.33331 7.99999 1.33331C9.41448 1.33331 10.771 1.89522 11.7712 2.89541C12.7714 3.8956 13.3333 5.25216 13.3333 6.66665Z" stroke="#18181B" stroke-width="1.33" stroke-linecap="round" stroke-linejoin="round"/>
<path d="M8 8.66669C9.10457 8.66669 10 7.77126 10 6.66669C10 5.56212 9.10457 4.66669 8 4.66669C6.89543 4.66669 6 5.56212 6 6.66669C6 7.77126 6.89543 8.66669 8 8.66669Z" stroke="#18181B" stroke-width="1.33" stroke-linecap="round" stroke-linejoin="round"/>
</g>
<defs>
<clipPath id="clip0_432_506">
<rect width="16" height="16" fill="white"/>
</clipPath>
</defs>
</svg>
