<svg width="16" height="16" viewBox="0 0 16 16" fill="none" xmlns="http://www.w3.org/2000/svg">
<path d="M13.3333 4.66669H7.33334" stroke="#18181B" stroke-width="1.33" stroke-linecap="round" stroke-linejoin="round"/>
<path d="M9.33334 11.3333H3.33334" stroke="#18181B" stroke-width="1.33" stroke-linecap="round" stroke-linejoin="round"/>
<path d="M11.3333 13.3333C12.4379 13.3333 13.3333 12.4379 13.3333 11.3333C13.3333 10.2287 12.4379 9.33331 11.3333 9.33331C10.2288 9.33331 9.33334 10.2287 9.33334 11.3333C9.33334 12.4379 10.2288 13.3333 11.3333 13.3333Z" stroke="#18181B" stroke-width="1.33" stroke-linecap="round" stroke-linejoin="round"/>
<path d="M4.66666 6.66669C5.77123 6.66669 6.66666 5.77126 6.66666 4.66669C6.66666 3.56212 5.77123 2.66669 4.66666 2.66669C3.56209 2.66669 2.66666 3.56212 2.66666 4.66669C2.66666 5.77126 3.56209 6.66669 4.66666 6.66669Z" stroke="#18181B" stroke-width="1.33" stroke-linecap="round" stroke-linejoin="round"/>
</svg>
