<svg width="16" height="16" viewBox="0 0 16 16" fill="none" xmlns="http://www.w3.org/2000/svg">
<path d="M2 4.66665V5.99998C2.53043 5.99998 3.03914 6.21069 3.41421 6.58577C3.78929 6.96084 4 7.46955 4 7.99998C4 8.53041 3.78929 9.03912 3.41421 9.41419C3.03914 9.78927 2.53043 9.99998 2 9.99998V11.3333C2 12.0666 2.6 12.6666 3.33333 12.6666H12.6667C13.0203 12.6666 13.3594 12.5262 13.6095 12.2761C13.8595 12.0261 14 11.6869 14 11.3333V9.99998C13.4696 9.99998 12.9609 9.78927 12.5858 9.41419C12.2107 9.03912 12 8.53041 12 7.99998C12 7.46955 12.2107 6.96084 12.5858 6.58577C12.9609 6.21069 13.4696 5.99998 14 5.99998V4.66665C14 4.31302 13.8595 3.97389 13.6095 3.72384C13.3594 3.47379 13.0203 3.33331 12.6667 3.33331H3.33333C2.97971 3.33331 2.64057 3.47379 2.39052 3.72384C2.14048 3.97389 2 4.31302 2 4.66665Z" stroke="#18181B" stroke-width="1.33" stroke-linecap="round" stroke-linejoin="round"/>
<path d="M8.66666 3.33331V4.66665" stroke="#18181B" stroke-width="1.33" stroke-linecap="round" stroke-linejoin="round"/>
<path d="M8.66666 11.3333V12.6666" stroke="#18181B" stroke-width="1.33" stroke-linecap="round" stroke-linejoin="round"/>
<path d="M8.66666 7.33331V8.66665" stroke="#18181B" stroke-width="1.33" stroke-linecap="round" stroke-linejoin="round"/>
</svg>
