<svg width="16" height="16" viewBox="0 0 16 16" fill="none" xmlns="http://www.w3.org/2000/svg">
<g clip-path="url(#clip0_432_491)">
<path d="M10 14V11.3333C10 10.9797 10.1405 10.6406 10.3905 10.3905C10.6406 10.1405 10.9797 10 11.3333 10H14" stroke="#18181B" stroke-width="1.33" stroke-linecap="round" stroke-linejoin="round"/>
<path d="M4.66666 2.66669V4.00002C4.81047 4.409 5.08329 4.76018 5.44401 5.00066C5.80473 5.24114 6.23382 5.3579 6.66666 5.33335C7.02028 5.33335 7.35942 5.47383 7.60947 5.72388C7.85951 5.97393 7.99999 6.31306 7.99999 6.66669C7.99999 7.02031 8.14047 7.35945 8.39051 7.6095C8.64056 7.85954 8.9797 8.00002 9.33332 8.00002C9.68695 8.00002 10.0261 7.85954 10.2761 7.6095C10.5262 7.35945 10.6667 7.02031 10.6667 6.66669C10.6667 6.31306 10.8071 5.97393 11.0572 5.72388C11.3072 5.47383 11.6464 5.33335 12 5.33335H14" stroke="#18181B" stroke-width="1.33" stroke-linecap="round" stroke-linejoin="round"/>
<path d="M2 7.33331H3.33333C3.68696 7.33331 4.02609 7.47379 4.27614 7.72384C4.52619 7.97389 4.66667 8.31302 4.66667 8.66665V9.33331C4.66667 9.68694 4.80714 10.0261 5.05719 10.2761C5.30724 10.5262 5.64638 10.6666 6 10.6666C6.35362 10.6666 6.69276 10.8071 6.94281 11.0572C7.19286 11.3072 7.33333 11.6464 7.33333 12V14.6666" stroke="#18181B" stroke-width="1.33" stroke-linecap="round" stroke-linejoin="round"/>
<path d="M8.00001 14.6666C11.6819 14.6666 14.6667 11.6819 14.6667 7.99998C14.6667 4.31808 11.6819 1.33331 8.00001 1.33331C4.31811 1.33331 1.33334 4.31808 1.33334 7.99998C1.33334 11.6819 4.31811 14.6666 8.00001 14.6666Z" stroke="#18181B" stroke-width="1.33" stroke-linecap="round" stroke-linejoin="round"/>
</g>
<defs>
<clipPath id="clip0_432_491">
<rect width="16" height="16" fill="white"/>
</clipPath>
</defs>
</svg>
