<svg width="17" height="17" viewBox="0 0 17 17" fill="none" xmlns="http://www.w3.org/2000/svg">
<g id="icon/armchair">
<path id="Vector" d="M13.1667 6.50033V4.50033C13.1667 4.1467 13.0262 3.80756 12.7761 3.55752C12.5261 3.30747 12.187 3.16699 11.8333 3.16699H5.16667C4.81305 3.16699 4.47391 3.30747 4.22386 3.55752C3.97381 3.80756 3.83333 4.1467 3.83333 4.50033V6.50033" stroke="black" stroke-width="1.33" stroke-linecap="round" stroke-linejoin="round"/>
<path id="Vector_2" d="M2.5 7.83333V11.1667C2.5 11.5203 2.64048 11.8594 2.89052 12.1095C3.14057 12.3595 3.47971 12.5 3.83333 12.5H13.1667C13.5203 12.5 13.8594 12.3595 14.1095 12.1095C14.3595 11.8594 14.5 11.5203 14.5 11.1667V7.83333C14.5 7.47971 14.3595 7.14057 14.1095 6.89052C13.8594 6.64048 13.5203 6.5 13.1667 6.5C12.813 6.5 12.4739 6.64048 12.2239 6.89052C11.9738 7.14057 11.8333 7.47971 11.8333 7.83333V9.16667H5.16667V7.83333C5.16667 7.47971 5.02619 7.14057 4.77614 6.89052C4.52609 6.64048 4.18696 6.5 3.83333 6.5C3.47971 6.5 3.14057 6.64048 2.89052 6.89052C2.64048 7.14057 2.5 7.47971 2.5 7.83333Z" stroke="black" stroke-width="1.33" stroke-linecap="round" stroke-linejoin="round"/>
<path id="Vector_3" d="M3.83333 12.5V13.8333" stroke="black" stroke-width="1.33" stroke-linecap="round" stroke-linejoin="round"/>
<path id="Vector_4" d="M13.1667 12.5V13.8333" stroke="black" stroke-width="1.33" stroke-linecap="round" stroke-linejoin="round"/>
</g>
</svg>
