<svg width="41" height="26" viewBox="0 0 41 26" fill="none" xmlns="http://www.w3.org/2000/svg">
<g id="Icon" clip-path="url(#clip0_1534_9778)">
<path id="Vector" d="M20.9902 18.3901C21.6513 18.3901 22.2877 18.2636 22.8995 18.0104C23.5113 17.7572 24.0528 17.3951 24.524 16.9239C24.9952 16.4527 25.3573 15.9112 25.6105 15.2994C25.8637 14.6876 25.9902 14.0512 25.9902 13.3901C25.9902 12.7291 25.8637 12.0927 25.6105 11.4809C25.3573 10.869 24.9952 10.3275 24.524 9.85638C24.0528 9.38521 23.5113 9.02305 22.8995 8.76988C22.2877 8.51672 21.6513 8.39014 20.9902 8.39014C20.3292 8.39014 19.6928 8.51672 19.081 8.76988C18.4691 9.02305 17.9276 9.38521 17.4565 9.85638C16.9853 10.3275 16.6231 10.869 16.37 11.4809C16.1168 12.0927 15.9902 12.7291 15.9902 13.3901C15.9902 14.0512 16.1168 14.6876 16.37 15.2994C16.6231 15.9112 16.9853 16.4527 17.4565 16.9239C17.9276 17.3951 18.4691 17.7572 19.081 18.0104C19.6928 18.2636 20.3292 18.3901 20.9902 18.3901ZM0.990234 3.39014C0.990234 3.05962 1.05353 2.7414 1.18011 2.4355C1.30669 2.12959 1.48777 1.85884 1.72336 1.62326C1.95894 1.38767 2.22969 1.20659 2.53559 1.08001C2.8415 0.953426 3.15971 0.890135 3.49023 0.890135H38.4902C38.8208 0.890135 39.139 0.953426 39.4449 1.08001C39.7508 1.20659 40.0215 1.38767 40.2571 1.62326C40.4927 1.85884 40.6738 2.12959 40.8004 2.4355C40.9269 2.7414 40.9902 3.05962 40.9902 3.39014V23.3901C40.9902 23.7207 40.9269 24.0389 40.8004 24.3448C40.6738 24.6507 40.4927 24.9214 40.2571 25.157C40.0215 25.3926 39.7508 25.5737 39.4449 25.7003C39.139 25.8268 38.8208 25.8901 38.4902 25.8901H3.49023C3.15971 25.8901 2.8415 25.8268 2.53559 25.7003C2.22969 25.5737 1.95894 25.3926 1.72336 25.157C1.48777 24.9214 1.30669 24.6507 1.18011 24.3448C1.05353 24.0389 0.990234 23.7207 0.990234 23.3901V3.39014ZM8.49023 3.39014C8.49023 4.05118 8.36365 4.6876 8.11049 5.29942C7.85732 5.91123 7.49516 6.45272 7.02399 6.92389C6.55282 7.39506 6.01133 7.75723 5.39952 8.01039C4.7877 8.26355 4.15128 8.39014 3.49023 8.39014V18.3901C4.15128 18.3901 4.7877 18.5167 5.39952 18.7699C6.01133 19.023 6.55282 19.3852 7.02399 19.8564C7.49516 20.3275 7.85732 20.869 8.11049 21.4809C8.36365 22.0927 8.49023 22.7291 8.49023 23.3901H33.4902C33.4902 22.7291 33.6168 22.0909 33.87 21.4756C34.1231 20.8602 34.4853 20.3188 34.9565 19.8511C35.4276 19.3835 35.9691 19.023 36.581 18.7699C37.1928 18.5167 37.8292 18.3901 38.4902 18.3901V8.39014C37.8292 8.39014 37.1928 8.26355 36.581 8.01039C35.9691 7.75723 35.4276 7.39682 34.9565 6.92916C34.4853 6.46151 34.1231 5.92002 33.87 5.30469C33.6168 4.68936 33.4902 4.05118 33.4902 3.39014H8.49023Z" fill="#171717"/>
</g>
<defs>
<clipPath id="clip0_1534_9778">
<rect width="40.02" height="25" fill="white" transform="matrix(1 0 0 -1 0.980469 25.8901)"/>
</clipPath>
</defs>
</svg>
