<svg width="25" height="25" viewBox="0 0 25 25" fill="none" xmlns="http://www.w3.org/2000/svg">
<g id="SVG">
<path id="Vector" fill-rule="evenodd" clip-rule="evenodd" d="M3.7168 21.0352C3.7168 21.8452 4.3728 22.5002 5.1818 22.5002H20.2518C21.0618 22.5002 21.7168 21.8442 21.7168 21.0352V16.2412C21.7168 16.1635 21.6859 16.089 21.631 16.0341C21.576 15.9791 21.5015 15.9482 21.4238 15.9482C21.3461 15.9482 21.2716 15.9791 21.2166 16.0341C21.1617 16.089 21.1308 16.1635 21.1308 16.2412V21.0352C21.1308 21.2685 21.0382 21.4921 20.8734 21.6571C20.7086 21.8221 20.485 21.915 20.2518 21.9152H5.1818C4.94858 21.915 4.72501 21.8221 4.56019 21.6571C4.39537 21.4921 4.3028 21.2685 4.3028 21.0352V19.4052C4.3028 19.3275 4.27193 19.253 4.21698 19.1981C4.16203 19.1431 4.08751 19.1122 4.0098 19.1122C3.93209 19.1122 3.85756 19.1431 3.80261 19.1981C3.74767 19.253 3.7168 19.3275 3.7168 19.4052V21.0352Z" fill="black"/>
<path id="Vector_2" fill-rule="evenodd" clip-rule="evenodd" d="M3.7168 19.8609C3.7168 20.6709 4.3738 21.3279 5.1838 21.3279H17.0638C17.4528 21.3279 17.8258 21.1739 18.1008 20.8979L21.2868 17.7119C21.5618 17.4369 21.7168 17.0639 21.7168 16.6749V5.30487C21.7168 4.49487 21.0598 3.83887 20.2498 3.83887H5.1838C4.3738 3.83887 3.7168 4.49587 3.7168 5.30587V19.8609ZM5.1838 20.7419C5.06815 20.742 4.95361 20.7193 4.84673 20.6752C4.73985 20.631 4.64272 20.5662 4.5609 20.4845C4.47907 20.4027 4.41417 20.3057 4.36988 20.1989C4.32559 20.092 4.3028 19.9775 4.3028 19.8619V5.30487C4.30267 5.18914 4.32536 5.07451 4.36959 4.96757C4.41382 4.86062 4.47871 4.76345 4.56054 4.68161C4.64238 4.59978 4.73955 4.53489 4.8465 4.49066C4.95344 4.44643 5.06807 4.42374 5.1838 4.42387H20.2498C20.3654 4.42374 20.48 4.4464 20.5869 4.49057C20.6937 4.53473 20.7909 4.59953 20.8727 4.68126C20.9545 4.76299 21.0194 4.86004 21.0637 4.96687C21.108 5.07371 21.1308 5.18822 21.1308 5.30387V16.6739C21.1309 16.7896 21.1081 16.9042 21.0638 17.0111C21.0196 17.118 20.9546 17.2151 20.8728 17.2969L17.6868 20.4829C17.605 20.5647 17.5079 20.6296 17.401 20.6739C17.2941 20.7182 17.1795 20.7409 17.0638 20.7409L5.1838 20.7419Z" fill="black"/>
<path id="Vector_3" fill-rule="evenodd" clip-rule="evenodd" d="M16.2898 21.035C16.2898 21.197 16.4198 21.328 16.5828 21.328C17.2748 21.328 17.8368 20.766 17.8368 20.073V18.118C17.8368 17.748 18.1368 17.448 18.5068 17.448H20.4618C21.1548 17.448 21.7168 16.888 21.7168 16.194C21.7168 16.1163 21.6859 16.0418 21.631 15.9868C21.576 15.9319 21.5015 15.901 21.4238 15.901C21.3461 15.901 21.2716 15.9319 21.2166 15.9868C21.1617 16.0418 21.1308 16.1163 21.1308 16.194C21.1308 16.564 20.8308 16.863 20.4618 16.863H18.5068C17.8138 16.863 17.2518 17.425 17.2518 18.118V20.073C17.2518 20.443 16.9518 20.743 16.5838 20.743C16.5063 20.743 16.4319 20.7737 16.377 20.8285C16.322 20.8832 16.2911 20.9575 16.2908 21.035M3.7168 8.319C3.7168 8.48 3.8478 8.611 4.0098 8.611H7.4738C7.51365 8.61333 7.55355 8.6075 7.59107 8.59385C7.62858 8.5802 7.66291 8.55904 7.69195 8.53165C7.72099 8.50426 7.74412 8.47122 7.75994 8.43457C7.77575 8.39792 7.78391 8.35842 7.78391 8.3185C7.78391 8.27858 7.77575 8.23908 7.75994 8.20243C7.74412 8.16578 7.72099 8.13274 7.69195 8.10535C7.66291 8.07796 7.62858 8.0568 7.59107 8.04315C7.55355 8.02951 7.51365 8.02367 7.4738 8.026H4.0098C3.93209 8.026 3.85756 8.05687 3.80261 8.11182C3.74767 8.16677 3.7168 8.24129 3.7168 8.319ZM8.3528 8.319C8.3528 8.48 8.4838 8.611 8.6458 8.611H21.4238C21.4636 8.61333 21.5036 8.6075 21.5411 8.59385C21.5786 8.5802 21.6129 8.55904 21.6419 8.53165C21.671 8.50426 21.6941 8.47122 21.7099 8.43457C21.7257 8.39792 21.7339 8.35842 21.7339 8.3185C21.7339 8.27858 21.7257 8.23908 21.7099 8.20243C21.6941 8.16578 21.671 8.13274 21.6419 8.10535C21.6129 8.07796 21.5786 8.0568 21.5411 8.04315C21.5036 8.02951 21.4636 8.02367 21.4238 8.026H8.6458C8.56809 8.026 8.49356 8.05687 8.43861 8.11182C8.38367 8.16677 8.3528 8.24129 8.3528 8.319ZM6.4368 5.286C6.4368 5.778 6.8358 6.177 7.3268 6.177C7.40451 6.177 7.47903 6.14613 7.53398 6.09118C7.58893 6.03623 7.6198 5.96171 7.6198 5.884C7.6198 5.80629 7.58893 5.73177 7.53398 5.67682C7.47903 5.62187 7.40451 5.591 7.3268 5.591C7.24608 5.59074 7.16876 5.55849 7.11178 5.50132C7.05479 5.44415 7.0228 5.36672 7.0228 5.286V3.391C7.0228 3.222 7.1588 3.086 7.3278 3.086H7.4618C7.6308 3.086 7.7668 3.222 7.7668 3.391V4.131C7.7668 4.20871 7.79767 4.28323 7.85261 4.33818C7.90756 4.39313 7.98209 4.424 8.0598 4.424C8.13751 4.424 8.21203 4.39313 8.26698 4.33818C8.32193 4.28323 8.3528 4.20871 8.3528 4.131V3.391C8.35293 3.27404 8.33 3.1582 8.28534 3.05011C8.24067 2.94201 8.17513 2.84378 8.09248 2.76103C8.00982 2.67828 7.91166 2.61263 7.80362 2.56784C7.69557 2.52305 7.57976 2.5 7.4628 2.5H7.3268C7.20984 2.49987 7.094 2.52279 6.9859 2.56746C6.87781 2.61213 6.77958 2.67766 6.69683 2.76032C6.61408 2.84298 6.54843 2.94114 6.50364 3.04918C6.45885 3.15723 6.4358 3.27304 6.4358 3.39L6.4368 5.286ZM17.0808 5.286C17.0808 5.778 17.4798 6.177 17.9708 6.177C18.0485 6.177 18.123 6.14613 18.178 6.09118C18.2329 6.03623 18.2638 5.96171 18.2638 5.884C18.2638 5.80629 18.2329 5.73177 18.178 5.67682C18.123 5.62187 18.0485 5.591 17.9708 5.591C17.8901 5.59074 17.8128 5.55849 17.7558 5.50132C17.6988 5.44415 17.6668 5.36672 17.6668 5.286V3.391C17.6668 3.222 17.8028 3.086 17.9718 3.086H18.1058C18.2748 3.086 18.4108 3.222 18.4108 3.391V4.131C18.4108 4.16948 18.4184 4.20758 18.4331 4.24313C18.4478 4.27868 18.4694 4.31098 18.4966 4.33818C18.5238 4.36539 18.5561 4.38697 18.5917 4.4017C18.6272 4.41642 18.6653 4.424 18.7038 4.424C18.7423 4.424 18.7804 4.41642 18.8159 4.4017C18.8515 4.38697 18.8838 4.36539 18.911 4.33818C18.9382 4.31098 18.9598 4.27868 18.9745 4.24313C18.9892 4.20758 18.9968 4.16948 18.9968 4.131V3.391C18.9969 3.27404 18.974 3.1582 18.9293 3.05011C18.8847 2.94201 18.8191 2.84378 18.7365 2.76103C18.6538 2.67828 18.5557 2.61263 18.4476 2.56784C18.3396 2.52305 18.2238 2.5 18.1068 2.5H17.9718C17.8548 2.49987 17.739 2.52279 17.6309 2.56746C17.5228 2.61213 17.4246 2.67766 17.3418 2.76032C17.2591 2.84298 17.1934 2.94114 17.1486 3.04918C17.1039 3.15723 17.0808 3.27304 17.0808 3.39V5.286ZM5.4748 11.75C5.4748 12.066 5.7308 12.322 6.0468 12.322H7.4418C7.51699 12.3223 7.59149 12.3077 7.661 12.279C7.73052 12.2503 7.79368 12.2082 7.84685 12.1551C7.90002 12.1019 7.94214 12.0387 7.97079 11.9692C7.99945 11.8997 8.01406 11.8252 8.0138 11.75V10.355C8.01406 10.2798 7.99945 10.2053 7.97079 10.1358C7.94214 10.0663 7.90002 10.0031 7.84685 9.94995C7.79368 9.89678 7.73052 9.85466 7.661 9.826C7.59149 9.79735 7.51699 9.78274 7.4418 9.783H6.0468C5.97161 9.78274 5.89711 9.79735 5.82759 9.826C5.75807 9.85466 5.69491 9.89678 5.64174 9.94995C5.58857 10.0031 5.54645 10.0663 5.5178 10.1358C5.48915 10.2053 5.47453 10.2798 5.4748 10.355V11.75ZM6.0608 11.736V10.37H7.4278V11.737L6.0608 11.736ZM9.4568 11.75C9.4568 12.066 9.7128 12.322 10.0288 12.322H11.4238C11.499 12.3223 11.5735 12.3077 11.643 12.279C11.7125 12.2503 11.7757 12.2082 11.8289 12.1551C11.882 12.1019 11.9241 12.0387 11.9528 11.9692C11.9814 11.8997 11.9961 11.8252 11.9958 11.75V10.355C11.9961 10.2798 11.9814 10.2053 11.9528 10.1358C11.9241 10.0663 11.882 10.0031 11.8289 9.94995C11.7757 9.89678 11.7125 9.85466 11.643 9.826C11.5735 9.79735 11.499 9.78274 11.4238 9.783H10.0288C9.95361 9.78274 9.87911 9.79735 9.80959 9.826C9.74007 9.85466 9.67691 9.89678 9.62374 9.94995C9.57057 10.0031 9.52845 10.0663 9.4998 10.1358C9.47115 10.2053 9.45653 10.2798 9.4568 10.355V11.75ZM10.0428 11.736V10.37H11.4098V11.737L10.0428 11.736ZM13.4378 11.75C13.4378 12.066 13.6938 12.322 14.0098 12.322H15.4048C15.48 12.3223 15.5545 12.3077 15.624 12.279C15.6935 12.2503 15.7567 12.2082 15.8099 12.1551C15.863 12.1019 15.9051 12.0387 15.9338 11.9692C15.9624 11.8997 15.9771 11.8252 15.9768 11.75V10.355C15.9771 10.2798 15.9624 10.2053 15.9338 10.1358C15.9051 10.0663 15.863 10.0031 15.8099 9.94995C15.7567 9.89678 15.6935 9.85466 15.624 9.826C15.5545 9.79735 15.48 9.78274 15.4048 9.783H14.0098C13.9346 9.78274 13.8601 9.79735 13.7906 9.826C13.7211 9.85466 13.6579 9.89678 13.6047 9.94995C13.5516 10.0031 13.5095 10.0663 13.4808 10.1358C13.4521 10.2053 13.4375 10.2798 13.4378 10.355V11.75ZM14.0238 11.736V10.37H15.3908V11.737L14.0238 11.736ZM17.4198 11.75C17.4198 12.066 17.6758 12.322 17.9918 12.322H19.3868C19.462 12.3223 19.5365 12.3077 19.606 12.279C19.6755 12.2503 19.7387 12.2082 19.7919 12.1551C19.845 12.1019 19.8871 12.0387 19.9158 11.9692C19.9444 11.8997 19.9591 11.8252 19.9588 11.75V10.355C19.9591 10.2798 19.9444 10.2053 19.9158 10.1358C19.8871 10.0663 19.845 10.0031 19.7919 9.94995C19.7387 9.89678 19.6755 9.85466 19.606 9.826C19.5365 9.79735 19.462 9.78274 19.3868 9.783H17.9918C17.9166 9.78274 17.8421 9.79735 17.7726 9.826C17.7031 9.85466 17.6399 9.89678 17.5867 9.94995C17.5336 10.0031 17.4915 10.0663 17.4628 10.1358C17.4341 10.2053 17.4195 10.2798 17.4198 10.355V11.75ZM18.0058 11.736V10.37H19.3728V11.737L18.0058 11.736ZM5.4748 15.374C5.4748 15.69 5.7308 15.946 6.0468 15.946H7.4418C7.51699 15.9463 7.59149 15.9317 7.661 15.903C7.73052 15.8743 7.79368 15.8322 7.84685 15.7791C7.90002 15.7259 7.94214 15.6627 7.97079 15.5932C7.99945 15.5237 8.01406 15.4492 8.0138 15.374V13.98C8.01406 13.9048 7.99945 13.8303 7.97079 13.7608C7.94214 13.6913 7.90002 13.6281 7.84685 13.5749C7.79368 13.5218 7.73052 13.4797 7.661 13.451C7.59149 13.4224 7.51699 13.4077 7.4418 13.408H6.0468C5.97161 13.4077 5.89711 13.4224 5.82759 13.451C5.75807 13.4797 5.69491 13.5218 5.64174 13.5749C5.58857 13.6281 5.54645 13.6913 5.5178 13.7608C5.48915 13.8303 5.47453 13.9048 5.4748 13.98V15.374ZM6.0608 15.36V13.993H7.4278V15.36H6.0608ZM9.4568 15.374C9.4568 15.69 9.7128 15.946 10.0288 15.946H11.4238C11.499 15.9463 11.5735 15.9317 11.643 15.903C11.7125 15.8743 11.7757 15.8322 11.8289 15.7791C11.882 15.7259 11.9241 15.6627 11.9528 15.5932C11.9814 15.5237 11.9961 15.4492 11.9958 15.374V13.98C11.9961 13.9048 11.9814 13.8303 11.9528 13.7608C11.9241 13.6913 11.882 13.6281 11.8289 13.5749C11.7757 13.5218 11.7125 13.4797 11.643 13.451C11.5735 13.4224 11.499 13.4077 11.4238 13.408H10.0288C9.95361 13.4077 9.87911 13.4224 9.80959 13.451C9.74007 13.4797 9.67691 13.5218 9.62374 13.5749C9.57057 13.6281 9.52845 13.6913 9.4998 13.7608C9.47115 13.8303 9.45653 13.9048 9.4568 13.98V15.374ZM10.0428 15.36V13.993H11.4098V15.36H10.0428ZM13.4378 15.374C13.4378 15.69 13.6938 15.946 14.0098 15.946H15.4048C15.48 15.9463 15.5545 15.9317 15.624 15.903C15.6935 15.8743 15.7567 15.8322 15.8099 15.7791C15.863 15.7259 15.9051 15.6627 15.9338 15.5932C15.9624 15.5237 15.9771 15.4492 15.9768 15.374V13.98C15.9771 13.9048 15.9624 13.8303 15.9338 13.7608C15.9051 13.6913 15.863 13.6281 15.8099 13.5749C15.7567 13.5218 15.6935 13.4797 15.624 13.451C15.5545 13.4224 15.48 13.4077 15.4048 13.408H14.0098C13.9346 13.4077 13.8601 13.4224 13.7906 13.451C13.7211 13.4797 13.6579 13.5218 13.6047 13.5749C13.5516 13.6281 13.5095 13.6913 13.4808 13.7608C13.4521 13.8303 13.4375 13.9048 13.4378 13.98V15.374ZM14.0238 15.36V13.993H15.3908V15.36H14.0238ZM17.4198 15.461C17.4198 15.777 17.6758 16.033 17.9918 16.033H19.3868C19.462 16.0333 19.5365 16.0187 19.606 15.99C19.6755 15.9613 19.7387 15.9192 19.7919 15.8661C19.845 15.8129 19.8871 15.7497 19.9158 15.6802C19.9444 15.6107 19.9591 15.5362 19.9588 15.461V14.066C19.9591 13.9908 19.9444 13.9163 19.9158 13.8468C19.8871 13.7773 19.845 13.7141 19.7919 13.6609C19.7387 13.6078 19.6755 13.5657 19.606 13.537C19.5365 13.5084 19.462 13.4937 19.3868 13.494H17.9918C17.9166 13.4937 17.8421 13.5084 17.7726 13.537C17.7031 13.5657 17.6399 13.6078 17.5867 13.6609C17.5336 13.7141 17.4915 13.7773 17.4628 13.8468C17.4341 13.9163 17.4195 13.9908 17.4198 14.066V15.461ZM18.0058 15.447V14.08H19.3728V15.447H18.0058ZM5.4748 18.998C5.4748 19.314 5.7308 19.57 6.0468 19.57H7.4418C7.51699 19.5703 7.59149 19.5556 7.661 19.527C7.73052 19.4983 7.79368 19.4562 7.84685 19.4031C7.90002 19.3499 7.94214 19.2867 7.97079 19.2172C7.99945 19.1477 8.01406 19.0732 8.0138 18.998V17.603C8.01406 17.5278 7.99945 17.4533 7.97079 17.3838C7.94214 17.3143 7.90002 17.2511 7.84685 17.1979C7.79368 17.1448 7.73052 17.1027 7.661 17.074C7.59149 17.0454 7.51699 17.0307 7.4418 17.031H6.0468C5.97161 17.0307 5.89711 17.0454 5.82759 17.074C5.75807 17.1027 5.69491 17.1448 5.64174 17.1979C5.58857 17.2511 5.54645 17.3143 5.5178 17.3838C5.48915 17.4533 5.47453 17.5278 5.4748 17.603V18.998ZM6.0608 18.984V17.617H7.4278V18.984H6.0608ZM9.4568 18.998C9.4568 19.314 9.7128 19.57 10.0288 19.57H11.4238C11.499 19.5703 11.5735 19.5556 11.643 19.527C11.7125 19.4983 11.7757 19.4562 11.8289 19.4031C11.882 19.3499 11.9241 19.2867 11.9528 19.2172C11.9814 19.1477 11.9961 19.0732 11.9958 18.998V17.603C11.9961 17.5278 11.9814 17.4533 11.9528 17.3838C11.9241 17.3143 11.882 17.2511 11.8289 17.1979C11.7757 17.1448 11.7125 17.1027 11.643 17.074C11.5735 17.0454 11.499 17.0307 11.4238 17.031H10.0288C9.95361 17.0307 9.87911 17.0454 9.80959 17.074C9.74007 17.1027 9.67691 17.1448 9.62374 17.1979C9.57057 17.2511 9.52845 17.3143 9.4998 17.3838C9.47115 17.4533 9.45653 17.5278 9.4568 17.603V18.998ZM10.0428 18.984V17.617H11.4098V18.984H10.0428ZM13.4378 18.998C13.4378 19.314 13.6938 19.57 14.0098 19.57H15.4048C15.48 19.5703 15.5545 19.5556 15.624 19.527C15.6935 19.4983 15.7567 19.4562 15.8099 19.4031C15.863 19.3499 15.9051 19.2867 15.9338 19.2172C15.9624 19.1477 15.9771 19.0732 15.9768 18.998V17.603C15.9771 17.5278 15.9624 17.4533 15.9338 17.3838C15.9051 17.3143 15.863 17.2511 15.8099 17.1979C15.7567 17.1448 15.6935 17.1027 15.624 17.074C15.5545 17.0454 15.48 17.0307 15.4048 17.031H14.0098C13.9346 17.0307 13.8601 17.0454 13.7906 17.074C13.7211 17.1027 13.6579 17.1448 13.6047 17.1979C13.5516 17.2511 13.5095 17.3143 13.4808 17.3838C13.4521 17.4533 13.4375 17.5278 13.4378 17.603V18.006C13.4378 18.0837 13.4687 18.1582 13.5236 18.2132C13.5786 18.2681 13.6531 18.299 13.7308 18.299C13.8085 18.299 13.883 18.2681 13.938 18.2132C13.9929 18.1582 14.0238 18.0837 14.0238 18.006V17.617H15.3908V18.984H14.0238C14.0219 18.9063 13.9893 18.8325 13.933 18.7789C13.8768 18.7252 13.8015 18.6961 13.7238 18.698C13.6461 18.6999 13.5723 18.7325 13.5187 18.7888C13.465 18.845 13.4359 18.9203 13.4378 18.998Z" fill="black"/>
</g>
</svg>
