<svg width="20" height="21" viewBox="0 0 20 21" fill="none" xmlns="http://www.w3.org/2000/svg">
<g id="Icon" clip-path="url(#clip0_1696_33619)">
<path id="Vector" d="M0.703125 4.44629C0.703125 4.3291 0.742188 4.23145 0.820312 4.15332C0.898438 4.0752 0.996094 4.03613 1.11328 4.03613H18.8867C19.0039 4.03613 19.1016 4.0752 19.1797 4.15332C19.2578 4.23145 19.2969 4.3291 19.2969 4.44629V19.8564C19.2969 19.9736 19.2578 20.0713 19.1797 20.1494C19.1016 20.2275 19.0039 20.2666 18.8867 20.2666H1.11328C0.996094 20.2666 0.898438 20.2275 0.820312 20.1494C0.742188 20.0713 0.703125 19.9736 0.703125 19.8564V4.44629ZM1.52344 4.87598V19.4463H18.4766V4.87598H1.52344ZM4.45312 1.67285C4.55729 1.67285 4.65169 1.71191 4.73633 1.79004C4.82096 1.86816 4.86328 1.96582 4.86328 2.08301V6.5166C4.86328 6.63379 4.82096 6.7347 4.73633 6.81934C4.65169 6.90397 4.55729 6.94629 4.45312 6.94629C4.33594 6.94629 4.23503 6.90397 4.15039 6.81934C4.06576 6.7347 4.02344 6.63379 4.02344 6.5166V2.08301C4.02344 1.96582 4.06576 1.86816 4.15039 1.79004C4.23503 1.71191 4.33594 1.67285 4.45312 1.67285ZM15.5469 1.67285C15.6641 1.67285 15.765 1.71191 15.8496 1.79004C15.9342 1.86816 15.9766 1.96582 15.9766 2.08301V6.5166C15.9766 6.63379 15.9342 6.7347 15.8496 6.81934C15.765 6.90397 15.6641 6.94629 15.5469 6.94629C15.4427 6.94629 15.3483 6.90397 15.2637 6.81934C15.179 6.7347 15.1367 6.63379 15.1367 6.5166V2.08301C15.1367 1.96582 15.179 1.86816 15.2637 1.79004C15.3483 1.71191 15.4427 1.67285 15.5469 1.67285ZM0.703125 8.15723C0.703125 8.04004 0.742188 7.94238 0.820312 7.86426C0.898438 7.78613 0.996094 7.74707 1.11328 7.74707H18.8867C19.0039 7.74707 19.1016 7.78613 19.1797 7.86426C19.2578 7.94238 19.2969 8.04004 19.2969 8.15723C19.2969 8.27441 19.2578 8.37207 19.1797 8.4502C19.1016 8.52832 19.0039 8.56738 18.8867 8.56738H1.11328C0.996094 8.56738 0.898438 8.52832 0.820312 8.4502C0.742188 8.37207 0.703125 8.27441 0.703125 8.15723Z" fill="#828282"/>
</g>
<defs>
<clipPath id="clip0_1696_33619">
<rect width="20" height="20" fill="white" transform="matrix(1 0 0 -1 0 20.9697)"/>
</clipPath>
</defs>
</svg>
