<svg width="17" height="17" viewBox="0 0 17 17" fill="none" xmlns="http://www.w3.org/2000/svg">
<g id="icon/car">
<path id="Vector" d="M9.83334 11.167H6.50001M13.1667 11.167H15.1667V9.06703C15.1671 8.90837 15.111 8.75476 15.0084 8.63379C14.9057 8.51281 14.7633 8.43241 14.6067 8.40702L11.1667 7.83369L9.36668 5.43369C9.30458 5.35089 9.22406 5.28369 9.13149 5.23741C9.03892 5.19112 8.93684 5.16702 8.83334 5.16702H3.99334C3.74486 5.1653 3.50083 5.23304 3.2888 5.36262C3.07676 5.49219 2.90516 5.67844 2.79334 5.90036L2.26001 6.98702C1.98011 7.54343 1.83401 8.15751 1.83334 8.78036V11.167H3.16668" stroke="#202D60" stroke-width="1.33" stroke-linecap="round" stroke-linejoin="round"/>
<path id="Vector_2" d="M4.83332 13.1663C5.7538 13.1663 6.49999 12.4201 6.49999 11.4997C6.49999 10.5792 5.7538 9.83301 4.83332 9.83301C3.91285 9.83301 3.16666 10.5792 3.16666 11.4997C3.16666 12.4201 3.91285 13.1663 4.83332 13.1663Z" stroke="#202D60" stroke-width="1.33" stroke-linecap="round" stroke-linejoin="round"/>
<path id="Vector_3" d="M11.5 13.1663C12.4205 13.1663 13.1667 12.4201 13.1667 11.4997C13.1667 10.5792 12.4205 9.83301 11.5 9.83301C10.5795 9.83301 9.83334 10.5792 9.83334 11.4997C9.83334 12.4201 10.5795 13.1663 11.5 13.1663Z" stroke="#202D60" stroke-width="1.33" stroke-linecap="round" stroke-linejoin="round"/>
</g>
</svg>
