<svg width="24" height="25" viewBox="0 0 24 25" fill="none" xmlns="http://www.w3.org/2000/svg">
<g id="SVG">
<path id="Vector" fill-rule="evenodd" clip-rule="evenodd" d="M1.94545 7.60529C1.94545 7.32829 2.17145 7.10229 2.44845 7.10229H5.96745V11.1243H1.94545V7.60529ZM6.97245 7.10229H10.9945V11.1243H6.97245V7.10229ZM12.0005 7.10229H16.0225V11.1243H11.9995L12.0005 7.10229ZM17.0275 7.10229H20.3705C20.8485 7.10229 21.2755 7.45429 21.3505 7.93229L21.9295 11.5023C21.9795 11.8783 22.0295 12.2553 22.0295 12.6323H18.5355L17.0275 11.1243V7.10229ZM0.939453 7.10229V16.1523C0.939453 16.7043 1.39245 17.1573 1.94545 17.1573H1.99545C1.96467 16.9913 1.94794 16.8231 1.94545 16.6543C1.94704 15.988 2.21241 15.3495 2.68354 14.8784C3.15466 14.4072 3.79319 14.1419 4.45945 14.1403C5.12555 14.1421 5.76382 14.4076 6.23472 14.8787C6.70563 15.3498 6.97087 15.9882 6.97245 16.6543C6.97245 16.8303 6.94745 17.0063 6.92245 17.1573H16.0725C16.0417 16.9913 16.0249 16.8231 16.0225 16.6543C16.024 15.9882 16.2893 15.3498 16.7602 14.8787C17.2311 14.4076 17.8694 14.1421 18.5355 14.1403C19.2017 14.1419 19.8402 14.4072 20.3114 14.8784C20.7825 15.3495 21.0479 15.988 21.0495 16.6543C21.0495 16.8303 21.0245 17.0063 20.9995 17.1573H22.0545C22.6075 17.1573 23.0605 16.7043 23.0605 16.1523V12.9343C23.0605 12.4063 23.0105 11.8533 22.9345 11.3253L22.3565 7.73129C22.2722 7.26585 22.0272 6.84476 21.6643 6.5414C21.3013 6.23805 20.8435 6.07168 20.3705 6.07129H1.94545C1.39245 6.09829 0.939453 6.54929 0.939453 7.10229Z" fill="#171717"/>
<path id="Vector_2" fill-rule="evenodd" clip-rule="evenodd" d="M20.2952 16.654C20.2952 17.1208 20.1098 17.5685 19.7797 17.8986C19.4497 18.2286 19.002 18.414 18.5352 18.414C18.0684 18.414 17.6208 18.2286 17.2907 17.8986C16.9606 17.5685 16.7752 17.1208 16.7752 16.654C16.7752 16.1873 16.9606 15.7396 17.2907 15.4095C17.6208 15.0795 18.0684 14.894 18.5352 14.894C19.002 14.894 19.4497 15.0795 19.7797 15.4095C20.1098 15.7396 20.2952 16.1873 20.2952 16.654ZM6.21922 16.654C6.21922 17.1208 6.03379 17.5685 5.70373 17.8986C5.37366 18.2286 4.926 18.414 4.45922 18.414C3.99244 18.414 3.54477 18.2286 3.21471 17.8986C2.88465 17.5685 2.69922 17.1208 2.69922 16.654C2.69922 16.1873 2.88465 15.7396 3.21471 15.4095C3.54477 15.0795 3.99244 14.894 4.45922 14.894C4.926 14.894 5.37366 15.0795 5.70373 15.4095C6.03379 15.7396 6.21922 16.1873 6.21922 16.654Z" fill="#171717"/>
</g>
</svg>
