<svg width="24" height="25" viewBox="0 0 24 25" fill="none" xmlns="http://www.w3.org/2000/svg">
<g id="SVG">
<path id="Vector" fill-rule="evenodd" clip-rule="evenodd" d="M22 12.3599C22 17.8829 17.523 22.3599 12 22.3599C6.477 22.3599 2 17.8829 2 12.3599C2 6.83686 6.477 2.35986 12 2.35986C17.523 2.35986 22 6.83686 22 12.3599ZM12 7.60986C12.1989 7.60986 12.3897 7.68888 12.5303 7.82953C12.671 7.97019 12.75 8.16095 12.75 8.35986V11.6099H16C16.1989 11.6099 16.3897 11.6889 16.5303 11.8295C16.671 11.9702 16.75 12.161 16.75 12.3599C16.75 12.5588 16.671 12.7495 16.5303 12.8902C16.3897 13.0308 16.1989 13.1099 16 13.1099H12.75V16.3599C12.75 16.5588 12.671 16.7495 12.5303 16.8902C12.3897 17.0308 12.1989 17.1099 12 17.1099C11.8011 17.1099 11.6103 17.0308 11.4697 16.8902C11.329 16.7495 11.25 16.5588 11.25 16.3599V13.1099H8C7.80109 13.1099 7.61032 13.0308 7.46967 12.8902C7.32902 12.7495 7.25 12.5588 7.25 12.3599C7.25 12.161 7.32902 11.9702 7.46967 11.8295C7.61032 11.6889 7.80109 11.6099 8 11.6099H11.25V8.35986C11.25 8.16095 11.329 7.97019 11.4697 7.82953C11.6103 7.68888 11.8011 7.60986 12 7.60986Z" fill="#A80F21"/>
</g>
</svg>
