<svg width="25" height="24" viewBox="0 0 25 24" fill="none" xmlns="http://www.w3.org/2000/svg">
<g id="SVG">
<path id="Vector" d="M7.28802 7.05731C7.2143 6.99727 7.11982 6.96883 7.02521 6.9782C6.9306 6.98757 6.84353 7.03398 6.78302 7.10731C5.65964 8.47427 5.04412 10.188 5.04102 11.9573C5.46102 22.0993 19.971 22.0993 20.391 11.9573C20.3935 10.5076 19.9813 9.08741 19.203 7.86431C18.4245 6.63877 17.3137 5.65973 16 5.04131C14.6846 4.42192 13.2208 4.1876 11.7778 4.36545C10.3348 4.5433 8.97163 5.12606 7.84602 6.04631C7.79147 6.09122 7.75147 6.1513 7.73109 6.21895C7.71072 6.2866 7.71087 6.35878 7.73153 6.42634C7.7522 6.49391 7.79245 6.55382 7.84718 6.59849C7.90192 6.64317 7.96868 6.6706 8.03902 6.67731C8.13368 6.68676 8.22823 6.65836 8.30202 6.59831C12.762 2.88631 19.716 6.16331 19.672 11.9573C19.6705 12.8679 19.4896 13.7692 19.1395 14.6098C18.7895 15.4504 18.2772 16.2138 17.632 16.8563C16.3258 18.156 14.5587 18.8864 12.716 18.8883C6.90102 18.9283 3.61902 12.0063 7.33802 7.56031C7.36794 7.52408 7.39039 7.48228 7.40409 7.43733C7.41778 7.39237 7.42243 7.34516 7.41778 7.2984C7.41313 7.25163 7.39927 7.20626 7.377 7.16488C7.35473 7.1235 7.32449 7.08694 7.28802 7.05731Z" fill="black"/>
<path id="Vector_2" d="M12.7176 6.64247C12.8124 6.64221 12.9032 6.60458 12.9704 6.53774C13.0377 6.47091 13.0758 6.38026 13.0766 6.28547V5.88047C13.0768 5.8333 13.0677 5.78655 13.0498 5.74293C13.0318 5.69931 13.0054 5.65969 12.972 5.62638C12.9386 5.59307 12.8989 5.56673 12.8552 5.54889C12.8115 5.53106 12.7648 5.52208 12.7176 5.52247C12.6226 5.52274 12.5316 5.56051 12.4644 5.62756C12.3971 5.69461 12.3591 5.78552 12.3586 5.88047V6.28547C12.3584 6.35636 12.3795 6.42567 12.419 6.48448C12.4586 6.5433 12.5149 6.58892 12.5806 6.61547C12.6243 6.63244 12.6707 6.64158 12.7176 6.64247ZM8.43958 8.19847C8.49023 8.24628 8.55367 8.27836 8.62219 8.29083C8.69071 8.30331 8.76138 8.29564 8.82563 8.26875C8.88988 8.24187 8.94495 8.19692 8.98417 8.13936C9.02339 8.0818 9.04507 8.01411 9.04658 7.94447C9.0471 7.851 9.01124 7.76098 8.94658 7.69347L8.65858 7.40647C8.60793 7.35867 8.54449 7.32659 8.47597 7.31411C8.40745 7.30164 8.33678 7.30931 8.27253 7.3362C8.20828 7.36308 8.15321 7.40803 8.11399 7.46558C8.07477 7.52314 8.05309 7.59084 8.05158 7.66047C8.05158 7.75447 8.08658 7.84447 8.15158 7.91247L8.43958 8.19847ZM7.02558 11.5985H6.61958C6.52601 11.6006 6.43693 11.639 6.37122 11.7056C6.30551 11.7723 6.26834 11.8619 6.26758 11.9555C6.26731 12.0494 6.30415 12.1396 6.37008 12.2064C6.43601 12.2733 6.52568 12.3114 6.61958 12.3125H7.02558C7.11915 12.3104 7.20823 12.272 7.27394 12.2053C7.33965 12.1387 7.37682 12.0491 7.37758 11.9555C7.37759 11.8617 7.34066 11.7716 7.27479 11.7048C7.20892 11.638 7.11939 11.5998 7.02558 11.5985ZM8.15158 16.5035C8.219 16.5703 8.31012 16.6079 8.40508 16.6079C8.50004 16.6079 8.59115 16.5703 8.65858 16.5035L8.94658 16.2175C8.97974 16.1842 9.00601 16.1447 9.02391 16.1012C9.04181 16.0578 9.05097 16.0113 9.05088 15.9643C9.05078 15.9173 9.04144 15.8708 9.02337 15.8274C9.0053 15.784 8.97887 15.7446 8.94558 15.7115C8.91229 15.6783 8.87279 15.652 8.82935 15.6341C8.7859 15.6162 8.73936 15.6071 8.69237 15.6072C8.64539 15.6073 8.59888 15.6166 8.5555 15.6347C8.51213 15.6528 8.47274 15.6792 8.43958 15.7125L8.15158 15.9985C8.11841 16.0316 8.0921 16.071 8.07415 16.1143C8.05619 16.1576 8.04695 16.2041 8.04695 16.251C8.04695 16.2979 8.05619 16.3443 8.07415 16.3876C8.0921 16.431 8.11841 16.4703 8.15158 16.5035ZM12.3586 17.6255V18.0305C12.3604 18.1243 12.3991 18.2136 12.4663 18.2791C12.5335 18.3446 12.6238 18.381 12.7176 18.3805C12.8112 18.3802 12.901 18.3436 12.968 18.2782C13.035 18.2129 13.074 18.124 13.0766 18.0305V17.6255C13.0754 17.5553 13.0536 17.4871 13.0139 17.4293C12.9742 17.3714 12.9184 17.3265 12.8535 17.3001C12.7885 17.2736 12.7172 17.2669 12.6484 17.2807C12.5796 17.2944 12.5164 17.3281 12.4666 17.3775C12.3997 17.443 12.361 17.5319 12.3586 17.6255ZM16.4886 16.2175C16.6216 16.3305 16.8286 16.6325 17.0296 16.6075C17.082 16.6066 17.1336 16.5943 17.1808 16.5715C17.228 16.5486 17.2697 16.5158 17.303 16.4753C17.3363 16.4348 17.3604 16.3876 17.3736 16.3368C17.3868 16.2861 17.3889 16.2331 17.3796 16.1815C17.3662 16.1124 17.3328 16.0488 17.2836 15.9985L16.9956 15.7115C16.9449 15.6636 16.8813 15.6315 16.8127 15.6191C16.7441 15.6066 16.6734 15.6144 16.6091 15.6414C16.5448 15.6684 16.4897 15.7135 16.4506 15.7712C16.4114 15.8289 16.3899 15.8968 16.3886 15.9665C16.3876 16.0595 16.4236 16.1505 16.4886 16.2175ZM18.8166 12.3125C18.91 12.3101 18.9988 12.2716 19.0643 12.205C19.1298 12.1384 19.1668 12.0489 19.1676 11.9555C19.1676 11.8617 19.1307 11.7716 19.0648 11.7048C18.9989 11.638 18.9094 11.5998 18.8156 11.5985H18.4096C18.316 11.6006 18.2269 11.639 18.1612 11.7056C18.0955 11.7723 18.0583 11.8619 18.0576 11.9555C18.0576 12.0493 18.0945 12.1394 18.1604 12.2062C18.2262 12.273 18.3158 12.3112 18.4096 12.3125H18.8166ZM16.7426 8.30347C16.9426 8.32747 17.1526 8.02447 17.2826 7.91247C17.3327 7.86254 17.3669 7.79883 17.3808 7.72943C17.3947 7.66003 17.3876 7.58807 17.3605 7.5227C17.3334 7.45733 17.2874 7.40149 17.2285 7.36228C17.1696 7.32307 17.1004 7.30225 17.0296 7.30247C16.9348 7.3025 16.8439 7.33987 16.7766 7.40647L16.4886 7.69347C16.4398 7.744 16.4069 7.8077 16.3938 7.87672C16.3808 7.94573 16.3882 8.01705 16.4152 8.08189C16.4422 8.14673 16.4876 8.20226 16.5458 8.24163C16.6039 8.281 16.6724 8.3025 16.7426 8.30347Z" fill="black"/>
<path id="Vector_3" d="M21.219 6.34881C21.2864 6.41567 21.3775 6.45319 21.4725 6.45319C21.5674 6.45319 21.6585 6.41567 21.726 6.34881L22.018 6.05881C22.2396 5.83773 22.4154 5.5751 22.5354 5.28596C22.6554 4.99682 22.7171 4.68685 22.7171 4.37381C22.7171 4.06076 22.6554 3.7508 22.5354 3.46166C22.4154 3.17252 22.2396 2.90989 22.018 2.68881C21.7671 2.447 21.4677 2.26124 21.1396 2.14384C20.8116 2.02644 20.4623 1.98007 20.115 2.00781C19.768 2.03537 19.4308 2.13626 19.1256 2.30382C18.8205 2.47138 18.5544 2.70178 18.345 2.97981C18.3115 3.01276 18.2849 3.05202 18.2667 3.09533C18.2485 3.13864 18.2391 3.18513 18.239 3.2321C18.2389 3.27907 18.2481 3.32559 18.2662 3.36897C18.2842 3.41235 18.3106 3.45172 18.344 3.48481L19.528 4.66481L19.025 5.16481C15.605 1.88681 9.80997 1.89081 6.40197 5.15881L5.90597 4.66481L7.08997 3.48481C7.12314 3.45165 7.14945 3.41229 7.16741 3.36897C7.18536 3.32564 7.1946 3.2792 7.1946 3.23231C7.1946 3.18541 7.18536 3.13897 7.16741 3.09565C7.14945 3.05232 7.12314 3.01296 7.08997 2.97981C6.88085 2.70119 6.61471 2.47038 6.30932 2.30277C6.00393 2.13516 5.6663 2.0346 5.31897 2.00781C4.97164 1.98007 4.62237 2.02644 4.2943 2.14384C3.96623 2.26124 3.66685 2.447 3.41597 2.68881C3.19434 2.90989 3.0185 3.17252 2.89853 3.46166C2.77855 3.7508 2.7168 4.06076 2.7168 4.37381C2.7168 4.68685 2.77855 4.99682 2.89853 5.28596C3.0185 5.5751 3.19434 5.83773 3.41597 6.05881C3.56897 6.18581 3.74597 6.46781 3.96197 6.45381C4.05719 6.45378 4.14852 6.41602 4.21597 6.34881L5.39897 5.16881L5.89497 5.66381C2.39697 9.27981 2.66997 15.4878 6.44197 18.7898L5.46797 21.5228C5.44845 21.5768 5.44228 21.6348 5.45 21.6917C5.45772 21.7486 5.4791 21.8028 5.5123 21.8496C5.54551 21.8965 5.58956 21.9346 5.6407 21.9608C5.69183 21.9869 5.74854 22.0003 5.80597 21.9998H7.42997C7.48645 21.9998 7.54213 21.9864 7.59251 21.9609C7.64289 21.9354 7.68655 21.8983 7.71997 21.8528L8.80997 20.3608C10.0338 20.9281 11.3667 21.2215 12.7156 21.2204C14.0646 21.2194 15.397 20.924 16.62 20.3548L17.714 21.8528C17.7474 21.8983 17.7911 21.9354 17.8414 21.9609C17.8918 21.9864 17.9475 21.9998 18.004 21.9998H19.628C19.6849 21.999 19.7409 21.9847 19.7913 21.9582C19.8417 21.9317 19.8852 21.8936 19.9181 21.8471C19.951 21.8007 19.9725 21.7471 19.9809 21.6907C19.9892 21.6343 19.9841 21.5768 19.966 21.5228L18.988 18.7788C20.7251 17.2078 21.7977 15.0333 21.987 12.6988C21.9908 12.6519 21.9853 12.6046 21.9707 12.5599C21.9561 12.5151 21.9328 12.4736 21.9021 12.4379C21.8714 12.4022 21.834 12.3729 21.7919 12.3518C21.7498 12.3307 21.7039 12.3181 21.657 12.3148C21.5626 12.3079 21.4692 12.3384 21.3972 12.3998C21.3251 12.4612 21.2801 12.5485 21.272 12.6428C19.992 23.4718 4.52897 22.8768 4.13097 11.9558C4.13097 9.74781 4.98797 7.62381 6.52397 6.03081C8.06259 4.43639 10.157 3.49701 12.371 3.40834C14.5849 3.31967 16.7478 4.08854 18.409 5.55481C20.0671 7.01736 21.0934 9.06602 21.272 11.2698C21.2756 11.3167 21.2885 11.3623 21.3099 11.4042C21.3312 11.446 21.3606 11.4833 21.3964 11.5137C21.4321 11.5442 21.4736 11.5673 21.5183 11.5818C21.563 11.5962 21.6101 11.6016 21.657 11.5978C21.7515 11.5901 21.8391 11.5455 21.9009 11.4736C21.9627 11.4017 21.9936 11.3084 21.987 11.2138C21.8199 9.14145 20.9544 7.18716 19.532 5.67081L20.035 5.16981L21.219 6.34881ZM3.96097 5.59081C2.34997 3.98581 4.71697 1.62881 6.32797 3.23281L3.96097 5.59081ZM19.119 21.2848H18.185L17.265 20.0248C17.6614 19.8013 18.0411 19.5493 18.401 19.2708L19.119 21.2848ZM7.24697 21.2848H6.31297L7.02797 19.2798C7.38797 19.5578 7.7663 19.8081 8.16297 20.0308L7.24697 21.2848ZM19.142 3.19481C20.774 1.66081 23.062 4.01581 21.471 5.59081L19.104 3.23281L19.142 3.19481Z" fill="black"/>
<path id="Vector_4" d="M12.3577 10.8497C12.1827 10.9066 12.0235 11.004 11.8932 11.134C11.7629 11.2639 11.6651 11.4228 11.6077 11.5977H9.48672C9.3935 11.6003 9.30493 11.6389 9.23964 11.7055C9.17436 11.7721 9.13746 11.8614 9.13672 11.9547C9.1367 12.0482 9.17335 12.1379 9.23879 12.2047C9.30424 12.2714 9.39326 12.3099 9.48672 12.3117H11.6067C11.6674 12.5024 11.7763 12.6742 11.923 12.8103C12.0696 12.9465 12.249 13.0424 12.4437 13.0887C12.7372 13.1589 13.0465 13.1133 13.3073 12.9613C13.568 12.8093 13.7601 12.5627 13.8437 12.2727C13.9263 11.9818 13.892 11.6702 13.7482 11.4042C13.6044 11.1382 13.3623 10.9389 13.0737 10.8487V7.90469C13.0719 7.81105 13.0333 7.72189 12.9664 7.65641C12.8994 7.59094 12.8094 7.55441 12.7157 7.55469C12.6221 7.55491 12.5323 7.59158 12.4653 7.65692C12.3983 7.72226 12.3593 7.81113 12.3567 7.90469L12.3577 10.8497ZM12.7167 12.4067C12.5976 12.4049 12.484 12.3564 12.4002 12.2717C12.3164 12.187 12.2692 12.0728 12.2687 11.9537C12.2683 11.8945 12.2796 11.8358 12.3019 11.781C12.3242 11.7262 12.3571 11.6763 12.3987 11.6343C12.4404 11.5922 12.4899 11.5587 12.5444 11.5358C12.599 11.5129 12.6575 11.501 12.7167 11.5007C12.8358 11.5025 12.9495 11.551 13.0332 11.6357C13.117 11.7204 13.1642 11.8346 13.1647 11.9537C13.1651 12.0129 13.1538 12.0715 13.1315 12.1264C13.1092 12.1812 13.0763 12.231 13.0347 12.2731C12.9931 12.3152 12.9436 12.3487 12.889 12.3716C12.8344 12.3945 12.7759 12.4064 12.7167 12.4067Z" fill="black"/>
</g>
</svg>
