<svg width="27" height="27" viewBox="0 0 27 27" fill="none" xmlns="http://www.w3.org/2000/svg">
<g id="SVG">
<path id="Vector" d="M23.8736 14.0121H23.4523C23.2837 14.0121 23.1219 13.9454 23.0023 13.8264C22.8828 13.7075 22.8152 13.5461 22.8143 13.3774C22.8152 13.2088 22.8828 13.0474 23.0023 12.9284C23.1219 12.8095 23.2837 12.7427 23.4523 12.7427H23.8736C23.9162 12.7429 23.9585 12.7346 23.9979 12.7185C24.0373 12.7023 24.0732 12.6785 24.1034 12.6485C24.1336 12.6184 24.1577 12.5828 24.1741 12.5434C24.1905 12.5041 24.1991 12.462 24.1992 12.4193V10.4778C24.1991 10.4352 24.1905 10.3931 24.1741 10.3537C24.1577 10.3144 24.1336 10.2787 24.1034 10.2487C24.0732 10.2187 24.0373 10.1949 23.9979 10.1787C23.9585 10.1625 23.9162 10.1543 23.8736 10.1544H23.4523C23.2837 10.1544 23.1219 10.0877 23.0023 9.96874C22.8828 9.84981 22.8152 9.68838 22.8143 9.51974V9.40204L23.2906 8.96754C23.3534 8.91171 23.3916 8.83338 23.3969 8.74957C23.4023 8.66575 23.3743 8.5832 23.3192 8.51984L22.0487 7.04694C21.9923 6.98144 21.9123 6.94097 21.8261 6.93437C21.7399 6.92777 21.6546 6.95559 21.5889 7.01174L21.2699 7.28344C21.1408 7.39304 20.9738 7.44734 20.8049 7.43457C20.6361 7.4218 20.4791 7.343 20.3679 7.21524C20.3127 7.1523 20.2707 7.07895 20.2443 6.99951C20.2179 6.92007 20.2077 6.83614 20.2143 6.75269C20.2208 6.66924 20.244 6.58794 20.2825 6.5136C20.321 6.43926 20.374 6.37338 20.4383 6.31984L20.7573 6.04814C20.79 6.02086 20.8169 5.98731 20.8364 5.94948C20.8559 5.91165 20.8676 5.8703 20.8709 5.82786C20.8742 5.78542 20.8689 5.74276 20.8555 5.70238C20.842 5.662 20.8206 5.62472 20.7925 5.59274L19.522 4.11874C19.4651 4.054 19.3852 4.01408 19.2993 4.0075C19.2134 4.00092 19.1283 4.02821 19.0622 4.08354L18.7432 4.35634C18.6794 4.41083 18.6054 4.45219 18.5256 4.47805C18.4457 4.50391 18.3616 4.51376 18.2779 4.50704C18.1942 4.50089 18.1126 4.47829 18.0377 4.44054C17.9627 4.40279 17.896 4.35063 17.8412 4.28704L17.4144 3.79204C17.3579 3.72703 17.278 3.68697 17.1921 3.68059C17.1062 3.6742 17.0212 3.702 16.9557 3.75794L11.3259 8.54734H10.3942C10.3516 8.5472 10.3094 8.55545 10.27 8.57162C10.2305 8.58779 10.1947 8.61158 10.1644 8.64161C10.1342 8.67164 10.1102 8.70733 10.0937 8.74664C10.0773 8.78596 10.0688 8.82813 10.0686 8.87074C10.0686 9.04894 10.2138 9.19414 10.3942 9.19414H22.1609V9.52084C22.1624 9.86179 22.2991 10.1882 22.541 10.4285C22.7829 10.6688 23.1103 10.8032 23.4512 10.8023H23.5469V12.0959H23.4512C23.1103 12.0951 22.7829 12.2295 22.541 12.4698C22.2991 12.71 22.1624 13.0365 22.1609 13.3774C22.1627 13.7182 22.2995 14.0444 22.5414 14.2844C22.7833 14.5244 23.1105 14.6587 23.4512 14.6578H23.5469V15.9514H23.4512C23.1103 15.9506 22.7829 16.085 22.541 16.3253C22.2991 16.5655 22.1624 16.892 22.1609 17.2329V17.9655H19.9092C19.8666 17.9654 19.8244 17.9736 19.785 17.9898C19.7455 18.006 19.7097 18.0298 19.6794 18.0598C19.6492 18.0898 19.6252 18.1255 19.6087 18.1648C19.5923 18.2042 19.5838 18.2463 19.5836 18.2889C19.5836 18.4682 19.7299 18.6123 19.9092 18.6123H22.4865C22.5291 18.6125 22.5714 18.6042 22.6108 18.5881C22.6502 18.5719 22.6861 18.5481 22.7163 18.5181C22.7465 18.488 22.7706 18.4524 22.787 18.413C22.8034 18.3737 22.812 18.3316 22.8121 18.2889V17.2329C22.813 17.0641 22.8807 16.9025 23.0005 16.7836C23.1203 16.6646 23.2824 16.5979 23.4512 16.5982H23.8725C23.9152 16.5985 23.9576 16.5904 23.9971 16.5743C24.0367 16.5582 24.0727 16.5344 24.103 16.5044C24.1334 16.4743 24.1575 16.4386 24.174 16.3992C24.1905 16.3598 24.1991 16.3175 24.1992 16.2748V14.3355C24.1991 14.2929 24.1905 14.2508 24.1741 14.2114C24.1577 14.1721 24.1336 14.1364 24.1034 14.1064C24.0732 14.0764 24.0373 14.0526 23.9979 14.0364C23.9585 14.0202 23.9162 14.012 23.8736 14.0121ZM12.3258 8.54734L17.1306 4.45864L17.3451 4.70724C17.5695 4.96794 17.883 5.12524 18.2262 5.15164C18.5694 5.17804 18.9038 5.07024 19.1656 4.84694L19.2382 4.78534L20.0852 5.76764L20.0126 5.82924C19.8843 5.93828 19.7788 6.07165 19.7022 6.22166C19.6257 6.37167 19.5796 6.53534 19.5666 6.70325C19.5536 6.87115 19.574 7.03997 19.6266 7.19996C19.6792 7.35996 19.7629 7.50796 19.8729 7.63544C20.0968 7.89344 20.4133 8.0528 20.7539 8.07895C21.0945 8.1051 21.4317 7.99594 21.6923 7.77514L21.7649 7.71354L22.4843 8.54734H12.3258ZM17.0525 17.9655H4.23642V17.6388C4.23496 17.2979 4.09827 16.9714 3.85636 16.7312C3.61444 16.4909 3.28707 16.3565 2.94612 16.3573H2.85042V15.0637H2.94612C3.28707 15.0646 3.61444 14.9302 3.85636 14.6899C4.09827 14.4496 4.23496 14.1232 4.23642 13.7822C4.23467 13.4415 4.09785 13.1153 3.85597 12.8753C3.61409 12.6353 3.28688 12.501 2.94612 12.5018H2.85042V11.2082H2.94612C3.28707 11.2091 3.61444 11.0747 3.85636 10.8344C4.09827 10.5941 4.23496 10.2677 4.23642 9.92674V9.19414H7.95222C7.99483 9.19428 8.03706 9.18604 8.07648 9.16986C8.11591 9.15369 8.15176 9.12991 8.182 9.09988C8.21223 9.06984 8.23626 9.03415 8.2527 8.99484C8.26914 8.95552 8.27767 8.91335 8.27782 8.87074C8.27767 8.82813 8.26914 8.78596 8.2527 8.74664C8.23626 8.70733 8.21223 8.67164 8.182 8.64161C8.15176 8.61158 8.11591 8.58779 8.07648 8.57162C8.03706 8.55545 7.99483 8.5472 7.95222 8.54734H3.91082C3.8682 8.5472 3.82598 8.55545 3.78655 8.57162C3.74713 8.58779 3.71127 8.61158 3.68104 8.64161C3.6508 8.67164 3.62678 8.70733 3.61034 8.74664C3.5939 8.78596 3.58536 8.82813 3.58522 8.87074V9.92674C3.58435 10.0956 3.51659 10.2572 3.3968 10.3761C3.27701 10.4951 3.11495 10.5617 2.94612 10.5614H2.52482C2.4822 10.5613 2.43998 10.5695 2.40055 10.5857C2.36113 10.6019 2.32527 10.6257 2.29504 10.6557C2.2648 10.6857 2.24078 10.7214 2.22434 10.7607C2.2079 10.8001 2.19936 10.8422 2.19922 10.8848V12.8241C2.19922 13.0034 2.34442 13.1475 2.52482 13.1475H2.94612C3.11476 13.1475 3.27654 13.2143 3.39609 13.3332C3.51564 13.4522 3.58325 13.6136 3.58412 13.7822C3.58325 13.9509 3.51564 14.1123 3.39609 14.2312C3.27654 14.3502 3.11476 14.4169 2.94612 14.4169H2.52482C2.4822 14.4168 2.43998 14.425 2.40055 14.4412C2.36113 14.4574 2.32527 14.4812 2.29504 14.5112C2.2648 14.5412 2.24078 14.5769 2.22434 14.6162C2.2079 14.6556 2.19936 14.6977 2.19922 14.7403V16.6807C2.19922 16.8589 2.34442 17.0041 2.52482 17.0041H2.94612C3.11476 17.0041 3.27654 17.0709 3.39609 17.1898C3.51564 17.3088 3.58325 17.4702 3.58412 17.6388V17.8137L3.12542 18.1767C3.09144 18.2036 3.06323 18.2371 3.04248 18.2751C3.02173 18.3132 3.00887 18.355 3.00466 18.3982C3.00045 18.4413 3.00498 18.4848 3.01798 18.5262C3.03098 18.5675 3.05218 18.6058 3.08032 18.6387L4.35082 20.1127C4.37866 20.1453 4.41266 20.172 4.45085 20.1914C4.48905 20.2108 4.5307 20.2225 4.57341 20.2258C4.61613 20.229 4.65907 20.2238 4.69977 20.2105C4.74048 20.1971 4.77814 20.1759 4.81062 20.1479L5.12962 19.8762C5.25942 19.7662 5.42442 19.7112 5.59492 19.7244C5.72095 19.7326 5.84167 19.7782 5.94152 19.8555C6.04138 19.9329 6.1158 20.0383 6.1552 20.1583C6.19461 20.2783 6.19719 20.4073 6.16262 20.5288C6.12805 20.6502 6.0579 20.7586 5.96122 20.8398L5.64222 21.1115C5.60938 21.1388 5.58236 21.1724 5.56275 21.2104C5.54314 21.2483 5.53134 21.2898 5.52806 21.3323C5.52478 21.3749 5.53008 21.4177 5.54364 21.4582C5.5572 21.4987 5.57875 21.536 5.60702 21.568L6.87752 23.0398C6.93392 23.1053 7.01397 23.1458 7.10015 23.1524C7.18633 23.159 7.27161 23.1312 7.33732 23.075L7.65632 22.8022C7.72 22.7474 7.7939 22.7056 7.87377 22.6794C7.95364 22.6531 8.0379 22.6429 8.12173 22.6494C8.20555 22.6558 8.28727 22.6788 8.36219 22.7169C8.43712 22.755 8.50377 22.8076 8.55832 22.8715L8.98402 23.3665C9.01194 23.399 9.04599 23.4257 9.08423 23.445C9.12246 23.4643 9.16413 23.4758 9.20684 23.479C9.24956 23.4822 9.29247 23.4769 9.33314 23.4634C9.3738 23.45 9.41141 23.4286 9.44382 23.4006L15.0648 18.62L15.0725 18.6112H17.0525C17.1384 18.6112 17.2208 18.5772 17.2816 18.5166C17.3424 18.456 17.3767 18.3737 17.377 18.2878C17.3767 18.202 17.3424 18.1197 17.2816 18.0591C17.2208 17.9985 17.1384 17.9644 17.0525 17.9644M9.26782 22.6988L9.05332 22.4513C8.94291 22.3229 8.80825 22.2176 8.65705 22.1413C8.50586 22.0651 8.3411 22.0194 8.17222 22.0069C8.00329 21.9934 7.83334 22.0133 7.67213 22.0656C7.51092 22.1179 7.36163 22.2015 7.23282 22.3116L7.16132 22.3732L6.31432 21.3909L6.38582 21.3293C6.64762 21.1071 6.80602 20.7958 6.83242 20.4548C6.84471 20.2865 6.82373 20.1175 6.77068 19.9573C6.71763 19.7971 6.63354 19.649 6.52322 19.5213C6.41291 19.3936 6.27852 19.2889 6.12773 19.2131C5.97694 19.1374 5.81271 19.0921 5.64442 19.0798C5.47567 19.0664 5.30592 19.0864 5.14491 19.1387C4.98391 19.191 4.83479 19.2745 4.70612 19.3845L4.63352 19.4461L3.91412 18.6123H14.0726L9.26782 22.6988Z" fill="black"/>
<path id="Vector_2" d="M20.5869 10.063H11.3106C11.2679 10.0627 11.2255 10.0708 11.186 10.087C11.1464 10.1031 11.1104 10.1268 11.0801 10.1569C11.0497 10.1869 11.0256 10.2227 11.0091 10.262C10.9926 10.3014 10.984 10.3437 10.9839 10.3864C10.9839 10.5646 11.1302 10.7098 11.3106 10.7098H20.2613V16.4496H6.13838V10.7098H8.82238C8.865 10.7099 8.90722 10.7017 8.94665 10.6855C8.98607 10.6693 9.02193 10.6456 9.05216 10.6155C9.08239 10.5855 9.10642 10.5498 9.12286 10.5105C9.1393 10.4712 9.14784 10.429 9.14798 10.3864C9.14784 10.3438 9.1393 10.3016 9.12286 10.2623C9.10642 10.223 9.08239 10.1873 9.05216 10.1573C9.02193 10.1272 8.98607 10.1034 8.94665 10.0873C8.90722 10.0711 8.865 10.0629 8.82238 10.063H5.81388C5.77127 10.0629 5.72904 10.0711 5.68962 10.0873C5.65019 10.1034 5.61434 10.1272 5.5841 10.1573C5.55387 10.1873 5.52984 10.223 5.5134 10.2623C5.49696 10.3016 5.48843 10.3438 5.48828 10.3864V16.773C5.48828 16.9523 5.63458 17.0964 5.81388 17.0964H20.5869C20.6295 17.0965 20.6717 17.0883 20.7111 17.0721C20.7506 17.0559 20.7864 17.0322 20.8167 17.0021C20.8469 16.9721 20.8709 16.9364 20.8874 16.8971C20.9038 16.8578 20.9123 16.8156 20.9125 16.773V10.3864C20.9123 10.3438 20.9038 10.3016 20.8874 10.2623C20.8709 10.223 20.8469 10.1873 20.8167 10.1573C20.7864 10.1272 20.7506 10.1034 20.7111 10.0873C20.6717 10.0711 20.6295 10.0629 20.5869 10.063Z" fill="black"/>
<path id="Vector_3" d="M8.93128 12.1641H7.13278C7.01398 12.1641 6.95898 12.2917 6.95898 12.4094C6.95898 12.5447 7.02278 12.658 7.13278 12.658H7.75758V15.078C7.75758 15.1913 7.89398 15.2507 8.03478 15.2507C8.17008 15.2507 8.30978 15.1913 8.30978 15.0769V12.658H8.93128C9.04128 12.658 9.10618 12.5403 9.10618 12.4094C9.10618 12.2917 9.05118 12.1641 8.93128 12.1641ZM9.68368 12.1641C9.54398 12.1641 9.40758 12.2147 9.40758 12.3335V15.0769C9.40758 15.1913 9.54398 15.2507 9.68368 15.2507C9.82008 15.2507 9.95978 15.1913 9.95978 15.0769V12.3335C9.95978 12.2147 9.82008 12.1641 9.68478 12.1641M12.1543 14.1694C12.0091 14.1694 11.8903 14.2123 11.8815 14.3432C11.8694 14.5192 11.8353 14.7942 11.4481 14.7942C11.1555 14.7942 10.9938 14.638 10.9938 14.3091V13.1321C10.9938 12.8021 11.1555 12.6459 11.4404 12.6459C11.8441 12.6459 11.8738 12.9319 11.8815 13.0639C11.8859 13.1904 12.0014 13.2366 12.1587 13.2366C12.3457 13.2366 12.4337 13.186 12.4337 12.9671C12.4337 12.4765 12.0135 12.1641 11.4217 12.1641C10.8871 12.1641 10.4405 12.4259 10.4405 13.1321V14.3091C10.4405 15.0131 10.8827 15.276 11.4195 15.276C12.0135 15.276 12.4348 14.9504 12.4348 14.44C12.4348 14.2244 12.3457 14.1694 12.1543 14.1694ZM14.8834 14.8998L13.9561 13.4984L14.7173 12.5524C14.7403 12.5225 14.7523 12.4856 14.7514 12.4479C14.7514 12.3082 14.5732 12.1641 14.4324 12.1641C14.4021 12.1633 14.3722 12.1702 14.3454 12.1842C14.3186 12.1983 14.2959 12.219 14.2795 12.2444L13.361 13.4863V12.3335C13.361 12.2147 13.2213 12.1641 13.086 12.1641C12.9441 12.1641 12.8088 12.2147 12.8088 12.3335V15.0769C12.8088 15.1913 12.9452 15.2507 13.0849 15.2507C13.2213 15.2507 13.361 15.1913 13.361 15.0769V14.2497L13.592 13.9637L14.3906 15.166C14.4105 15.1988 14.4387 15.2258 14.4722 15.2443C14.5058 15.2628 14.5436 15.2722 14.582 15.2716C14.7426 15.2716 14.9131 15.1319 14.9131 14.9966C14.9136 14.9621 14.9032 14.9282 14.8834 14.8998ZM16.9118 14.7689H15.7073V13.9208H16.353C16.4718 13.9208 16.5279 13.8064 16.5279 13.7096C16.5279 13.5952 16.4641 13.4896 16.353 13.4896H15.7073V12.6459H16.9107C17.0207 12.6459 17.0845 12.5315 17.0845 12.4006C17.0845 12.2873 17.0295 12.1641 16.9107 12.1641H15.3971C15.2728 12.1641 15.1551 12.2235 15.1551 12.3379V15.0769C15.1551 15.1913 15.2728 15.2507 15.3971 15.2507H16.9107C17.0295 15.2507 17.0845 15.1275 17.0845 15.0142C17.0845 14.8822 17.0207 14.7689 16.9107 14.7689M19.1778 12.1641H17.3793C17.2594 12.1641 17.2044 12.2917 17.2044 12.4094C17.2044 12.5447 17.2682 12.658 17.3793 12.658H18.0041V15.078C18.0041 15.1913 18.1405 15.2507 18.2802 15.2507C18.4166 15.2507 18.5563 15.1913 18.5563 15.0769V12.658H19.1778C19.2878 12.658 19.3516 12.5403 19.3516 12.4094C19.3516 12.2917 19.2966 12.1641 19.1778 12.1641Z" fill="black"/>
</g>
</svg>
