<svg width="32" height="26" viewBox="0 0 32 26" fill="none" xmlns="http://www.w3.org/2000/svg">
<g id="Icon" clip-path="url(#clip0_1534_9788)">
<path id="Vector" d="M21.4701 19.6349C22.1733 19.6349 22.8309 19.4591 23.4427 19.1074C24.0264 18.7629 24.4905 18.2952 24.8351 17.7045C25.1937 17.0997 25.373 16.4439 25.373 15.7372C25.373 15.0304 25.1937 14.3711 24.8351 13.7593C24.4905 13.1756 24.0264 12.708 23.4427 12.3564C22.8309 12.0048 22.1716 11.829 21.4648 11.829C20.7581 11.829 20.1023 12.0048 19.4975 12.3564C18.9068 12.708 18.4392 13.1756 18.0946 13.7593C17.7359 14.3711 17.5566 15.0304 17.5566 15.7372C17.5566 16.4439 17.7359 17.0997 18.0946 17.7045C18.4392 18.2952 18.9068 18.7629 19.4975 19.1074C20.1023 19.4591 20.7598 19.6349 21.4701 19.6349ZM15.9954 15.7319C15.9954 15.1131 16.1396 14.5259 16.4279 13.9703C16.7022 13.4429 17.0784 12.9963 17.5566 12.6306C17.2261 12.3704 16.8586 12.1718 16.4543 12.0347C16.0499 11.8975 15.6368 11.829 15.2148 11.829C14.7015 11.829 14.2039 11.9274 13.7222 12.1243C13.2405 12.3212 12.8168 12.6025 12.4511 12.9682C12.0854 13.3339 11.8041 13.7576 11.6072 14.2393C11.4103 14.721 11.3119 15.2203 11.3119 15.7372C11.3119 16.2541 11.4103 16.7516 11.6072 17.2298C11.8041 17.708 12.0854 18.1299 12.4511 18.4956C12.8168 18.8613 13.2405 19.1426 13.7222 19.3395C14.2039 19.5364 14.7015 19.6349 15.2148 19.6349C15.6368 19.6349 16.0499 19.5663 16.4543 19.4292C16.8586 19.292 17.2261 19.0969 17.5566 18.8437C17.0714 18.478 16.6899 18.0209 16.4121 17.4724C16.1343 16.9239 15.9954 16.3437 15.9954 15.7319ZM28.4954 0.890135H3.49541C2.93282 0.890135 2.40891 1.03078 1.92368 1.31208C1.45251 1.59337 1.07628 1.9696 0.794988 2.44077C0.513694 2.926 0.373047 3.44991 0.373047 4.0125V22.7678C0.373047 23.3304 0.513694 23.8543 0.794988 24.3395C1.07628 24.8107 1.45251 25.1869 1.92368 25.4682C2.40891 25.7495 2.93282 25.8901 3.49541 25.8901H28.4954C29.065 25.8901 29.5925 25.7495 30.0777 25.4682C30.5489 25.1869 30.9216 24.8107 31.1958 24.3395C31.4771 23.8543 31.6178 23.3304 31.6178 22.7678V4.0125C31.6178 3.44991 31.4771 2.926 31.1958 2.44077C30.9216 1.9696 30.5489 1.59337 30.0777 1.31208C29.5925 1.03078 29.065 0.890135 28.4954 0.890135ZM3.49541 22.7678V4.0125H28.4954L28.506 22.7678H3.49541Z" fill="#171717"/>
</g>
<defs>
<clipPath id="clip0_1534_9788">
<rect width="31.25" height="25" fill="white" transform="matrix(1 0 0 -1 0.370117 25.8901)"/>
</clipPath>
</defs>
</svg>
