<svg width="21" height="21" viewBox="0 0 21 21" fill="none" xmlns="http://www.w3.org/2000/svg">
<g id="icon/flame">
<path id="Vector" d="M7.58333 12.5833C8.13587 12.5833 8.66577 12.3638 9.05647 11.9731C9.44717 11.5824 9.66667 11.0525 9.66667 10.5C9.66667 9.35 9.25 8.83333 8.83333 8C7.94 6.21417 8.64667 4.62167 10.5 3C10.9167 5.08333 12.1667 7.08333 13.8333 8.41667C15.5 9.75 16.3333 11.3333 16.3333 13C16.3333 13.766 16.1825 14.5246 15.8893 15.2323C15.5961 15.9401 15.1665 16.5831 14.6248 17.1248C14.0831 17.6665 13.4401 18.0961 12.7323 18.3893C12.0246 18.6825 11.266 18.8333 10.5 18.8333C9.73396 18.8333 8.97541 18.6825 8.26768 18.3893C7.55995 18.0961 6.91689 17.6665 6.37521 17.1248C5.83354 16.5831 5.40386 15.9401 5.1107 15.2323C4.81755 14.5246 4.66667 13.766 4.66667 13C4.66667 12.0392 5.0275 11.0883 5.5 10.5C5.5 11.0525 5.71949 11.5824 6.1102 11.9731C6.5009 12.3638 7.0308 12.5833 7.58333 12.5833Z" stroke="#A80F21" stroke-width="1.77" stroke-linecap="round" stroke-linejoin="round"/>
</g>
</svg>
