<svg width="22" height="23" viewBox="0 0 22 23" fill="none" xmlns="http://www.w3.org/2000/svg">
<g id="SVG">
<path id="Vector" d="M11.7807 5.14565L11.0922 5.88545L10.4037 5.14565C8.50201 3.10265 5.41951 3.10265 3.51871 5.14565C1.61791 7.18865 1.61701 10.5007 3.51871 12.5437L9.71521 19.201C9.88905 19.3938 10.1015 19.5479 10.3387 19.6535C10.5759 19.759 10.8326 19.8135 11.0922 19.8135C11.3518 19.8135 11.6086 19.759 11.8458 19.6535C12.083 19.5479 12.2954 19.3938 12.4692 19.201L18.6666 12.5437C20.5674 10.5007 20.5674 7.18865 18.6666 5.14565C16.7658 3.10265 13.6824 3.10265 11.7807 5.14565Z" fill="#A80F21" stroke="#A80F21" stroke-width="0.9" stroke-linejoin="round"/>
</g>
</svg>
