<svg width="30" height="30" viewBox="0 0 30 30" fill="none" xmlns="http://www.w3.org/2000/svg">
<g id="SVG">
<path id="Vector" d="M15.818 6.14261L14.9 7.12901L13.982 6.14261C11.4464 3.41861 7.3364 3.41861 4.802 6.14261C2.2676 8.86661 2.2664 13.2826 4.802 16.0066L13.064 24.883C13.2958 25.1401 13.579 25.3457 13.8953 25.4864C14.2115 25.627 14.5538 25.6997 14.9 25.6997C15.2462 25.6997 15.5885 25.627 15.9047 25.4864C16.221 25.3457 16.5042 25.1401 16.736 24.883L24.9992 16.0066C27.5336 13.2826 27.5336 8.86661 24.9992 6.14261C22.4648 3.41861 18.3536 3.41861 15.818 6.14261Z" fill="#171717" fill-opacity="0.5" stroke="white" stroke-width="1.2" stroke-linejoin="round"/>
</g>
</svg>
