<svg width="33" height="32" viewBox="0 0 33 32" fill="none" xmlns="http://www.w3.org/2000/svg">
<g id="SVG">
<path id="Vector" d="M20.5539 5.04979C20.5066 5.019 20.4536 4.99787 20.398 4.98761C20.3425 4.97735 20.2854 4.97815 20.2302 4.98999C20.1759 5.00049 20.1243 5.02207 20.0787 5.05339C20.033 5.0847 19.9944 5.12507 19.965 5.17199L19.9559 5.18499C19.8259 5.36049 19.5659 5.40209 19.38 5.27989C19.2906 5.22227 19.1829 5.19994 19.0779 5.21723C18.9729 5.23453 18.8781 5.29022 18.8119 5.37349L18.2165 6.16649C18.1858 6.20701 18.1639 6.25353 18.1523 6.30303C18.1406 6.35253 18.1395 6.40393 18.1489 6.4539C18.1583 6.50387 18.1781 6.55131 18.207 6.59316C18.2359 6.63501 18.2732 6.67035 18.3166 6.69689C18.4061 6.75451 18.5137 6.77684 18.6187 6.75955C18.7237 6.74225 18.8185 6.68656 18.8847 6.60329L19.2851 6.07029C19.6621 6.16779 20.0703 6.09239 20.3784 5.86489L20.9803 6.25879C21.1649 6.37969 21.4197 6.33679 21.5484 6.16519C21.5791 6.12466 21.601 6.07815 21.6127 6.02865C21.6243 5.97915 21.6255 5.92775 21.616 5.87778C21.6066 5.82781 21.5868 5.78037 21.5579 5.73852C21.529 5.69667 21.4917 5.66133 21.4483 5.63479L20.5539 5.04979ZM25.0649 9.84679L24.6645 10.3811C24.6338 10.4216 24.6119 10.4681 24.6003 10.5176C24.5886 10.5671 24.5875 10.6185 24.5969 10.6685C24.6063 10.7185 24.6261 10.7659 24.655 10.8078C24.6839 10.8496 24.7212 10.885 24.7646 10.9115C24.8541 10.9691 24.9617 10.9914 25.0667 10.9741C25.1717 10.9569 25.2665 10.9012 25.3327 10.8179L25.9281 10.0249C25.9588 9.98436 25.9807 9.93785 25.9924 9.88835C26.004 9.83885 26.0052 9.78745 25.9957 9.73748C25.9863 9.68751 25.9665 9.64007 25.9376 9.59822C25.9087 9.55636 25.8714 9.52103 25.828 9.49449C25.7841 9.46742 25.7464 9.4315 25.7172 9.38902C25.688 9.34654 25.668 9.29843 25.6585 9.24778C25.6489 9.19713 25.6501 9.14504 25.6618 9.09485C25.6735 9.04465 25.6956 8.99746 25.7266 8.95629L25.7357 8.94329C25.772 8.90372 25.7991 8.8566 25.8151 8.80532C25.831 8.75404 25.8354 8.69987 25.828 8.64669C25.8205 8.59351 25.8014 8.54264 25.7719 8.49772C25.7425 8.4528 25.7035 8.41495 25.6577 8.38689L24.7633 7.80189C24.6739 7.74427 24.5662 7.72194 24.4612 7.73923C24.3562 7.75653 24.2614 7.81222 24.1952 7.89549C24.1645 7.93601 24.1426 7.98253 24.131 8.03203C24.1193 8.08153 24.1182 8.13293 24.1276 8.1829C24.137 8.23287 24.1568 8.28031 24.1857 8.32216C24.2146 8.36401 24.2519 8.39935 24.2953 8.42589L24.8972 8.81849C24.8375 8.9904 24.8216 9.17451 24.8511 9.3541C24.8807 9.53369 24.9533 9.70305 25.0649 9.84679ZM22.9004 18.4047C23.0896 18.4026 23.2719 18.4755 23.4074 18.6075C23.4843 18.6811 23.5859 18.7235 23.6924 18.7263C23.7988 18.7292 23.9025 18.6924 23.9833 18.6231C24.0219 18.5902 24.0531 18.5496 24.075 18.5039C24.097 18.4582 24.1091 18.4084 24.1107 18.3577C24.1123 18.3071 24.1033 18.2566 24.0843 18.2096C24.0653 18.1627 24.0366 18.1202 24.0002 18.0849C23.706 17.7986 23.3109 17.6398 22.9004 17.6429C22.0658 17.6429 21.3872 18.276 21.3872 19.0547C21.3872 19.8334 22.0658 20.4665 22.9004 20.4665C23.3034 20.4665 23.6843 20.3196 23.9703 20.0531C24.0078 20.019 24.0377 19.9774 24.0582 19.9311C24.0786 19.8847 24.0892 19.8346 24.0892 19.784C24.0892 19.7333 24.0786 19.6832 24.0582 19.6369C24.0377 19.5906 24.0078 19.549 23.9703 19.5149C23.8913 19.4431 23.7884 19.4033 23.6817 19.4033C23.575 19.4033 23.4721 19.4431 23.3931 19.5149C23.2588 19.639 23.082 19.7069 22.8991 19.7047C22.5156 19.7047 22.2036 19.4135 22.2036 19.0547C22.2036 18.6959 22.5156 18.4047 22.9004 18.4047Z" fill="white"/>
<path id="Vector_2" d="M26.5329 16.3719V13.3208C26.5329 12.286 25.6306 11.4436 24.5204 11.4436H22.3573C22.4834 10.4218 22.1271 9.5235 21.3731 9.0308C20.7348 8.6148 19.908 8.5394 19.0435 8.8202C18.2271 9.0867 17.4679 9.6457 16.9063 10.3945C16.6627 10.7156 16.4641 11.0686 16.3161 11.4436H13.6576L19.3685 3.8321L27.2908 9.01L26.0843 10.6194C26.0536 10.6598 26.0316 10.7063 26.0199 10.7557C26.0081 10.8052 26.0069 10.8565 26.0162 10.9065C26.0255 10.9565 26.0451 11.0039 26.0739 11.0458C26.1027 11.0877 26.1399 11.1231 26.1831 11.1498C26.369 11.2707 26.6225 11.2278 26.7525 11.0562L28.0681 9.3012C28.1152 9.239 28.1488 9.16765 28.1666 9.09172C28.1844 9.01579 28.1862 8.93696 28.1717 8.86031C28.1573 8.78367 28.127 8.71089 28.0827 8.64667C28.0384 8.58244 27.9812 8.52819 27.9147 8.4874L19.6805 3.1054C19.5436 3.01672 19.3785 2.98224 19.2174 3.00867C19.0564 3.03511 18.911 3.12057 18.8096 3.2484L16.9206 5.7665V4.2494C16.9206 3.927 16.6385 3.6644 16.294 3.6644H6.50765C6.16185 3.6644 5.88105 3.927 5.88105 4.2494V6.3333C5.88105 6.5439 6.06305 6.7142 6.28925 6.7142C6.51415 6.7142 6.69745 6.5452 6.69745 6.3333V4.4262H7.88045V11.4423H6.79365L6.69745 11.4449V7.8569C6.69745 7.6476 6.51545 7.476 6.28925 7.476C6.06435 7.476 5.88105 7.6476 5.88105 7.8569V11.6477C5.22845 11.9571 4.78125 12.5915 4.78125 13.3208V24.7868C4.78125 25.8229 5.68345 26.6666 6.79365 26.6666H9.83825C10.0644 26.6666 10.2464 26.4963 10.2464 26.2857C10.2464 26.0751 10.0644 25.9048 9.83825 25.9048H6.79365C6.13325 25.9048 5.59765 25.403 5.59765 24.7868V13.3221C5.59765 12.8346 5.93435 12.4186 6.40235 12.2678L6.43355 12.2574C6.55055 12.2233 6.67177 12.2058 6.79365 12.2054H24.5204C25.1808 12.2054 25.7164 12.7072 25.7164 13.3234V16.3199H22.7966C21.1807 16.3199 19.8651 17.5471 19.8651 19.0564C19.8651 20.5644 21.1807 21.7916 22.7966 21.7916H25.7177V24.7894C25.7177 25.4043 25.1808 25.9061 24.5217 25.9061H21.403C21.1782 25.9061 20.9949 26.0751 20.9949 26.287C20.9949 26.4989 21.1768 26.6679 21.403 26.6679H24.5204C25.6306 26.6679 26.5329 25.8255 26.5329 24.7894V21.7383C27.4558 21.5342 28.1448 20.7581 28.1448 19.8351V18.2751C28.1448 17.3521 27.4558 16.5747 26.5329 16.3706M17.5732 10.8313C18.504 9.5911 19.9978 9.0633 20.9039 9.6548C21.4251 9.9967 21.6552 10.6649 21.533 11.4423H17.1962C17.3003 11.2326 17.4259 11.0289 17.5732 10.8313ZM16.1042 6.8546L12.6618 11.4436H10.652V4.4262H16.1042V6.8546ZM8.69425 4.4262H9.83565V11.4423H8.69555L8.69425 4.4262ZM27.3297 19.8338C27.3297 20.4929 26.7551 21.0285 26.0492 21.0285H22.7966C21.6305 21.0285 20.6815 20.1432 20.6815 19.0551C20.6815 17.9657 21.6305 17.0804 22.7966 17.0804H26.0492C26.7551 17.0804 27.3297 17.6173 27.3297 18.2764V19.8338Z" fill="white"/>
<path id="Vector_3" d="M15.6034 19.7974C12.8864 19.7974 10.6738 21.8618 10.6738 24.3994C10.6738 26.937 12.8851 29.0001 15.6034 29.0001C18.3217 29.0001 20.533 26.9357 20.533 24.3981C20.533 21.8605 18.3217 19.7974 15.6034 19.7974ZM15.6034 28.2383C13.3349 28.2383 11.4902 26.5158 11.4902 24.3994C11.4902 22.2804 13.3362 20.5592 15.6034 20.5592C17.8706 20.5592 19.7166 22.2817 19.7166 24.3994C19.7166 26.5158 17.8706 28.2383 15.6034 28.2383Z" fill="white"/>
<path id="Vector_4" fill-rule="evenodd" clip-rule="evenodd" d="M18.1347 22.5677C18.1846 22.616 18.2142 22.6814 18.2176 22.7507C18.221 22.82 18.1979 22.888 18.1529 22.9408L15.5464 25.9698C15.4706 26.0605 15.3775 26.1353 15.2727 26.1899C15.1678 26.2445 15.0532 26.2778 14.9354 26.288C14.8176 26.2981 14.6989 26.2849 14.5863 26.249C14.4736 26.2132 14.3692 26.1554 14.2789 26.079L13.0907 25.0858C13.0381 25.0404 13.0048 24.9767 12.9976 24.9076C12.9903 24.8386 13.0097 24.7693 13.0517 24.714C13.0718 24.6873 13.0971 24.665 13.1261 24.6484C13.155 24.6318 13.1871 24.6212 13.2203 24.6173C13.2534 24.6134 13.2871 24.6163 13.3191 24.6258C13.3511 24.6352 13.3809 24.6511 13.4066 24.6724L14.5948 25.6669C14.6358 25.7016 14.6833 25.7278 14.7345 25.744C14.7856 25.7603 14.8395 25.7663 14.893 25.7617C14.9465 25.7571 14.9986 25.742 15.0462 25.7173C15.0939 25.6925 15.1362 25.6586 15.1707 25.6175L17.7772 22.5885C17.7988 22.5629 17.8254 22.542 17.8554 22.527C17.8854 22.5121 17.9181 22.5033 17.9515 22.5014C17.9849 22.4994 18.0184 22.5043 18.0499 22.5157C18.0814 22.5271 18.1103 22.5448 18.1347 22.5677Z" fill="white"/>
</g>
</svg>
