<svg width="32" height="32" viewBox="0 0 32 32" fill="none" xmlns="http://www.w3.org/2000/svg">
<g id="SVG">
<path id="Vector" d="M15.8692 3.86678C16.2895 3.86678 16.7081 3.88801 17.125 3.93048L17.2134 3.06858C16.0182 2.94551 14.8118 2.98706 13.628 3.19208L13.7762 4.04618C14.4674 3.92641 15.1677 3.86639 15.8692 3.86678ZM8.75689 6.16778L8.24859 5.46578C6.58201 6.67034 5.22529 8.25343 4.29007 10.0848C3.35485 11.9161 2.86786 13.9434 2.86919 15.9997C2.86375 17.9995 3.32443 19.9731 4.21469 21.7639L4.99079 21.3791C4.16041 19.7077 3.73089 17.8659 3.73629 15.9997C3.73457 14.0803 4.18886 12.1881 5.06173 10.4787C5.93461 8.76932 7.2011 7.29178 8.75689 6.16778ZM16.2878 28.1248L16.3177 28.9919C17.5365 28.9509 18.7434 28.7387 19.9031 28.3614L19.6353 27.5372C18.5524 27.8882 17.4253 28.0871 16.2878 28.1248ZM8.06919 15.5655H8.93629V25.5326H8.06919V15.5655ZM10.6692 15.5655H11.5363V25.5326H10.6692V15.5655ZM13.2692 15.5655H14.1363V25.5326H13.2692V15.5655Z" fill="white"/>
<path id="Vector_2" d="M28.6231 16.417L20.8126 12.66C20.502 12.5108 20.1448 12.4911 19.8196 12.6052C19.4944 12.7193 19.2278 12.9578 19.0784 13.2684L16.7358 18.1395V13.8326C16.7348 13.2581 16.5062 12.7075 16.1 12.3013C15.6938 11.8952 15.1432 11.6665 14.5687 11.6655H12.8358V4.73257C12.8358 4.27281 12.6532 3.83187 12.3281 3.50677C12.003 3.18166 11.5621 2.99902 11.1023 2.99902C10.6425 2.99902 10.2016 3.18166 9.87649 3.50677C9.55139 3.83187 9.36875 4.27281 9.36875 4.73257V11.6655H7.63585C7.06142 11.6665 6.5108 11.8952 6.10462 12.3013C5.69843 12.7075 5.46978 13.2581 5.46875 13.8326V25.0997C5.46964 25.5445 5.60716 25.9783 5.86269 26.3424C6.11822 26.7065 6.47943 26.9834 6.89745 27.1355C6.80473 27.3283 6.76103 27.541 6.77022 27.7547C6.77941 27.9685 6.84121 28.1766 6.95013 28.3608C7.05906 28.5449 7.21174 28.6993 7.39464 28.8103C7.57754 28.9213 7.785 28.9854 7.99863 28.997C8.21225 29.0086 8.42543 28.9672 8.61926 28.8767C8.81309 28.7861 8.98157 28.6491 9.10977 28.4779C9.23797 28.3066 9.32192 28.1063 9.35417 27.8948C9.38642 27.6834 9.36597 27.4672 9.29465 27.2655H12.9099C12.8386 27.4672 12.8182 27.6834 12.8504 27.8948C12.8827 28.1063 12.9666 28.3066 13.0948 28.4779C13.223 28.6491 13.3915 28.7861 13.5853 28.8767C13.7792 28.9672 13.9924 29.0086 14.206 28.997C14.4196 28.9854 14.6271 28.9213 14.81 28.8103C14.9929 28.6993 15.1455 28.5449 15.2545 28.3608C15.3634 28.1766 15.4252 27.9685 15.4344 27.7547C15.4436 27.541 15.3999 27.3283 15.3071 27.1355C15.6479 27.0115 15.9522 26.8041 16.1922 26.5323C16.4323 26.2605 16.6004 25.9329 16.6812 25.5794L22.8004 28.5226C22.8515 28.5479 22.9073 28.5627 22.9643 28.5661C23.0212 28.5696 23.0783 28.5617 23.1322 28.5428C23.1861 28.5239 23.2357 28.4944 23.278 28.4561C23.3204 28.4178 23.3546 28.3715 23.3788 28.3198L28.8258 16.9968C28.8508 16.9454 28.8653 16.8896 28.8686 16.8326C28.8719 16.7757 28.8639 16.7186 28.8451 16.6647C28.8262 16.6108 28.7969 16.5612 28.7588 16.5186C28.7207 16.4761 28.6746 16.4416 28.6231 16.417ZM20.251 13.3997C20.3155 13.398 20.3794 13.4123 20.4369 13.4413L27.8573 17.0111L27.4803 17.7911L20.0612 14.2226C19.9739 14.1791 19.9037 14.1075 19.8621 14.0193C19.8204 13.931 19.8097 13.8313 19.8316 13.7363C19.8536 13.6412 19.9069 13.5563 19.983 13.4952C20.059 13.4342 20.1535 13.4005 20.251 13.3997ZM10.2358 4.73257C10.2313 4.61597 10.2504 4.49965 10.2919 4.39058C10.3334 4.28152 10.3965 4.18196 10.4774 4.09786C10.5583 4.01376 10.6554 3.94686 10.7627 3.90116C10.8701 3.85546 10.9856 3.83191 11.1023 3.83191C11.219 3.83191 11.3345 3.85546 11.4419 3.90116C11.5492 3.94686 11.6463 4.01376 11.7272 4.09786C11.8081 4.18196 11.8712 4.28152 11.9127 4.39058C11.9542 4.49965 11.9733 4.61597 11.9688 4.73257V11.6655H10.2358V4.73257ZM8.50165 27.6997C8.50165 27.8147 8.45597 27.9249 8.37467 28.0062C8.29336 28.0875 8.18308 28.1332 8.0681 28.1332C7.95311 28.1332 7.84284 28.0875 7.76153 28.0062C7.68023 27.9249 7.63455 27.8147 7.63455 27.6997C7.63455 27.5847 7.68023 27.4744 7.76153 27.3931C7.84284 27.3118 7.95311 27.2661 8.0681 27.2661C8.18308 27.2661 8.29336 27.3118 8.37467 27.3931C8.45597 27.4744 8.50165 27.5847 8.50165 27.6997ZM14.1358 28.1326C14.0769 28.1358 14.0179 28.127 13.9625 28.1067C13.9071 28.0863 13.8564 28.0549 13.8136 28.0143C13.7707 27.9738 13.7366 27.9249 13.7133 27.8707C13.6899 27.8164 13.6779 27.758 13.6779 27.699C13.6779 27.64 13.6899 27.5816 13.7133 27.5274C13.7366 27.4732 13.7707 27.4243 13.8136 27.3837C13.8564 27.3431 13.9071 27.3117 13.9625 27.2914C14.0179 27.2711 14.0769 27.2622 14.1358 27.2655C14.2467 27.2715 14.3511 27.3199 14.4274 27.4005C14.5038 27.4812 14.5463 27.588 14.5463 27.699C14.5463 27.8101 14.5038 27.9169 14.4274 27.9975C14.3511 28.0782 14.2467 28.1265 14.1358 28.1326ZM14.5687 26.3997H7.63585C7.29107 26.3997 6.96041 26.2627 6.71661 26.0189C6.47281 25.7751 6.33585 25.4445 6.33585 25.0997V13.8326C6.33585 13.4878 6.47281 13.1571 6.71661 12.9133C6.96041 12.6695 7.29107 12.5326 7.63585 12.5326H9.36875V14.6997H10.2358V12.5326H11.9688V14.6997H12.8358V12.5326H14.5687C14.9135 12.5326 15.2442 12.6695 15.488 12.9133C15.7318 13.1571 15.8687 13.4878 15.8687 13.8326V19.9413L14.3828 23.0314C14.3087 23.1852 14.2657 23.3521 14.2561 23.5226C14.2465 23.693 14.2706 23.8637 14.3269 24.0249C14.3833 24.186 14.4709 24.3345 14.5846 24.4618C14.6984 24.5891 14.8361 24.6928 14.99 24.7669L15.8661 25.1868C15.8441 25.5158 15.6978 25.8241 15.4569 26.0493C15.216 26.2745 14.8985 26.3998 14.5687 26.3997ZM22.7847 27.5541L15.3656 23.9856C15.3143 23.961 15.2683 23.9265 15.2303 23.8841C15.1923 23.8416 15.1631 23.7921 15.1442 23.7384C15.1254 23.6847 15.1173 23.6277 15.1205 23.5709C15.1237 23.514 15.1381 23.4584 15.1628 23.4071L19.328 14.7491C19.432 14.8539 19.5517 14.9389 19.6868 15.0039L27.1059 18.5724L22.7847 27.5541Z" fill="white"/>
<path id="Vector_3" d="M22.8252 17.4755C22.4652 17.2942 22.0726 17.1864 21.6705 17.1585C21.2683 17.1306 20.8647 17.1831 20.483 17.3129C20.1014 17.4428 19.7495 17.6473 19.4478 17.9147C19.1461 18.1821 18.9007 18.5069 18.726 18.8702C18.5513 19.2335 18.4507 19.628 18.4301 20.0306C18.4095 20.4331 18.4694 20.8358 18.6062 21.215C18.743 21.5942 18.954 21.9423 19.2268 22.2391C19.4997 22.5358 19.8289 22.7752 20.1953 22.9433C20.918 23.2748 21.742 23.3094 22.49 23.0396C23.2379 22.7697 23.8501 22.2171 24.1947 21.5006C24.5394 20.784 24.589 19.9608 24.3329 19.208C24.0767 18.4553 23.5354 17.8332 22.8252 17.4755ZM23.6117 20.7385L22.8343 20.3654C23.0085 19.8857 23.0943 19.38 23.0865 18.8704L23.0839 18.7196C23.3344 18.9847 23.5141 19.3086 23.6063 19.6615C23.6985 20.0143 23.7004 20.3847 23.6117 20.7385ZM20.9181 21.59L20.8037 21.6784L20.8011 21.5354C20.7966 21.1601 20.8546 20.7866 20.9727 20.4304L21.6721 20.7684C21.468 21.0821 21.2132 21.3598 20.9181 21.59ZM21.3471 19.6504C21.5525 19.3358 21.8073 19.0576 22.1037 18.8275L22.2168 18.7391L22.2194 18.8834C22.2246 19.2591 22.1674 19.6309 22.0478 19.9871L21.3471 19.6504ZM21.5135 18.0423C21.5733 18.0423 21.6327 18.0453 21.6916 18.0514L21.572 18.1424C21.169 18.4539 20.8266 18.8369 20.5619 19.2721L19.7858 18.899C19.9885 18.6326 20.25 18.4166 20.5499 18.268C20.8499 18.1194 21.1801 18.0421 21.5148 18.0423M19.4101 19.6803L20.1875 20.0534C20.0126 20.5321 19.9271 21.0388 19.9353 21.5484L19.9379 21.6992C19.6872 21.434 19.5075 21.1098 19.4152 20.7567C19.323 20.4036 19.3212 20.033 19.4101 19.679M21.3302 22.3661L21.4498 22.2751C21.8528 21.9631 22.1947 21.5796 22.4599 21.1441L23.2373 21.5185C23.0162 21.8086 22.7256 22.0383 22.3923 22.1865C22.059 22.3346 21.6937 22.3964 21.3302 22.3661ZM17.2924 23.9495L17.6668 23.1682L21.572 25.0441L21.1963 25.8241L17.2924 23.9495ZM21.5915 8.9774C21.466 8.85181 21.3169 8.75219 21.1529 8.68422C20.9888 8.61625 20.813 8.58126 20.6354 8.58126C20.4578 8.58126 20.282 8.61625 20.1179 8.68422C19.9538 8.75219 19.8048 8.85181 19.6792 8.9774C19.6341 9.02256 19.5805 9.05839 19.5215 9.08283C19.4625 9.10727 19.3992 9.11986 19.3354 9.11986C19.2715 9.11986 19.2083 9.10727 19.1493 9.08283C19.0903 9.05839 19.0367 9.02256 18.9915 8.9774L18.8836 8.8682C18.3134 8.2994 17.5408 7.97998 16.7354 7.97998C15.9299 7.97998 15.1574 8.2994 14.5871 8.8682C14.4711 8.98446 14.3334 9.07669 14.1817 9.1396C14.03 9.20251 13.8673 9.23486 13.7031 9.2348V10.1019C13.9813 10.1026 14.2569 10.0481 14.514 9.9417C14.771 9.83526 15.0044 9.67895 15.2007 9.4818C15.4023 9.28015 15.6417 9.12019 15.9051 9.01106C16.1685 8.90192 16.4509 8.84575 16.736 8.84575C17.0212 8.84575 17.3035 8.90192 17.5669 9.01106C17.8304 9.12019 18.0697 9.28015 18.2713 9.4818L18.3792 9.5897C18.5048 9.71528 18.6538 9.81491 18.8179 9.88288C18.982 9.95085 19.1578 9.98583 19.3354 9.98583C19.513 9.98583 19.6888 9.95085 19.8529 9.88288C20.0169 9.81491 20.166 9.71528 20.2915 9.5897C20.3367 9.54453 20.3903 9.50871 20.4493 9.48426C20.5083 9.45982 20.5715 9.44724 20.6354 9.44724C20.6992 9.44724 20.7625 9.45982 20.8215 9.48426C20.8805 9.50871 20.9341 9.54453 20.9792 9.5897L21.7774 10.3879C23.3306 11.9505 25.4169 12.8685 27.6183 12.958C27.8047 13.6817 27.923 14.4166 27.9732 15.1628L28.839 15.103C28.7243 13.3858 28.2663 11.7092 27.4922 10.1721L26.7187 10.5621C26.964 11.0509 27.1755 11.5544 27.3531 12.0727C25.4779 11.924 23.7178 11.1092 22.391 9.7756L21.5915 8.9774Z" fill="white"/>
<path id="Vector_4" d="M17.8098 5.10316L25.0274 9.51406C25.2764 9.66586 25.5692 9.72956 25.8587 9.6949C26.1483 9.66024 26.4177 9.52924 26.6238 9.32296L28.3099 7.64076C28.3501 7.60056 28.382 7.55283 28.4038 7.5003C28.4256 7.44777 28.4368 7.39147 28.4368 7.33461C28.4368 7.27775 28.4256 7.22145 28.4038 7.16892C28.382 7.11639 28.3501 7.06866 28.3099 7.02846L27.4428 6.16136C27.3725 6.08991 27.2794 6.04532 27.1797 6.03535C27.08 6.02538 26.9799 6.05064 26.8968 6.10676L25.8373 6.81396L23.8587 5.49446L24.8831 4.12816C24.9469 4.04518 24.9781 3.94177 24.9709 3.83738C24.9637 3.73299 24.9186 3.63483 24.8441 3.56136L24.4099 3.12846C24.346 3.06338 24.2631 3.02036 24.1731 3.00563C24.0831 2.9909 23.9907 3.00524 23.9094 3.04656L21.5226 4.23996L20.7205 3.75896C20.3065 3.50965 19.8208 3.4062 19.3411 3.46511C18.8614 3.52401 18.4152 3.74188 18.0737 4.08396L17.7305 4.42846C17.6841 4.47478 17.6489 4.53104 17.6274 4.59299C17.6059 4.65493 17.5988 4.72094 17.6066 4.78605C17.6143 4.85115 17.6368 4.91364 17.6722 4.96879C17.7076 5.02395 17.7552 5.07034 17.8111 5.10446M20.2746 4.50256L21.2808 5.10576C21.3432 5.14346 21.414 5.16467 21.4868 5.1674C21.5596 5.17013 21.6319 5.15428 21.6968 5.12136L23.8678 4.03586L22.8889 5.33976C22.8531 5.38668 22.8272 5.4405 22.8131 5.49785C22.799 5.55521 22.7969 5.61486 22.8069 5.67308C22.8169 5.73129 22.8388 5.78681 22.8713 5.83616C22.9037 5.88551 22.946 5.92762 22.9955 5.95986L25.5955 7.69406C25.6665 7.74212 25.7503 7.76781 25.836 7.76781C25.9218 7.76781 26.0055 7.74212 26.0765 7.69406L27.0801 7.02456L27.3895 7.33266L26.0115 8.71066C25.9432 8.78032 25.8531 8.82459 25.7562 8.83617C25.6593 8.84775 25.5614 8.82595 25.4785 8.77436L18.7315 4.65076C18.9385 4.46373 19.2001 4.34822 19.4777 4.32129C19.7554 4.29437 20.0343 4.35747 20.2733 4.50126" fill="white"/>
</g>
</svg>
