<svg width="32" height="32" viewBox="0 0 32 32" fill="none" xmlns="http://www.w3.org/2000/svg">
<g id="SVG">
<path id="Vector" d="M18.9321 19.3837C19.2532 19.3837 19.5548 19.2576 19.7784 19.0275L21.7752 16.98C21.9783 16.7523 22.0857 16.455 22.075 16.15C22.0643 15.8451 21.9363 15.5561 21.7177 15.3432C21.4991 15.1303 21.2068 15.01 20.9017 15.0074C20.5966 15.0047 20.3023 15.1199 20.08 15.329L18.91 16.5289L18.7046 16.3287C18.4762 16.1279 18.1794 16.0226 17.8755 16.0345C17.5716 16.0464 17.284 16.1746 17.0719 16.3926C16.8599 16.6107 16.7398 16.9018 16.7364 17.2059C16.733 17.51 16.8466 17.8037 17.0536 18.0265L18.1066 19.0496C18.3276 19.2654 18.6214 19.3837 18.9308 19.3837M17.5762 16.8851C17.6539 16.8053 17.7601 16.7596 17.8714 16.7579C17.9827 16.7562 18.0902 16.7986 18.1703 16.876L18.6487 17.3414C18.8008 17.4883 19.0413 17.4844 19.1882 17.3336L20.626 15.8607C20.7056 15.7899 20.809 15.7518 20.9155 15.7542C21.022 15.7566 21.1236 15.7993 21.1999 15.8736C21.2762 15.9479 21.3215 16.0484 21.3267 16.1548C21.3319 16.2612 21.2966 16.3656 21.2279 16.447L19.2311 18.4945C19.1531 18.5737 19.0469 18.619 18.9357 18.6204C18.8244 18.6219 18.7171 18.5794 18.637 18.5023L17.584 17.4792C17.5045 17.4013 17.459 17.2951 17.4575 17.1837C17.4561 17.0724 17.4987 16.965 17.5762 16.8851Z" fill="white"/>
<path id="Vector_2" d="M15.9809 19.644C15.9175 19.5704 15.8284 19.5237 15.7318 19.5135C15.6352 19.5032 15.5383 19.5301 15.4608 19.5887C15.3833 19.6473 15.3311 19.7332 15.3147 19.829C15.2983 19.9247 15.3189 20.0231 15.3725 20.1042C15.5112 20.2888 15.6628 20.4639 15.8275 20.6294C16.288 21.092 16.8357 21.4588 17.4388 21.7084C18.042 21.9581 18.6886 22.0858 19.3414 22.0841C20.6687 22.0841 21.9154 21.5667 22.8553 20.6281C23.3176 20.1679 23.6842 19.6206 23.9338 19.0179C24.1835 18.4153 24.3114 17.7691 24.31 17.1168C24.31 15.7895 23.7926 14.5428 22.854 13.6042C21.9214 12.6744 20.6583 12.1523 19.3414 12.1523C18.0245 12.1523 16.7614 12.6744 15.8288 13.6042C15.182 14.2484 14.7259 15.0588 14.5107 15.9459C14.2955 16.833 14.3297 17.7624 14.6094 18.6313C14.6415 18.7262 14.7097 18.8047 14.7992 18.8499C14.8887 18.895 14.9923 18.9032 15.0877 18.8727C15.1832 18.8422 15.2629 18.7754 15.3096 18.6867C15.3563 18.598 15.3663 18.4946 15.3374 18.3986C15.1013 17.6632 15.0725 16.8769 15.2544 16.1262C15.4363 15.3755 15.8217 14.6895 16.3683 14.1437C17.1578 13.357 18.2269 12.9153 19.3414 12.9153C20.4559 12.9153 21.525 13.357 22.3145 14.1437C23.1088 14.9367 23.5469 15.9936 23.5469 17.1168C23.5469 18.24 23.1088 19.2956 22.3145 20.0899C21.5215 20.8829 20.4646 21.321 19.3414 21.321C18.6892 21.3235 18.0454 21.1732 17.4618 20.8819C16.8782 20.5907 16.371 20.1667 15.9809 19.644Z" fill="white"/>
<path id="Vector_3" d="M28.8654 24.0886L26.4578 21.681C26.3862 21.6096 26.2892 21.5696 26.1881 21.5696C26.087 21.5696 25.99 21.6096 25.9183 21.681L25.9027 21.694L24.9771 20.7684C25.5998 19.809 25.9703 18.6988 26.0431 17.5405C26.0441 17.4427 26.0075 17.3482 25.9409 17.2765C25.8742 17.2049 25.7827 17.1615 25.685 17.1553C25.5874 17.1491 25.4911 17.1807 25.416 17.2434C25.3409 17.3061 25.2927 17.3952 25.2813 17.4924C25.1867 19.002 24.5203 20.4187 23.4177 21.4542C22.3151 22.4896 20.8594 23.0658 19.3468 23.0655H19.3104C17.7421 23.0597 16.2397 22.4339 15.1309 21.3248C14.5768 20.7736 14.1374 20.118 13.8382 19.3959C13.539 18.6738 13.3858 17.8996 13.3876 17.118C13.3876 15.5281 14.0064 14.0331 15.1309 12.9086C16.2483 11.794 17.7621 11.1681 19.3403 11.1681C20.9185 11.1681 22.4323 11.794 23.5497 12.9086C24.4108 13.7654 24.9873 14.8665 25.2007 16.0624C25.225 16.1556 25.2835 16.2363 25.3647 16.2882C25.4458 16.3401 25.5436 16.3594 25.6384 16.3423C25.7332 16.3253 25.8181 16.273 25.876 16.196C25.9339 16.119 25.9607 16.023 25.9508 15.9272C25.7101 14.5785 25.0607 13.3364 24.0905 12.3691C23.6192 11.8982 23.0808 11.4995 22.4928 11.1861V8.1116C22.4921 8.01037 22.452 7.91341 22.381 7.8412L17.6516 3.1118C17.5794 3.04085 17.4825 3.00076 17.3812 3H4.53593C4.38558 2.99983 4.23668 3.02929 4.09774 3.08671C3.95879 3.14412 3.83252 3.22836 3.72615 3.33461C3.61979 3.44086 3.5354 3.56703 3.47783 3.70591C3.42026 3.84479 3.39062 3.99366 3.39063 4.144V7.3524C3.39631 7.44974 3.43898 7.54123 3.50991 7.60814C3.58084 7.67505 3.67467 7.71232 3.77217 7.71232C3.86968 7.71232 3.96351 7.67505 4.03444 7.60814C4.10537 7.54123 4.14804 7.44974 4.15372 7.3524V4.144C4.15372 3.9334 4.32533 3.7618 4.53593 3.7618H17.0003V7.3459C17.0003 7.9764 17.5138 8.4899 18.1443 8.4899H21.7297V10.839C20.989 10.5593 20.2049 10.4119 19.4131 10.4035L19.4027 10.4022H10.8812C10.7839 10.4079 10.6924 10.4506 10.6255 10.5215C10.5586 10.5924 10.5213 10.6862 10.5213 10.7838C10.5213 10.8813 10.5586 10.9751 10.6255 11.046C10.6924 11.1169 10.7839 11.1596 10.8812 11.1653H16.2242C15.6808 11.45 15.1673 11.8153 14.7032 12.2573H10.8812C10.7799 12.2573 10.6826 12.2976 10.611 12.3692C10.5393 12.4409 10.499 12.5381 10.499 12.6395C10.499 12.7409 10.5393 12.8381 10.611 12.9098C10.6826 12.9814 10.7799 13.0217 10.8812 13.0217H14.0142C13.3938 13.8236 12.9655 14.7571 12.7623 15.7504H10.8812C10.7839 15.7561 10.6924 15.7988 10.6255 15.8697C10.5586 15.9406 10.5213 16.0344 10.5213 16.132C10.5213 16.2295 10.5586 16.3233 10.6255 16.3942C10.6924 16.4651 10.7839 16.5078 10.8812 16.5135H12.6518C12.6179 16.8779 12.6149 17.2445 12.6427 17.6094H10.8812C10.8292 17.6064 10.7772 17.614 10.7283 17.6318C10.6793 17.6496 10.6346 17.6772 10.5967 17.7129C10.5588 17.7487 10.5286 17.7917 10.508 17.8396C10.4874 17.8874 10.4767 17.9389 10.4767 17.991C10.4767 18.043 10.4874 18.0945 10.508 18.1423C10.5286 18.1902 10.5588 18.2332 10.5967 18.269C10.6346 18.3047 10.6793 18.3323 10.7283 18.3501C10.7772 18.3679 10.8292 18.3755 10.8812 18.3725H12.7415C12.9365 19.4047 13.3707 20.3745 14.0155 21.2091H10.8825C10.7812 21.2091 10.6839 21.2494 10.6123 21.321C10.5406 21.3927 10.5003 21.4899 10.5003 21.5913C10.5003 21.6927 10.5406 21.7899 10.6123 21.8616C10.6839 21.9332 10.7812 21.9735 10.8825 21.9735H14.7045C15.1686 22.4155 15.6821 22.7795 16.2255 23.0642H10.8825C10.8305 23.0612 10.7785 23.0688 10.7296 23.0866C10.6806 23.1044 10.6359 23.132 10.598 23.1677C10.5601 23.2035 10.5299 23.2465 10.5093 23.2944C10.4887 23.3422 10.478 23.3937 10.478 23.4458C10.478 23.4978 10.4887 23.5493 10.5093 23.5971C10.5299 23.645 10.5601 23.688 10.598 23.7238C10.6359 23.7595 10.6806 23.7871 10.7296 23.8049C10.7785 23.8227 10.8305 23.8303 10.8825 23.8273H19.3416C20.1528 23.8273 20.9627 23.6817 21.731 23.3905V27.8534C21.731 27.9548 21.6908 28.052 21.6191 28.1237C21.5474 28.1953 21.4502 28.2356 21.3488 28.2356H4.53593C4.43456 28.2356 4.33735 28.1953 4.26567 28.1237C4.19399 28.052 4.15372 27.9548 4.15372 27.8534V8.8786C4.14804 8.78126 4.10537 8.68977 4.03444 8.62286C3.96351 8.55595 3.86968 8.51868 3.77217 8.51868C3.67467 8.51868 3.58084 8.55595 3.50991 8.62286C3.43898 8.68977 3.39631 8.78126 3.39063 8.8786V27.856C3.39063 28.4865 3.90413 29 4.53463 29H21.3475C21.9793 29 22.4928 28.4865 22.4928 27.856V23.046C22.6636 22.955 22.8308 22.8571 22.9946 22.7522L23.9202 23.6778C23.8819 23.7127 23.851 23.7551 23.8294 23.8022C23.8079 23.8494 23.7961 23.9005 23.7947 23.9523C23.7934 24.0042 23.8026 24.0557 23.8217 24.104C23.8408 24.1522 23.8694 24.196 23.9059 24.2329L26.3135 26.6405C26.9856 27.3399 28.1933 27.3399 28.8654 26.6405C29.5661 25.9684 29.5661 24.7594 28.8654 24.0886ZM18.1456 7.7268C18.0445 7.7268 17.9475 7.68671 17.8758 7.61532C17.8042 7.54392 17.7638 7.44704 17.7634 7.3459V4.3026L21.1902 7.7281L18.1456 7.7268ZM23.616 22.2933C23.9461 22.0225 24.2488 21.7199 24.5195 21.3898L25.3645 22.2348L24.4597 23.137L23.616 22.2933ZM28.3259 26.0984C28.13 26.2925 27.8653 26.4014 27.5895 26.4014C27.3137 26.4014 27.049 26.2925 26.853 26.0984L24.7158 23.9612L26.1874 22.4883L28.3259 24.6268C28.7289 25.0142 28.7289 25.711 28.3259 26.0984Z" fill="white"/>
<path id="Vector_4" d="M6.85475 13.4H8.52655C8.75262 13.3997 8.96934 13.3097 9.12919 13.1499C9.28905 12.99 9.37901 12.7733 9.37935 12.5472V10.8767C9.37901 10.6507 9.28905 10.4339 9.12919 10.2741C8.96934 10.1142 8.75262 10.0243 8.52655 10.0239H6.85475C6.62868 10.0243 6.41197 10.1142 6.25211 10.2741C6.09226 10.4339 6.0023 10.6507 6.00195 10.8767V12.5472C6.00195 13.0178 6.38415 13.4 6.85475 13.4ZM6.76375 10.878C6.76375 10.8539 6.77334 10.8307 6.79041 10.8137C6.80747 10.7966 6.83062 10.787 6.85475 10.787H8.52655C8.55069 10.787 8.57383 10.7966 8.5909 10.8137C8.60797 10.8307 8.61755 10.8539 8.61755 10.878V12.5472C8.61755 12.5714 8.60797 12.5945 8.5909 12.6116C8.57383 12.6286 8.55069 12.6382 8.52655 12.6382H6.85475C6.83062 12.6382 6.80747 12.6286 6.79041 12.6116C6.77334 12.5945 6.76375 12.5714 6.76375 12.5472V10.878ZM6.00195 17.898C6.00195 18.3673 6.38415 18.7508 6.85475 18.7508H8.52655C8.75262 18.7505 8.96934 18.6605 9.12919 18.5007C9.28905 18.3408 9.37901 18.1241 9.37935 17.898V16.2275C9.37901 16.0015 9.28905 15.7847 9.12919 15.6249C8.96934 15.465 8.75262 15.3751 8.52655 15.3747H6.85475C6.62868 15.3751 6.41197 15.465 6.25211 15.6249C6.09226 15.7847 6.0023 16.0015 6.00195 16.2275V17.898ZM6.76505 16.2275C6.76505 16.2034 6.77464 16.1802 6.79171 16.1632C6.80877 16.1461 6.83192 16.1365 6.85605 16.1365H8.52525C8.54939 16.1365 8.57253 16.1461 8.5896 16.1632C8.60667 16.1802 8.61625 16.2034 8.61625 16.2275V17.8967C8.61625 17.9209 8.60667 17.944 8.5896 17.9611C8.57253 17.9781 8.54939 17.9877 8.52525 17.9877H6.85475C6.83062 17.9877 6.80747 17.9781 6.79041 17.9611C6.77334 17.944 6.76375 17.9209 6.76375 17.8967L6.76505 16.2275ZM6.00195 23.3567C6.00195 23.8273 6.38415 24.2108 6.85475 24.2108H8.52655C8.75285 24.2105 8.96976 24.1203 9.12965 23.9602C9.28955 23.8001 9.37935 23.583 9.37935 23.3567V21.6875C9.37935 21.4612 9.28955 21.2442 9.12965 21.084C8.96976 20.9239 8.75285 20.8338 8.52655 20.8334H6.85475C6.62846 20.8338 6.41155 20.9239 6.25165 21.084C6.09176 21.2442 6.00195 21.4612 6.00195 21.6875V23.3567ZM6.76505 21.6875C6.76505 21.6634 6.77464 21.6402 6.79171 21.6232C6.80877 21.6061 6.83192 21.5965 6.85605 21.5965H8.52525C8.54939 21.5965 8.57253 21.6061 8.5896 21.6232C8.60667 21.6402 8.61625 21.6634 8.61625 21.6875V23.3567C8.61625 23.3809 8.60667 23.404 8.5896 23.4211C8.57253 23.4381 8.54939 23.4477 8.52525 23.4477H6.85475C6.83062 23.4477 6.80747 23.4381 6.79041 23.4211C6.77334 23.404 6.76375 23.3809 6.76375 23.3567L6.76505 21.6875Z" fill="white"/>
</g>
</svg>
