<svg width="17" height="18" viewBox="0 0 17 18" fill="none" xmlns="http://www.w3.org/2000/svg">
<g id="ico-checklist-green.svg">
<path id="Vector" fill-rule="evenodd" clip-rule="evenodd" d="M14.6121 4.48715C14.8721 4.75915 14.8721 5.19915 14.6121 5.47115L6.80708 13.6171L3.00208 9.64615C2.87656 9.51309 2.80664 9.33708 2.80664 9.15415C2.80664 8.97122 2.87656 8.79521 3.00208 8.66215C3.06258 8.59776 3.13563 8.54645 3.21672 8.51137C3.29781 8.4763 3.38523 8.4582 3.47358 8.4582C3.56193 8.4582 3.64935 8.4763 3.73044 8.51137C3.81153 8.54645 3.88458 8.59776 3.94508 8.66215L6.80708 11.6491L13.6691 4.48715C13.7296 4.42276 13.8026 4.37145 13.8837 4.33637C13.9648 4.3013 14.0522 4.2832 14.1406 4.2832C14.2289 4.2832 14.3163 4.3013 14.3974 4.33637C14.4785 4.37145 14.5516 4.42276 14.6121 4.48715Z" fill="#D80000"/>
</g>
</svg>
