<svg width="54" height="54" viewBox="0 0 54 54" fill="none" xmlns="http://www.w3.org/2000/svg">
<g id="Image [sc-fFubgz]" clip-path="url(#clip0_1643_27177)">
<path id="Vector" d="M26.1055 0.819106C26.6187 0.381912 27.3813 0.381913 27.8946 0.819107L32.4645 4.71188C32.7812 4.98164 33.2066 5.09355 33.6182 5.01539L39.5583 3.88758C40.2254 3.76091 40.8859 4.13529 41.1077 4.76586L43.083 10.3806C43.2199 10.7696 43.5313 11.0753 43.9276 11.2097L49.6462 13.1491C50.2885 13.3669 50.6698 14.0154 50.5407 14.6703L49.392 20.5024C49.3124 20.9065 49.4264 21.3242 49.7012 21.6352L53.666 26.1221C54.1113 26.6259 54.1113 27.3747 53.666 27.8786L49.7012 32.3654C49.4264 32.6764 49.3124 33.0941 49.392 33.4982L50.5407 39.3303C50.6698 39.9852 50.2885 40.6337 49.6462 40.8515L43.9276 42.7909C43.5313 42.9253 43.2199 43.231 43.083 43.6201L41.1077 49.2347C40.8859 49.8654 40.2254 50.2397 39.5583 50.113L33.6182 48.9852C33.2066 48.907 32.7812 49.0189 32.4645 49.2887L27.8946 53.1815C27.3813 53.6187 26.6187 53.6187 26.1055 53.1815L21.5355 49.2887C21.2188 49.0189 20.7934 48.907 20.3818 48.9852L14.4417 50.113C13.7746 50.2397 13.1141 49.8654 12.8923 49.2347L10.917 43.6201C10.7801 43.231 10.4687 42.9253 10.0725 42.7909L4.35381 40.8515C3.71156 40.6337 3.33025 39.9852 3.45926 39.3303L4.60796 33.4982C4.68757 33.0941 4.57359 32.6764 4.29883 32.3654L0.333967 27.8786C-0.111323 27.3747 -0.111322 26.6259 0.333968 26.1221L4.29883 21.6352C4.57359 21.3242 4.68757 20.9065 4.60796 20.5024L3.45926 14.6703C3.33025 14.0154 3.71156 13.3669 4.35381 13.1491L10.0725 11.2097C10.4687 11.0753 10.7801 10.7696 10.917 10.3806L12.8923 4.76586C13.1141 4.13529 13.7746 3.76091 14.4417 3.88758L20.3818 5.01539C20.7934 5.09355 21.2188 4.98164 21.5355 4.71188L26.1055 0.819106Z" fill="#FEE9E5"/>
</g>
<defs>
<clipPath id="clip0_1643_27177">
<rect width="54" height="54" fill="white"/>
</clipPath>
</defs>
</svg>
