<svg width="14" height="19" viewBox="0 0 14 19" fill="none" xmlns="http://www.w3.org/2000/svg">
<g id="Icon" clip-path="url(#clip0_1696_33612)">
<path id="Vector" d="M7 1.48047C6.22656 1.48047 5.5 1.63281 4.82031 1.9375C4.14062 2.24219 3.5459 2.65234 3.03613 3.16797C2.52637 3.68359 2.11914 4.29297 1.81445 4.99609C1.52148 5.69922 1.375 6.44336 1.375 7.22852C1.375 7.61523 1.4541 8.0459 1.6123 8.52051C1.77051 8.99512 1.99023 9.50195 2.27148 10.041C2.55273 10.5684 2.86914 11.1016 3.2207 11.6406C3.57227 12.1797 3.93555 12.707 4.31055 13.2227C4.67383 13.7266 5.03418 14.2012 5.3916 14.6465C5.74902 15.0918 6.06836 15.4785 6.34961 15.8066C6.47852 15.959 6.59863 16.0996 6.70996 16.2285C6.82129 16.3574 6.91797 16.4629 7 16.5449C7.08203 16.4629 7.17871 16.3574 7.29004 16.2285C7.40137 16.0996 7.52148 15.959 7.65039 15.8066C7.93164 15.4785 8.25098 15.0918 8.6084 14.6465C8.96582 14.2012 9.33203 13.7266 9.70703 13.2227C10.0703 12.7188 10.4307 12.1943 10.7881 11.6494C11.1455 11.1045 11.459 10.5684 11.7285 10.041C12.0098 9.50195 12.2295 8.99512 12.3877 8.52051C12.5459 8.0459 12.625 7.61523 12.625 7.22852C12.625 6.44336 12.4785 5.69922 12.1855 4.99609C11.8926 4.29297 11.4912 3.68359 10.9814 3.16797C10.4717 2.65234 9.87695 2.24219 9.19727 1.9375C8.50586 1.63281 7.77344 1.48047 7 1.48047ZM7 17.1074C6.85938 17.2363 6.77734 17.3125 6.75391 17.3359C6.73047 17.3594 6.71875 17.3711 6.71875 17.3711V17.3535L6.70117 17.3359L6.66602 17.2832C6.64258 17.2598 6.61328 17.2305 6.57812 17.1953C6.54297 17.1602 6.50781 17.1191 6.47266 17.0723C6.37891 16.9785 6.27637 16.8643 6.16504 16.7295C6.05371 16.5947 5.92773 16.4453 5.78711 16.2812C5.49414 15.9531 5.16895 15.5635 4.81152 15.1123C4.4541 14.6611 4.08203 14.1777 3.69531 13.6621C3.32031 13.1465 2.95117 12.6074 2.58789 12.0449C2.22461 11.4824 1.89648 10.9258 1.60352 10.375C1.32227 9.82422 1.09082 9.28223 0.90918 8.74902C0.727539 8.21582 0.636719 7.70898 0.636719 7.22852C0.636719 6.33789 0.800781 5.5 1.12891 4.71484C1.45703 3.91797 1.91113 3.22656 2.49121 2.64062C3.07129 2.05469 3.74805 1.5918 4.52148 1.25195C5.29492 0.912109 6.12109 0.742188 7 0.742188C7.89062 0.742188 8.72266 0.912109 9.49609 1.25195C10.2695 1.5918 10.9434 2.05469 11.5176 2.64062C12.0918 3.22656 12.543 3.91797 12.8711 4.71484C13.2109 5.5 13.3809 6.33789 13.3809 7.22852C13.3809 7.70898 13.2871 8.21582 13.0996 8.74902C12.9121 9.28223 12.6777 9.82422 12.3965 10.375C12.1152 10.9375 11.79 11.4971 11.4209 12.0537C11.0518 12.6104 10.6797 13.1465 10.3047 13.6621C9.92969 14.1777 9.56055 14.6611 9.19727 15.1123C8.83398 15.5635 8.51172 15.9531 8.23047 16.2812C8.08984 16.4453 7.96094 16.5947 7.84375 16.7295C7.72656 16.8643 7.62695 16.9785 7.54492 17.0723C7.49805 17.1191 7.45996 17.1602 7.43066 17.1953C7.40137 17.2305 7.375 17.2598 7.35156 17.2832L7.29883 17.3359L7.28125 17.3535V17.3711C7.28125 17.3711 7.26953 17.3594 7.24609 17.3359C7.22266 17.3125 7.14062 17.2363 7 17.1074ZM7 17.1074L7.28125 17.3711C7.24609 17.4062 7.20508 17.4326 7.1582 17.4502C7.11133 17.4678 7.05859 17.4766 7 17.4766C6.95312 17.4766 6.90332 17.4678 6.85059 17.4502C6.79785 17.4326 6.75391 17.4062 6.71875 17.3711L7 17.1074ZM3.41406 7.21094C3.41406 6.71875 3.50781 6.25 3.69531 5.80469C3.87109 5.37109 4.12012 4.99023 4.44238 4.66211C4.76465 4.33398 5.14258 4.07031 5.57617 3.87109C6.00977 3.68359 6.47266 3.58984 6.96484 3.58984C7.45703 3.58984 7.91992 3.68359 8.35352 3.87109C8.78711 4.07031 9.16504 4.33398 9.4873 4.66211C9.80957 4.99023 10.0586 5.37109 10.2344 5.80469C10.4219 6.25 10.5156 6.71875 10.5156 7.21094C10.5156 7.71484 10.4219 8.18359 10.2344 8.61719C10.0586 9.0625 9.80957 9.44922 9.4873 9.77734C9.16504 10.1055 8.78711 10.3633 8.35352 10.5508C7.91992 10.7383 7.45703 10.832 6.96484 10.832C6.47266 10.832 6.00977 10.7383 5.57617 10.5508C5.14258 10.3633 4.76465 10.1055 4.44238 9.77734C4.12012 9.44922 3.87109 9.0625 3.69531 8.61719C3.50781 8.18359 3.41406 7.71484 3.41406 7.21094ZM6.96484 4.3457C6.19141 4.3457 5.53223 4.62402 4.9873 5.18066C4.44238 5.7373 4.16992 6.41406 4.16992 7.21094C4.16992 8.00781 4.44238 8.68457 4.9873 9.24121C5.53223 9.79785 6.19141 10.0762 6.96484 10.0762C7.73828 10.0762 8.40039 9.79785 8.95117 9.24121C9.50195 8.68457 9.77734 8.00781 9.77734 7.21094C9.77734 6.41406 9.50195 5.7373 8.95117 5.18066C8.40039 4.62402 7.73828 4.3457 6.96484 4.3457Z" fill="#828282"/>
</g>
<defs>
<clipPath id="clip0_1696_33612">
<rect width="14" height="18" fill="white" transform="matrix(1 0 0 -1 0 18.1094)"/>
</clipPath>
</defs>
</svg>
