<svg width="24" height="24" viewBox="0 0 24 24" fill="none" xmlns="http://www.w3.org/2000/svg">
<g id="SVG">
<path id="Vector" d="M12.0451 3.56279C11.9923 3.56078 11.9397 3.56925 11.8902 3.58771C11.8407 3.60616 11.7954 3.63424 11.7568 3.67031C11.7182 3.70639 11.6871 3.74974 11.6654 3.79788C11.6437 3.84602 11.6317 3.89799 11.6301 3.95079C11.631 4.00358 11.6424 4.05566 11.6635 4.10405C11.6847 4.15243 11.7152 4.19615 11.7533 4.23268C11.7914 4.26921 11.8364 4.29784 11.8856 4.31691C11.9348 4.33598 11.9873 4.34512 12.0401 4.34379C12.0928 4.34566 12.1454 4.33709 12.1948 4.31857C12.2441 4.30005 12.2894 4.27196 12.3278 4.2359C12.3663 4.19984 12.3973 4.15653 12.419 4.10845C12.4406 4.06038 12.4526 4.0085 12.4541 3.95579C12.4532 3.90309 12.4419 3.85108 12.4208 3.80277C12.3998 3.75445 12.3693 3.71078 12.3313 3.67426C12.2933 3.63774 12.2485 3.60909 12.1994 3.58996C12.1502 3.57083 12.0978 3.56159 12.0451 3.56279ZM12.0271 5.90579C10.4371 5.89579 9.13513 7.11179 9.12313 8.61979C9.11113 10.1278 10.3941 11.3638 11.9831 11.3748H12.0061C13.5851 11.3748 14.8761 10.1618 14.8871 8.66079C14.8991 7.15379 13.6161 5.91779 12.0271 5.90579ZM12.0051 10.5938H11.9901C10.8541 10.5858 9.93813 9.70279 9.94613 8.62579C9.95513 7.55379 10.8761 6.68779 12.0051 6.68779H12.0201C13.1561 6.69579 14.0721 7.57779 14.0641 8.65479C14.0551 9.72679 13.1341 10.5938 12.0051 10.5938ZM13.8021 3.85879C13.7006 3.8237 13.5896 3.82882 13.4918 3.87308C13.3939 3.91735 13.3168 3.9974 13.2761 4.09679C13.2587 4.14584 13.2514 4.19791 13.2546 4.24987C13.2579 4.30182 13.2716 4.35259 13.2949 4.39911C13.3183 4.44563 13.3508 4.48695 13.3905 4.52058C13.4303 4.5542 13.4764 4.57945 13.5261 4.59479C15.3401 5.20479 16.5491 6.84379 16.5341 8.67279C16.5349 8.72558 16.5461 8.77769 16.5671 8.82612C16.5882 8.87455 16.6186 8.91834 16.6566 8.95497C16.6946 8.99159 16.7395 9.02033 16.7887 9.03952C16.8379 9.05871 16.8903 9.06798 16.9431 9.06679H16.9461C17.1721 9.06679 17.3561 8.89379 17.3581 8.67879C17.3751 6.51679 15.9461 4.57879 13.8021 3.85879Z" fill="black"/>
<path id="Vector_2" d="M14.5321 16.705C17.2721 13.361 18.9821 11.617 19.0061 8.691C19.0351 5.009 15.8861 2 12.0061 2C8.16908 2 5.03608 4.946 5.00608 8.59C4.98308 11.596 6.72608 13.338 9.48408 16.704C6.74008 17.094 5.00608 18.07 5.00608 19.266C5.00608 20.066 5.78608 20.785 7.20308 21.289C8.49308 21.747 10.1981 22 12.0061 22C13.8141 22 15.5201 21.747 16.8091 21.289C18.2261 20.785 19.0061 20.066 19.0061 19.266C19.0061 18.071 17.2731 17.094 14.5321 16.705ZM5.83008 8.597C5.85508 5.38 8.62108 2.78 12.0051 2.78C15.4301 2.78 18.2081 5.436 18.1821 8.684C18.1601 11.462 16.3451 13.174 13.4481 16.758C12.9582 17.3627 12.4774 17.9747 12.0061 18.594C11.5364 17.9752 11.057 17.3637 10.5681 16.76C7.55008 13.026 5.80608 11.444 5.82808 8.598M12.0061 21.219C8.47108 21.219 5.83008 20.188 5.83008 19.266C5.83008 18.582 7.40908 17.718 10.0641 17.419C10.6511 18.149 11.1651 18.813 11.6701 19.491C11.7095 19.5426 11.7604 19.5844 11.8187 19.613C11.877 19.6416 11.9411 19.6564 12.0061 19.656C12.071 19.6565 12.135 19.6419 12.1933 19.6135C12.2516 19.585 12.3025 19.5434 12.3421 19.492C12.8421 18.822 13.3701 18.142 13.9521 17.419C16.6051 17.719 18.1821 18.582 18.1821 19.266C18.1821 20.188 15.5411 21.219 12.0061 21.219Z" fill="black"/>
</g>
</svg>
