<svg width="22" height="23" viewBox="0 0 22 23" fill="none" xmlns="http://www.w3.org/2000/svg">
<g id="SVG">
<path id="Vector" d="M10.8359 3.76686C10.7884 3.76506 10.741 3.77268 10.6965 3.78929C10.652 3.8059 10.6111 3.83117 10.5764 3.86363C10.5417 3.8961 10.5137 3.93512 10.4942 3.97845C10.4746 4.02177 10.4638 4.06854 10.4624 4.11606C10.4632 4.16357 10.4735 4.21045 10.4925 4.25399C10.5115 4.29754 10.539 4.33688 10.5733 4.36976C10.6076 4.40264 10.648 4.42841 10.6923 4.44557C10.7367 4.46273 10.7839 4.47096 10.8314 4.46976C10.8789 4.47144 10.9262 4.46373 10.9706 4.44706C11.015 4.4304 11.0557 4.40511 11.0904 4.37266C11.125 4.34021 11.1529 4.30123 11.1724 4.25796C11.1919 4.2147 11.2026 4.168 11.204 4.12056C11.2032 4.07313 11.193 4.02632 11.1741 3.98284C11.1551 3.93936 11.1277 3.90005 11.0935 3.86718C11.0593 3.83431 11.0189 3.80853 10.9747 3.79131C10.9305 3.7741 10.8834 3.76579 10.8359 3.76686ZM10.8197 5.87556C9.38873 5.86656 8.21693 6.96096 8.20613 8.31816C8.19533 9.67536 9.35003 10.7878 10.7801 10.7977H10.8008C12.2219 10.7977 13.3838 9.70596 13.3937 8.35506C13.4045 6.99876 12.2498 5.88636 10.8197 5.87556ZM10.7999 10.0948H10.7864C9.76403 10.0876 8.93963 9.29286 8.94683 8.32356C8.95493 7.35876 9.78383 6.57936 10.7999 6.57936H10.8134C11.8358 6.58656 12.6602 7.38036 12.653 8.34966C12.6449 9.31446 11.816 10.0948 10.7999 10.0948ZM12.4172 4.03326C12.3259 4.00168 12.2259 4.00629 12.1379 4.04612C12.0498 4.08596 11.9804 4.15801 11.9438 4.24746C11.9282 4.29161 11.9216 4.33847 11.9245 4.38523C11.9274 4.43199 11.9397 4.47768 11.9607 4.51955C11.9818 4.56142 12.011 4.59861 12.0468 4.62887C12.0825 4.65914 12.1241 4.68185 12.1688 4.69566C13.8014 5.24466 14.8895 6.71976 14.876 8.36586C14.8767 8.41337 14.8868 8.46027 14.9057 8.50386C14.9247 8.54744 14.952 8.58686 14.9862 8.61982C15.0204 8.65279 15.0609 8.67865 15.1051 8.69592C15.1494 8.71319 15.1966 8.72154 15.2441 8.72046H15.2468C15.4502 8.72046 15.6158 8.56476 15.6176 8.37126C15.6329 6.42546 14.3468 4.68126 12.4172 4.03326Z" fill="black"/>
<path id="Vector_2" d="M13.0736 15.5944C15.5396 12.5848 17.0786 11.0152 17.1002 8.38176C17.1263 5.06796 14.2922 2.35986 10.8002 2.35986C7.3469 2.35986 4.5272 5.01126 4.5002 8.29086C4.4795 10.9963 6.0482 12.5641 8.5304 15.5935C6.0608 15.9445 4.5002 16.8229 4.5002 17.8993C4.5002 18.6193 5.2022 19.2664 6.4775 19.72C7.6385 20.1322 9.173 20.3599 10.8002 20.3599C12.4274 20.3599 13.9628 20.1322 15.1229 19.72C16.3982 19.2664 17.1002 18.6193 17.1002 17.8993C17.1002 16.8238 15.5405 15.9445 13.0736 15.5944ZM5.2418 8.29716C5.2643 5.40186 7.7537 3.06186 10.7993 3.06186C13.8818 3.06186 16.382 5.45226 16.3586 8.37546C16.3388 10.8757 14.7053 12.4165 12.098 15.6421C11.6571 16.1863 11.2244 16.7371 10.8002 17.2945C10.3775 16.7375 9.94604 16.1872 9.506 15.6439C6.7898 12.2833 5.2202 10.8595 5.24 8.29806M10.8002 19.657C7.6187 19.657 5.2418 18.7291 5.2418 17.8993C5.2418 17.2837 6.6629 16.5061 9.0524 16.237C9.5807 16.894 10.0433 17.4916 10.4978 18.1018C10.5333 18.1482 10.5791 18.1858 10.6315 18.2116C10.684 18.2373 10.7417 18.2506 10.8002 18.2503C10.8586 18.2507 10.9163 18.2376 10.9687 18.212C11.0212 18.1864 11.067 18.1489 11.1026 18.1027C11.5526 17.4997 12.0278 16.8877 12.5516 16.237C14.9393 16.507 16.3586 17.2837 16.3586 17.8993C16.3586 18.7291 13.9817 19.657 10.8002 19.657Z" fill="black"/>
</g>
</svg>
