<svg width="17" height="17" viewBox="0 0 17 17" fill="none" xmlns="http://www.w3.org/2000/svg">
<g id="icon/plane">
<path id="Vector" d="M12.3667 13.3L11.1667 7.83333L13.5 5.5C14.5 4.5 14.8333 3.16667 14.5 2.5C13.8333 2.16667 12.5 2.5 11.5 3.5L9.16667 5.83333L3.7 4.63333C3.36667 4.56667 3.1 4.7 2.96667 4.96667L2.76667 5.3C2.63333 5.63333 2.7 5.96667 2.96667 6.16667L6.5 8.5L5.16667 10.5H3.16667L2.5 11.1667L4.5 12.5L5.83333 14.5L6.5 13.8333V11.8333L8.5 10.5L10.8333 14.0333C11.0333 14.3 11.3667 14.3667 11.7 14.2333L12.0333 14.1C12.3 13.9 12.4333 13.6333 12.3667 13.3Z" stroke="#202D60" stroke-width="1.33" stroke-linecap="round" stroke-linejoin="round"/>
</g>
</svg>
