<svg width="96" height="49" viewBox="0 0 96 49" fill="none" xmlns="http://www.w3.org/2000/svg">
<path id="Vector" fill-rule="evenodd" clip-rule="evenodd" d="M50.5573 17.9617C52.4884 19.7545 51.9341 19.5477 56.4183 18.2377C60.3513 16.9962 58.4878 16.5826 62.0041 18.5821C65.1783 20.4448 70.3513 22.3075 72.7667 23.7551C71.868 25.7562 64.1436 32.3083 62.2808 34.9982C62.972 35.3426 63.5232 35.6194 64.2812 35.9646C65.4543 36.5157 65.1783 36.5157 66.5574 35.6886C69.5925 33.9635 79.3189 28.4461 81.25 27.6173C83.8007 28.7213 90.562 32.1707 92.9051 32.0323C94.0099 31.9639 95.8042 31.6879 95.4559 30.308C94.5611 26.9285 88.4909 25.0651 84.5587 23.3407C82.9743 22.6519 83.3879 22.7211 83.0427 20.9952C82.6268 19.1333 80.0061 5.6139 79.3857 4.92511C79.1097 4.71831 76.9718 3.82194 76.559 3.61437C76.3514 4.85669 76.2139 6.23583 76.1447 7.54579L75.4558 15.2019C75.4558 16.4434 75.2483 17.8918 75.0407 19.0641C73.248 18.1678 71.4544 17.409 69.5917 16.5126C60.3505 12.0976 62.0033 15.0643 59.8677 10.0981C58.6238 7.339 58.6238 5.68309 55.9347 6.09823C56.4183 11.6156 54.9031 15.0651 50.5573 17.9617ZM52.5576 11.1336C53.5908 11.4788 53.1772 13.064 52.0056 12.7887L50.4181 12.2376C49.4541 11.9608 49.7285 10.3057 50.9701 10.6501L52.5576 11.1336ZM-127.122 48.3108C-128.017 49.0004 -129.053 47.6205 -128.155 46.9993L-127.466 46.3797C-126.501 45.6202 -125.535 47.0685 -126.363 47.6904L-127.122 48.3108ZM-122.362 44.5162C-123.26 45.2066 -124.293 43.8266 -123.468 43.1378L-122.087 42.1031C-121.191 41.4127 -120.155 42.7227 -121.053 43.413L-122.362 44.5162ZM-116.982 40.3096C-117.809 40.9992 -118.913 39.6892 -118.016 38.9988L-116.637 37.9641C-115.741 37.2753 -114.636 38.586 -115.602 39.344L-116.982 40.3096ZM-111.463 36.3774C-112.428 36.9993 -113.328 35.551 -112.428 34.9298L-111.051 33.9635C-110.014 33.3438 -109.119 34.7922 -110.084 35.4134L-111.463 36.3774ZM-105.808 32.5151C-106.773 33.1363 -107.67 31.6887 -106.773 31.0668L-105.327 30.1704C-104.36 29.55 -103.464 30.9984 -104.36 31.618L-105.808 32.5151ZM-100.082 28.8597C-100.98 29.48 -101.945 28.1009 -100.98 27.4113L-99.4615 26.515C-98.6343 25.963 -97.6011 27.3421 -98.6343 28.0325L-100.082 28.8597ZM-94.2201 25.411C-95.2564 25.9622 -95.9444 24.4447 -95.0488 23.9627L-93.5298 23.0655C-92.4966 22.5835 -91.7363 24.1003 -92.7034 24.5831L-94.2201 25.411ZM-88.2207 22.1684C-89.254 22.6519 -90.0143 21.202 -88.9787 20.6508L-87.4627 19.8921C-86.4264 19.3409 -85.7384 20.9268 -86.7024 21.4112L-88.2207 22.1684ZM-82.0791 19.1341C-83.1154 19.6169 -83.8742 18.0993 -82.8402 17.6173L-81.3211 16.8578C-80.3563 16.375 -79.5291 17.8925 -80.5623 18.3745L-82.0791 19.1341ZM-75.9429 16.3066C-77.0476 16.7202 -77.5988 15.1335 -76.5633 14.7191L-75.0473 14.0295C-73.9418 13.6167 -73.3214 15.2718 -74.3569 15.6162L-75.9429 16.3066ZM-69.5983 13.7543C-70.6315 14.1679 -71.3203 12.582 -70.2179 12.0984L-68.6304 11.5472C-67.598 11.1336 -66.9768 12.7196 -68.0108 13.1332L-69.5983 13.7543ZM-63.2506 11.4088C-64.4245 11.754 -64.7689 10.0297 -63.8018 9.75446L-62.1475 9.20171C-60.9736 8.85731 -60.6299 10.5117 -61.5963 10.8568L-63.2506 11.4088ZM-56.7685 9.27012C-57.8716 9.61452 -58.2844 7.96017 -57.2505 7.68418L-55.5938 7.2014C-54.4914 6.85545 -54.0094 8.51136 -55.1125 8.78734L-56.7685 9.27012ZM-50.2148 7.47817C-51.1819 7.75337 -51.8015 6.16743 -50.6276 5.82148L-48.9748 5.40866C-47.7309 5.13345 -47.5249 6.85701 -48.5604 7.06458L-50.2148 7.47817ZM-43.595 5.96141C-44.6974 6.16743 -44.9718 4.44232 -43.9386 4.23552L-42.2128 3.89113C-41.1104 3.68434 -40.8328 5.33947 -41.9376 5.54548L-43.595 5.96141ZM-36.903 4.65067C-37.9362 4.85746 -38.3529 3.20078 -37.1782 2.99476C-36.627 2.85638 -36.0758 2.78797 -35.4531 2.64958C-34.4883 2.51198 -34.007 4.16712 -35.1779 4.37391C-35.8006 4.44233 -36.3518 4.58148 -36.903 4.65067ZM-30.1425 3.61514C-31.3179 3.75274 -31.4548 2.09761 -30.35 1.96078L-28.6964 1.75243C-27.5225 1.61483 -27.3834 3.33993 -28.4889 3.40912L-30.1425 3.61514ZM-23.3843 2.92478C-24.4867 3.06316 -24.6935 1.33962 -23.5227 1.20124L-21.7976 1.06363C-20.7644 0.994441 -20.4876 2.64959 -21.7284 2.78719L-23.3843 2.92478ZM-16.6246 2.51198C-17.7985 2.51198 -17.7293 0.787649 -16.6938 0.787649L-14.9679 0.717684C-13.7971 0.717684 -13.7971 2.3736 -14.8995 2.44357L-16.6246 2.51198ZM-9.79493 2.30518C-10.8997 2.30518 -10.9696 0.649269 -9.79493 0.580078C-9.24374 0.580078 -8.62334 0.580078 -8.07215 0.580078C-7.03584 0.580078 -6.89902 2.30518 -8.07215 2.30518C-8.69254 2.30518 -9.24374 2.30518 -9.79493 2.30518ZM-2.96836 2.44278C-4.20991 2.37359 -4.00233 0.648487 -2.89993 0.716901L-1.24326 0.786866C-0.0709 0.856057 -0.210052 2.57961 -1.31244 2.5112L-2.96836 2.44278ZM3.79211 2.78719C2.68661 2.71878 2.75581 0.994439 3.92972 1.13204L5.65638 1.26965C6.75877 1.33884 6.62038 2.99398 5.51721 2.92401L3.79211 2.78719ZM10.5503 3.47754C9.51706 3.33994 9.58472 1.61483 10.7579 1.75243C11.3106 1.82162 11.9302 1.89082 12.4814 1.96078C13.5177 2.0292 13.4485 3.75352 12.2738 3.61514C11.7234 3.54672 11.1722 3.47754 10.5503 3.47754ZM17.3099 4.30472C16.1384 4.09792 16.552 2.44279 17.5852 2.64958L19.3103 2.92478C20.4126 3.13158 20.069 4.78828 19.035 4.58148L17.3099 4.30472ZM24.0712 5.47707C22.9657 5.27028 23.2425 3.61515 24.3464 3.82272L26.0684 4.09792C27.1055 4.30471 26.8295 6.02983 25.7248 5.82148L24.0712 5.47707ZM30.691 6.85701C29.657 6.65021 29.9322 4.92587 31.1046 5.20186L32.7605 5.54627C33.9313 5.89222 33.3808 7.47816 32.3469 7.20295L30.691 6.85701ZM37.3139 8.44216C36.2084 8.09854 36.6935 6.5126 37.7274 6.78781L39.4518 7.20218C40.555 7.54658 40.073 9.13253 38.9675 8.85732L37.3139 8.44216ZM43.8652 10.2365C42.8312 9.96126 43.2448 8.30457 44.3495 8.58211L46.0039 9.06411C47.0394 9.34009 46.6927 11.0644 45.5219 10.7192L43.8652 10.2365Z" fill="#D32F44"/>
</svg>
