<svg width="21" height="21" viewBox="0 0 21 21" fill="none" xmlns="http://www.w3.org/2000/svg">
<g id="Icon" clip-path="url(#clip0_1696_33623)">
<path id="Vector" d="M19.8787 1.8291C19.9438 1.92025 19.9731 2.0179 19.9666 2.12207C19.96 2.22624 19.9177 2.31087 19.8396 2.37598L7.61304 14.0947C7.56095 14.1468 7.49259 14.1794 7.40796 14.1924C7.32332 14.2054 7.24845 14.1989 7.18335 14.1729L1.61694 12.0244C1.53882 11.9984 1.47697 11.9528 1.4314 11.8877C1.38582 11.8226 1.36304 11.7445 1.36304 11.6533C1.35002 11.5752 1.36304 11.5003 1.4021 11.4287C1.44116 11.3571 1.49976 11.3018 1.57788 11.2627L19.3513 1.71191C19.4425 1.65983 19.5401 1.64681 19.6443 1.67285C19.7485 1.69889 19.8266 1.75098 19.8787 1.8291ZM2.76929 11.5752L7.22241 13.2939L17.0466 3.89941L2.76929 11.5752ZM19.6833 1.69238C19.7615 1.71842 19.8266 1.76725 19.8787 1.83887C19.9307 1.91048 19.9568 1.99186 19.9568 2.08301L19.8982 18.2354C19.8982 18.3005 19.8819 18.3623 19.8494 18.4209C19.8168 18.4795 19.7745 18.5283 19.7224 18.5674C19.6573 18.6064 19.5922 18.6325 19.5271 18.6455C19.462 18.6585 19.3969 18.652 19.3318 18.626L10.2302 15.3643C10.1651 15.3382 10.1098 15.3024 10.0642 15.2568C10.0186 15.2113 9.98283 15.1559 9.95679 15.0908C9.94377 15.0257 9.94377 14.9639 9.95679 14.9053C9.96981 14.8467 9.98934 14.7848 10.0154 14.7197L19.2146 1.84863C19.2667 1.77051 19.335 1.71517 19.4197 1.68262C19.5043 1.65006 19.5922 1.65332 19.6833 1.69238ZM11.031 14.7588L19.0583 17.6299L19.1169 3.3916L11.031 14.7588ZM7.12476 13.4111C7.22892 13.359 7.33634 13.3493 7.44702 13.3818C7.5577 13.4144 7.63908 13.4827 7.69116 13.5869L10.1326 18.0205L9.95679 14.9932C9.94377 14.876 9.97632 14.7751 10.0544 14.6904C10.1326 14.6058 10.2302 14.5635 10.3474 14.5635C10.4516 14.5505 10.5492 14.583 10.6404 14.6611C10.7315 14.7393 10.7771 14.8369 10.7771 14.9541L11.0701 19.8369C11.0831 19.9281 11.0603 20.016 11.0017 20.1006C10.9431 20.1852 10.8682 20.2406 10.7771 20.2666C10.686 20.2926 10.5948 20.2861 10.5037 20.2471C10.4125 20.208 10.3409 20.1429 10.2888 20.0518L6.96851 13.9775C6.9034 13.8864 6.88713 13.7855 6.91968 13.6748C6.95223 13.5641 7.02059 13.4762 7.12476 13.4111Z" fill="#828282"/>
</g>
<defs>
<clipPath id="clip0_1696_33623">
<rect width="20" height="20" fill="white" transform="matrix(1 0 0 -1 0.659912 20.9697)"/>
</clipPath>
</defs>
</svg>
