<svg width="28" height="26" viewBox="0 0 28 26" fill="none" xmlns="http://www.w3.org/2000/svg">
<g id="Icon" clip-path="url(#clip0_1534_9798)">
<path id="Vector" d="M0.793945 11.9977H11.9015V0.890135H0.793945V11.9977ZM3.56821 3.6644H9.12728V9.22347H3.56821V3.6644ZM0.793945 25.8901H11.9015V14.7825H0.793945V25.8901ZM3.56821 17.5568H9.12728V23.1159H3.56821V17.5568ZM14.6864 0.890135V11.9977H25.7939V0.890135H14.6864ZM23.0197 9.22347H17.4606V3.6644H23.0197V9.22347ZM14.6969 14.7825H17.4712V17.5568H14.6969V14.7825ZM17.4712 17.5568H20.256V20.3311H17.4712V17.5568ZM14.6969 20.3311H17.4712V23.1159H14.6969V20.3311ZM20.256 20.3311H23.0302V23.1159H20.256V20.3311ZM23.0302 23.1159H25.8045V25.8901H23.0302V23.1159ZM17.4712 23.1159H20.256V25.8901H17.4712V23.1159ZM20.256 14.7825H23.0302V17.5568H20.256V14.7825ZM23.0302 17.5568H25.8045V20.3311H23.0302V17.5568Z" fill="#171717"/>
</g>
<defs>
<clipPath id="clip0_1534_9798">
<rect width="26.39" height="25" fill="white" transform="matrix(1 0 0 -1 0.790039 25.8901)"/>
</clipPath>
</defs>
</svg>
