<svg width="16" height="16" viewBox="0 0 16 16" fill="none" xmlns="http://www.w3.org/2000/svg">
<path d="M1.33334 12C1.33334 11.6464 1.47382 11.3073 1.72387 11.0572C1.97392 10.8072 2.31305 10.6667 2.66668 10.6667H13.3333C13.687 10.6667 14.0261 10.8072 14.2762 11.0572C14.5262 11.3073 14.6667 11.6464 14.6667 12V13.3334H1.33334V12Z" stroke="#18181B" stroke-width="1.33" stroke-linecap="round" stroke-linejoin="round"/>
<path d="M13.3333 10.6666C13.3333 9.25216 12.7714 7.8956 11.7712 6.89541C10.771 5.89522 9.41448 5.33331 7.99999 5.33331C6.5855 5.33331 5.22895 5.89522 4.22875 6.89541C3.22856 7.8956 2.66666 9.25216 2.66666 10.6666" stroke="#18181B" stroke-width="1.33" stroke-linecap="round" stroke-linejoin="round"/>
<path d="M8 2.66669V5.33335" stroke="#18181B" stroke-width="1.33" stroke-linecap="round" stroke-linejoin="round"/>
<path d="M6.66666 2.66669H9.33332" stroke="#18181B" stroke-width="1.33" stroke-linecap="round" stroke-linejoin="round"/>
</svg>
