<svg width="16" height="16" viewBox="0 0 16 16" fill="none" xmlns="http://www.w3.org/2000/svg">
<g clip-path="url(#clip0_459_6603)">
<path d="M14.6667 12H4.00001C3.64639 12 3.30725 11.8595 3.0572 11.6095C2.80715 11.3594 2.66668 11.0203 2.66668 10.6666V4.66665C2.66668 4.31302 2.5262 3.97389 2.27615 3.72384C2.0261 3.47379 1.68697 3.33331 1.33334 3.33331" stroke="#18181B" stroke-width="1.33" stroke-linecap="round" stroke-linejoin="round"/>
<path d="M11.3333 9.33331V2.66665C11.3333 2.31302 11.1929 1.97389 10.9428 1.72384C10.6928 1.47379 10.3536 1.33331 10 1.33331H9.33333C8.97971 1.33331 8.64057 1.47379 8.39052 1.72384C8.14048 1.97389 8 2.31302 8 2.66665V9.33331" stroke="#18181B" stroke-width="1.33" stroke-linecap="round" stroke-linejoin="round"/>
<path d="M13.3333 4H6.00001C5.63182 4 5.33334 4.29848 5.33334 4.66667V8.66667C5.33334 9.03486 5.63182 9.33333 6.00001 9.33333H13.3333C13.7015 9.33333 14 9.03486 14 8.66667V4.66667C14 4.29848 13.7015 4 13.3333 4Z" stroke="#18181B" stroke-width="1.33" stroke-linecap="round" stroke-linejoin="round"/>
<path d="M12 14.6667C12.7364 14.6667 13.3333 14.0697 13.3333 13.3333C13.3333 12.597 12.7364 12 12 12C11.2636 12 10.6667 12.597 10.6667 13.3333C10.6667 14.0697 11.2636 14.6667 12 14.6667Z" stroke="#18181B" stroke-width="1.33" stroke-linecap="round" stroke-linejoin="round"/>
<path d="M5.99999 14.6667C6.73637 14.6667 7.33332 14.0697 7.33332 13.3333C7.33332 12.597 6.73637 12 5.99999 12C5.26361 12 4.66666 12.597 4.66666 13.3333C4.66666 14.0697 5.26361 14.6667 5.99999 14.6667Z" stroke="#18181B" stroke-width="1.33" stroke-linecap="round" stroke-linejoin="round"/>
</g>
<defs>
<clipPath id="clip0_459_6603">
<rect width="16" height="16" fill="white"/>
</clipPath>
</defs>
</svg>
