<svg width="20" height="21" viewBox="0 0 20 21" fill="none" xmlns="http://www.w3.org/2000/svg">
<g id="SVG">
<path id="Vector" d="M13.75 8.37988C13.75 9.37444 13.3549 10.3283 12.6517 11.0315C11.9484 11.7348 10.9946 12.1299 10 12.1299C9.00544 12.1299 8.05161 11.7348 7.34835 11.0315C6.64509 10.3283 6.25 9.37444 6.25 8.37988C6.25 7.38532 6.64509 6.43149 7.34835 5.72823C8.05161 5.02497 9.00544 4.62988 10 4.62988C10.9946 4.62988 11.9484 5.02497 12.6517 5.72823C13.3549 6.43149 13.75 7.38532 13.75 8.37988Z" fill="white"/>
<path id="Vector_2" fill-rule="evenodd" clip-rule="evenodd" d="M0 10.8799C0 8.22772 1.05357 5.68418 2.92893 3.80882C4.8043 1.93345 7.34784 0.879883 10 0.879883C12.6522 0.879883 15.1957 1.93345 17.0711 3.80882C18.9464 5.68418 20 8.22772 20 10.8799C20 13.532 18.9464 16.0756 17.0711 17.951C15.1957 19.8263 12.6522 20.8799 10 20.8799C7.34784 20.8799 4.8043 19.8263 2.92893 17.951C1.05357 16.0756 0 13.532 0 10.8799ZM10 2.12988C8.35222 2.12997 6.73796 2.59534 5.343 3.47242C3.94805 4.3495 2.8291 5.60265 2.11496 7.08763C1.40081 8.5726 1.12048 10.2291 1.30625 11.8663C1.49201 13.5036 2.13632 15.0551 3.165 16.3424C4.0525 14.9124 6.00625 13.3799 10 13.3799C13.9937 13.3799 15.9463 14.9111 16.835 16.3424C17.8637 15.0551 18.508 13.5036 18.6938 11.8663C18.8795 10.2291 18.5992 8.5726 17.885 7.08763C17.1709 5.60265 16.052 4.3495 14.657 3.47242C13.262 2.59534 11.6478 2.12997 10 2.12988Z" fill="white"/>
</g>
</svg>
