<svg width="16" height="16" viewBox="0 0 16 16" fill="none" xmlns="http://www.w3.org/2000/svg">
<path d="M9.33334 10.6667H6.00001M12.6667 10.6667H14.6667V8.56666C14.6671 8.40801 14.611 8.25439 14.5084 8.13342C14.4057 8.01244 14.2633 7.93204 14.1067 7.90666L10.6667 7.33333L8.86668 4.93333C8.80458 4.85053 8.72406 4.78333 8.63149 4.73704C8.53892 4.69075 8.43684 4.66666 8.33334 4.66666H3.49334C3.24486 4.66493 3.00083 4.73267 2.7888 4.86225C2.57676 4.99183 2.40516 5.17808 2.29334 5.39999L1.76001 6.48666C1.48011 7.04306 1.33401 7.65715 1.33334 8.27999V10.6667H2.66668" stroke="#18181B" stroke-width="1.33" stroke-linecap="round" stroke-linejoin="round"/>
<path d="M4.33332 12.6666C5.2538 12.6666 5.99999 11.9205 5.99999 11C5.99999 10.0795 5.2538 9.33331 4.33332 9.33331C3.41285 9.33331 2.66666 10.0795 2.66666 11C2.66666 11.9205 3.41285 12.6666 4.33332 12.6666Z" stroke="#18181B" stroke-width="1.33" stroke-linecap="round" stroke-linejoin="round"/>
<path d="M11 12.6666C11.9205 12.6666 12.6667 11.9205 12.6667 11C12.6667 10.0795 11.9205 9.33331 11 9.33331C10.0795 9.33331 9.33334 10.0795 9.33334 11C9.33334 11.9205 10.0795 12.6666 11 12.6666Z" stroke="#18181B" stroke-width="1.33" stroke-linecap="round" stroke-linejoin="round"/>
</svg>
