<svg width="24" height="25" viewBox="0 0 24 25" fill="none" xmlns="http://www.w3.org/2000/svg">
<g id="SVG">
<path id="Vector" d="M15.2247 14.2537C15.5907 14.2537 15.9417 14.1083 16.2005 13.8495C16.4593 13.5907 16.6047 13.2397 16.6047 12.8737C16.6047 12.5077 16.4593 12.1566 16.2005 11.8978C15.9417 11.639 15.5907 11.4937 15.2247 11.4937C14.8587 11.4937 14.5077 11.639 14.2489 11.8978C13.9901 12.1566 13.8447 12.5077 13.8447 12.8737C13.8447 13.2397 13.9901 13.5907 14.2489 13.8495C14.5077 14.1083 14.8587 14.2537 15.2247 14.2537ZM15.2247 12.2437C15.3918 12.2437 15.5521 12.31 15.6702 12.4282C15.7884 12.5463 15.8547 12.7066 15.8547 12.8737C15.8547 13.0407 15.7884 13.201 15.6702 13.3191C15.5521 13.4373 15.3918 13.5037 15.2247 13.5037C15.0576 13.5037 14.8974 13.4373 14.7792 13.3191C14.6611 13.201 14.5947 13.0407 14.5947 12.8737C14.5947 12.7066 14.6611 12.5463 14.7792 12.4282C14.8974 12.31 15.0576 12.2437 15.2247 12.2437ZM16.4057 16.5897C16.4057 16.7709 16.4414 16.9503 16.5108 17.1178C16.5801 17.2852 16.6818 17.4373 16.8099 17.5655C16.9381 17.6936 17.0902 17.7953 17.2576 17.8646C17.4251 17.934 17.6045 17.9697 17.7857 17.9697C17.9669 17.9697 18.1464 17.934 18.3138 17.8646C18.4813 17.7953 18.6334 17.6936 18.7615 17.5655C18.8897 17.4373 18.9913 17.2852 19.0607 17.1178C19.13 16.9503 19.1657 16.7709 19.1657 16.5897C19.1657 16.2237 19.0203 15.8726 18.7615 15.6138C18.5027 15.355 18.1517 15.2097 17.7857 15.2097C17.4197 15.2097 17.0687 15.355 16.8099 15.6138C16.5511 15.8726 16.4057 16.2237 16.4057 16.5897ZM18.4157 16.5897C18.4191 16.6744 18.4053 16.759 18.3752 16.8383C18.3451 16.9177 18.2993 16.9901 18.2405 17.0513C18.1817 17.1124 18.1112 17.1611 18.0331 17.1944C17.955 17.2276 17.8711 17.2447 17.7862 17.2447C17.7014 17.2447 17.6174 17.2276 17.5393 17.1944C17.4613 17.1611 17.3908 17.1124 17.332 17.0513C17.2732 16.9901 17.2274 16.9177 17.1972 16.8383C17.1671 16.759 17.1533 16.6744 17.1567 16.5897C17.1632 16.427 17.2324 16.2732 17.3497 16.1605C17.4671 16.0477 17.6235 15.9847 17.7862 15.9847C17.949 15.9847 18.1054 16.0477 18.2227 16.1605C18.3401 16.2732 18.4092 16.427 18.4157 16.5897ZM18.1437 11.7247L14.1457 17.3117L14.7557 17.7487L18.7537 12.1607L18.1437 11.7247Z" fill="#171717"/>
<path id="Vector_2" d="M19.1249 1.43994C18.9737 2.32151 18.5933 3.14782 18.0219 3.83594C17.7459 3.54819 17.3838 3.35789 16.9903 3.29369C16.5968 3.22948 16.193 3.29485 15.8399 3.47994L12.5659 3.53994C11.6917 3.55165 10.857 3.90565 10.2409 4.52594L1.81888 12.9519C1.64472 13.1261 1.50656 13.3328 1.4123 13.5603C1.31805 13.7878 1.26953 14.0317 1.26953 14.2779C1.26953 14.5242 1.31805 14.7681 1.4123 14.9956C1.50656 15.2231 1.64472 15.4298 1.81888 15.6039L4.12488 17.9139C4.25488 18.3879 4.56788 18.7929 4.99488 19.0389L11.1639 22.6009C11.4179 22.7519 11.7039 22.8409 11.9999 22.8599C12.3229 23.1059 12.7189 23.2379 13.1249 23.2349H20.2499C20.7472 23.2349 21.2241 23.0374 21.5757 22.6858C21.9273 22.3341 22.1249 21.8572 22.1249 21.3599V9.44594C22.1228 8.57457 21.7842 7.73769 21.1799 7.10994L18.5549 4.38694C19.2543 3.57736 19.7117 2.58728 19.8749 1.52994L19.1249 1.43994ZM2.34688 13.4849L10.7739 5.05494C11.2574 4.58187 11.9045 4.31326 12.5809 4.30494L13.4509 4.28594L12.2619 4.62694C11.4229 4.86994 10.7109 5.42694 10.2749 6.18394L4.31588 16.4849C4.24819 16.604 4.1929 16.7296 4.15088 16.8599L2.34688 15.0709C2.13742 14.8602 2.01986 14.5751 2.01986 14.2779C2.01986 13.9808 2.13742 13.6957 2.34688 13.4849ZM5.37688 18.3979C5.24876 18.3241 5.13645 18.2257 5.04639 18.1084C4.95632 17.9911 4.89027 17.8572 4.852 17.7144C4.81373 17.5715 4.80401 17.4225 4.82338 17.2759C4.84275 17.1293 4.89083 16.988 4.96488 16.8599L10.9239 6.54394C11.2631 5.95562 11.8167 5.52132 12.4689 5.33194L14.4489 4.76594L12.1989 7.10194C11.5908 7.73089 11.2503 8.57111 11.2489 9.44594V21.3599C11.2509 21.5193 11.2735 21.6756 11.3169 21.8289L5.37688 18.3979ZM21.3749 9.44594V21.3599C21.3749 21.6583 21.2564 21.9445 21.0454 22.1554C20.8344 22.3664 20.5483 22.4849 20.2499 22.4849H13.1249C12.8265 22.4849 12.5404 22.3664 12.3294 22.1554C12.1184 21.9445 11.9999 21.6583 11.9999 21.3599V9.44594C12.0043 8.76437 12.2732 8.11115 12.7499 7.62394L15.8919 4.36494C16.1057 4.1583 16.3915 4.04281 16.6889 4.04281C16.9863 4.04281 17.272 4.1583 17.4859 4.36494C17.3905 4.43494 17.2919 4.49994 17.1899 4.55994C17.0649 4.45292 16.9082 4.38998 16.7439 4.38081C16.5796 4.37164 16.4168 4.41676 16.2807 4.50921C16.1446 4.60165 16.0427 4.7363 15.9906 4.89239C15.9386 5.04849 15.9393 5.21737 15.9927 5.37302C16.0461 5.52866 16.1492 5.66242 16.2861 5.75369C16.423 5.84496 16.5861 5.88868 16.7503 5.87809C16.9145 5.86751 17.0707 5.80322 17.1948 5.69513C17.3188 5.58704 17.4039 5.44115 17.4369 5.27994C17.641 5.17195 17.8354 5.04648 18.0179 4.90494L20.6429 7.63894C21.1099 8.12494 21.3729 8.77194 21.3749 9.44594Z" fill="#171717"/>
</g>
</svg>
