<svg width="22" height="21" viewBox="0 0 22 21" fill="none" xmlns="http://www.w3.org/2000/svg">
<g id="Icon_of_Zalo 1" clip-path="url(#clip0_1361_32526)">
<path id="Vector" fill-rule="evenodd" clip-rule="evenodd" d="M9.96063 0.0698242H11.8158C14.3636 0.0698242 15.8525 0.444042 17.1742 1.15267C18.4959 1.86129 19.5389 2.89635 20.2396 4.21807C20.9482 5.53977 21.3224 7.02867 21.3224 9.57652V11.4237C21.3224 13.9716 20.9482 15.4605 20.2396 16.7822C19.531 18.1039 18.4959 19.1469 17.1742 19.8476C15.8525 20.5562 14.3636 20.9304 11.8158 20.9304H9.96857C7.42072 20.9304 5.93182 20.5562 4.61012 19.8476C3.28844 19.139 2.24541 18.1039 1.54475 16.7822C0.836127 15.4605 0.461914 13.9716 0.461914 11.4237V9.57652C0.461914 7.02867 0.836127 5.53977 1.54475 4.21807C2.25337 2.89635 3.28844 1.85333 4.61012 1.15267C5.92388 0.444042 7.42072 0.0698242 9.96063 0.0698242Z" fill="#0068FF"/>
<path id="Vector_2" opacity="0.12" fill-rule="evenodd" clip-rule="evenodd" d="M21.3227 11.1189V11.4237C21.3227 13.9716 20.9485 15.4605 20.2399 16.7822C19.5313 18.1039 18.4962 19.1469 17.1745 19.8476C15.8528 20.5562 14.3639 20.9304 11.816 20.9304H9.96887C7.88408 20.9304 6.50828 20.6799 5.35295 20.2006L3.44824 18.2392L21.3227 11.1189Z" fill="#001A33"/>
<path id="Vector_3" fill-rule="evenodd" clip-rule="evenodd" d="M3.6601 18.3075C4.63572 18.4153 5.85548 18.1371 6.72156 17.7166C10.4824 19.7954 16.3612 19.6961 19.9197 17.4187C20.0577 17.2117 20.1866 16.9964 20.3063 16.7732C21.0175 15.4467 21.3931 13.9524 21.3931 11.3953V9.54135C21.3931 6.98418 21.0175 5.48986 20.3063 4.16335C19.6031 2.83683 18.5563 1.79799 17.2298 1.08678C15.9032 0.37558 14.4089 0 11.8518 0H9.98988C7.81197 0 6.39816 0.274157 5.21028 0.797551C5.14535 0.855695 5.08163 0.914836 5.01926 0.974967C1.5342 4.33453 1.26928 11.6169 4.22449 15.5728C4.22779 15.5787 4.23144 15.5846 4.23545 15.5905C4.69095 16.2618 4.25143 17.4365 3.56421 18.1237C3.45233 18.2276 3.49228 18.2915 3.6601 18.3075Z" fill="white"/>
<path id="Vector_4" d="M9.02898 7.13989H4.94448V8.01572H7.77893L4.98425 11.4792C4.89668 11.6066 4.83301 11.726 4.83301 11.9967V12.2197H8.68659C8.87769 12.2197 9.03696 12.0604 9.03696 11.8693V11.3996H6.05916L8.68659 8.10329C8.72641 8.05553 8.79806 7.96796 8.82994 7.92815L8.84586 7.90425C8.99714 7.68131 9.02898 7.49021 9.02898 7.25934V7.13989Z" fill="#0068FF"/>
<path id="Vector_5" d="M14.2282 12.2197H14.8094V7.13989H13.9336V11.9251C13.9336 12.0843 14.061 12.2197 14.2282 12.2197Z" fill="#0068FF"/>
<path id="Vector_6" d="M11.2346 8.27075C10.1359 8.27075 9.24414 9.1625 9.24414 10.2613C9.24414 11.36 10.1359 12.2518 11.2346 12.2518C12.3334 12.2518 13.2252 11.36 13.2252 10.2613C13.2331 9.1625 12.3414 8.27075 11.2346 8.27075ZM11.2346 11.4317C10.5897 11.4317 10.0642 10.9062 10.0642 10.2613C10.0642 9.61635 10.5897 9.09084 11.2346 9.09084C11.8796 9.09084 12.4051 9.61635 12.4051 10.2613C12.4051 10.9062 11.8875 11.4317 11.2346 11.4317Z" fill="#0068FF"/>
<path id="Vector_7" d="M17.397 8.23877C16.2903 8.23877 15.3906 9.13849 15.3906 10.2452C15.3906 11.3519 16.2903 12.2517 17.397 12.2517C18.5037 12.2517 19.4035 11.3519 19.4035 10.2452C19.4035 9.13849 18.5037 8.23877 17.397 8.23877ZM17.397 11.4316C16.7442 11.4316 16.2187 10.9061 16.2187 10.2532C16.2187 9.60028 16.7442 9.07478 17.397 9.07478C18.0499 9.07478 18.5754 9.60028 18.5754 10.2532C18.5754 10.9061 18.0499 11.4316 17.397 11.4316Z" fill="#0068FF"/>
<path id="Vector_8" d="M12.7644 12.2195H13.2342V8.38184H12.4141V11.8772C12.4141 12.0603 12.5733 12.2195 12.7644 12.2195Z" fill="#0068FF"/>
</g>
<defs>
<clipPath id="clip0_1361_32526">
<rect width="21" height="21" fill="white" transform="translate(0.392578)"/>
</clipPath>
</defs>
</svg>
