<svg width="239" height="48" viewBox="0 0 239 48" fill="none" xmlns="http://www.w3.org/2000/svg">
<g clip-path="url(#clip0_229_1908)">
<g clip-path="url(#clip1_229_1908)">
<g clip-path="url(#clip2_229_1908)">
<mask id="mask0_229_1908" style="mask-type:luminance" maskUnits="userSpaceOnUse" x="8" y="8" width="54" height="32">
<path d="M61.8 8.00158H8V39.9984H61.8V8.00158Z" fill="white"/>
</mask>
<g mask="url(#mask0_229_1908)">
<path d="M61.8 17.1533C61.5542 17.2167 50.5323 22.5195 41.8464 24.9971L43.1238 26.9284L48.5754 24.4187C48.5754 24.4187 45.2245 29.8129 41.9016 32.0952C43.1549 32.0765 47.9694 28.0218 49.2156 25.4975" fill="#FFC100"/>
<path d="M8 8.00158C8 8.00158 9.60415 9.03889 12.344 10.1749C12.6782 10.313 13.0259 10.4147 13.3808 10.4801C15.1057 10.7958 20.9352 11.9577 25.6675 14.049C27.7089 14.9513 29.5212 16.3001 30.988 17.9791C33.3562 20.6903 37.3057 25.8945 40.8305 33.7496L33.6925 24.3286C33.5176 24.0971 33.3458 23.8624 33.1824 23.6226C32.4932 22.6102 29.338 18.49 22.9537 17.3696C22.1896 17.2356 21.4089 17.2409 20.6417 17.1318C19.1905 16.9252 13.714 15.8962 8 8.00158Z" fill="white"/>
<path d="M38.1113 34.2851C38.1113 34.2851 36.7258 31.8626 35.1436 31.4411C35.1436 31.4411 30.4675 29.9604 30.1823 29.9043C30.1823 29.9032 32.8347 34.1999 38.1113 34.2851Z" fill="#FFC100"/>
<path d="M35.7442 30.502C35.7442 30.502 33.4697 26.495 31.497 25.9208C31.4273 25.9011 31.191 25.8211 31.1212 25.8004C30.1948 25.5231 25.1085 24.9852 22.9089 23.6925C22.9089 23.6925 25.0898 26.2998 27.2227 27.6102C27.3893 27.712 27.5527 27.8179 27.7141 27.9259C28.2814 28.3069 30.3051 29.4232 35.7442 30.502Z" fill="#FFC100"/>
<path d="M31.979 24.8016C31.979 24.8016 28.956 20.9389 26.1568 20.2038C25.984 20.1581 25.806 20.1331 25.628 20.1186C24.6339 20.0355 20.446 19.6098 17.1752 18.1156C17.1752 18.1156 19.0271 20.887 21.4641 22.3469C22.1428 22.7539 22.9037 23.0031 23.6907 23.0893C25.4729 23.2835 29.8513 23.8411 31.979 24.8016Z" fill="#FFC100"/>
<path d="M38.4415 35.2785C39.52 34.9649 42.7624 32.8965 42.7624 32.8965C42.7624 32.8965 42.3502 33.3804 41.7196 34.075C39.6636 36.3375 37.2777 37.9648 34.8844 38.7454C33.4915 39.2002 31.801 39.6988 30.0605 39.9053C29.617 39.9582 29.1965 39.9956 28.7759 39.9956L22.4009 39.9979C22.2729 39.9979 22.2136 39.8503 22.276 39.6852L22.8382 38.1879C22.9089 38.0426 22.886 37.8909 22.7861 37.8484L20.9977 37.3042C20.9227 37.2815 20.8811 37.1983 20.8925 37.0924L21.0758 35.3688C21.0862 35.2681 21.0497 35.1881 20.981 35.1601L19.9588 34.7603C19.913 34.7427 19.8797 34.7001 19.8672 34.642C19.7787 34.2349 19.4685 32.5102 20.0806 30.6858C20.1451 30.4927 20.3398 30.3826 20.446 30.4751C21.8315 31.6878 29.8065 37.7923 38.4415 35.2785Z" fill="#FFC100"/>
</g>
</g>
</g>
</g>
<path d="M70.3906 19.8281V12.0156C70.3906 11.7552 70.5208 11.625 70.7812 11.625C71.0417 11.625 71.1719 11.7552 71.1719 12.0156V19.8281C71.1719 20.0885 71.3021 20.2188 71.5625 20.2188C71.8229 20.2188 71.9531 20.0885 71.9531 19.8281V12.0156C71.9531 11.7552 72.0833 11.625 72.3438 11.625C72.6042 11.625 72.7344 11.7552 72.7344 12.0156V19.8281C72.7344 20.6094 72.3438 21 71.5625 21C70.7812 21 70.3906 20.6094 70.3906 19.8281ZM75.5062 21C75.2458 21 75.1156 20.8698 75.1156 20.6094V12.0156C75.1156 11.7552 75.2458 11.625 75.5062 11.625C75.7667 11.625 75.8969 11.7552 75.8969 12.0156V20.6094C75.8969 20.8698 75.7667 21 75.5062 21ZM80.6219 12.7969V13.5781C80.6219 13.8385 80.4917 13.9688 80.2312 13.9688C79.9708 13.9688 79.8406 13.8385 79.8406 13.5781V12.7969C79.8406 12.5365 79.7104 12.4062 79.45 12.4062C79.1896 12.4062 79.0594 12.5365 79.0594 12.7969V14.3594C79.0594 14.6042 79.1896 14.7266 79.45 14.7266C80.2312 14.7422 80.6219 15.1406 80.6219 15.9219C80.6219 16.7031 80.2312 17.0938 79.45 17.0938C79.1896 17.0938 79.0594 17.224 79.0594 17.4844V19.8281C79.0594 20.0885 79.1896 20.2188 79.45 20.2188C79.7104 20.2188 79.8406 20.0885 79.8406 19.8281V18.2656C79.8406 18.0052 79.9708 17.875 80.2312 17.875C80.4917 17.875 80.6219 18.0052 80.6219 18.2656V19.8281C80.6219 20.6094 80.2312 21 79.45 21C78.6687 21 78.2781 20.6094 78.2781 19.8281V17.4844C78.2781 16.7031 78.6687 16.3125 79.45 16.3125C79.7104 16.3125 79.8406 16.1823 79.8406 15.9219C79.8406 15.6615 79.7104 15.5312 79.45 15.5312C78.6687 15.5312 78.2781 15.1406 78.2781 14.3594V12.7969C78.2781 12.0156 78.6687 11.625 79.45 11.625C80.2312 11.625 80.6219 12.0156 80.6219 12.7969ZM78.6766 22.4297C78.6766 21.9141 78.9344 21.6562 79.45 21.6562C79.9656 21.6562 80.2234 21.9141 80.2234 22.4297C80.2234 22.9505 79.9656 23.2109 79.45 23.2109C78.9344 23.2109 78.6766 22.9505 78.6766 22.4297ZM79.1922 22.4297C79.1922 22.6016 79.2781 22.6875 79.45 22.6875C79.6219 22.6875 79.7078 22.6016 79.7078 22.4297C79.7078 22.2578 79.6219 22.1719 79.45 22.1719C79.2781 22.1719 79.1922 22.2578 79.1922 22.4297ZM80.6219 9.67188C80.6219 9.93229 80.7521 10.0625 81.0125 10.0625C81.2729 10.0625 81.4031 10.1927 81.4031 10.4531C81.4031 10.7135 81.2729 10.8438 81.0125 10.8438C80.2312 10.8438 79.8406 10.4531 79.8406 9.67188C79.8406 9.41146 79.7104 9.28125 79.45 9.28125C79.1896 9.28125 79.0594 9.41146 79.0594 9.67188C79.0594 10.4531 78.6687 10.8438 77.8875 10.8438C77.6271 10.8438 77.4969 10.7135 77.4969 10.4531C77.4969 10.1927 77.6271 10.0625 77.8875 10.0625C78.1479 10.0625 78.2781 9.93229 78.2781 9.67188C78.2781 8.89062 78.6687 8.5 79.45 8.5C80.2312 8.5 80.6219 8.89062 80.6219 9.67188ZM83.3938 11.625H85.7375C86.5188 11.625 86.9094 12.0156 86.9094 12.7969C86.9094 13.5781 86.5188 13.9688 85.7375 13.9688C85.4771 13.9688 85.3469 14.099 85.3469 14.3594V20.6094C85.3469 20.8698 85.2167 21 84.9563 21C84.6958 21 84.5656 20.8698 84.5656 20.6094V14.3594C84.5656 13.5781 84.9563 13.1875 85.7375 13.1875C85.9979 13.1875 86.1281 13.0573 86.1281 12.7969C86.1281 12.5365 85.9979 12.4062 85.7375 12.4062H83.3938C83.1333 12.4062 83.0031 12.276 83.0031 12.0156C83.0031 11.7552 83.1333 11.625 83.3938 11.625ZM95.5781 19.0469V14.3594C95.5781 14.099 95.4479 13.9688 95.1875 13.9688C94.9271 13.9688 94.7969 14.099 94.7969 14.3594V19.8281C94.7969 20.0885 94.9271 20.2188 95.1875 20.2188H96.75C97.0104 20.2188 97.1406 20.0885 97.1406 19.8281V12.7969C97.1406 12.5365 97.0104 12.4062 96.75 12.4062H94.4062C94.1458 12.4062 94.0156 12.276 94.0156 12.0156C94.0156 11.7552 94.1458 11.625 94.4062 11.625H96.75C97.5312 11.625 97.9219 12.0156 97.9219 12.7969V19.8281C97.9219 20.6094 97.5312 21 96.75 21H95.1875C94.4062 21 94.0156 20.6094 94.0156 19.8281V14.3594C94.0156 13.5781 94.4062 13.1875 95.1875 13.1875C95.9688 13.1875 96.3594 13.5781 96.3594 14.3594V19.0469C96.3594 19.3073 96.2292 19.4375 95.9688 19.4375C95.7083 19.4375 95.5781 19.3073 95.5781 19.0469ZM102.647 12.7969V19.8281C102.647 20.6094 102.256 21 101.475 21C100.694 21 100.303 20.6094 100.303 19.8281V12.0156C100.303 11.7552 100.433 11.625 100.694 11.625C100.954 11.625 101.084 11.7552 101.084 12.0156V19.8281C101.084 20.0885 101.215 20.2188 101.475 20.2188C101.735 20.2188 101.866 20.0885 101.866 19.8281V12.7969C101.866 12.0156 102.256 11.625 103.038 11.625C103.819 11.625 104.209 12.0156 104.209 12.7969V20.6094C104.209 20.8698 104.079 21 103.819 21C103.558 21 103.428 20.8698 103.428 20.6094V12.7969C103.428 12.5365 103.298 12.4062 103.038 12.4062C102.777 12.4062 102.647 12.5365 102.647 12.7969ZM112.878 19.8281V12.7969C112.878 12.0156 113.269 11.625 114.05 11.625H115.612C116.394 11.625 116.784 12.0156 116.784 12.7969C116.784 13.5781 116.394 13.9688 115.612 13.9688C115.352 13.9688 115.222 14.099 115.222 14.3594V19.8281C115.222 20.0885 115.352 20.2188 115.612 20.2188H116.394C116.654 20.2188 116.784 20.349 116.784 20.6094C116.784 20.8698 116.654 21 116.394 21H115.612C114.831 21 114.441 20.6094 114.441 19.8281V14.3594C114.441 13.5781 114.831 13.1875 115.612 13.1875C115.873 13.1875 116.003 13.0573 116.003 12.7969C116.003 12.5365 115.873 12.4062 115.612 12.4062H114.05C113.79 12.4062 113.659 12.5365 113.659 12.7969V19.8281C113.659 20.6094 113.269 21 112.487 21C111.706 21 111.316 20.6094 111.316 19.8281V12.0156C111.316 11.7552 111.446 11.625 111.706 11.625C111.967 11.625 112.097 11.7552 112.097 12.0156V19.8281C112.097 20.0885 112.227 20.2188 112.487 20.2188C112.748 20.2188 112.878 20.0885 112.878 19.8281ZM121.509 12.7969V16.7031C121.509 17.4844 121.119 17.875 120.338 17.875C119.556 17.875 119.166 17.4844 119.166 16.7031V12.0156C119.166 11.7552 119.296 11.625 119.556 11.625C119.817 11.625 119.947 11.7552 119.947 12.0156V16.7031C119.947 16.9635 120.077 17.0938 120.338 17.0938C120.598 17.0938 120.728 16.9635 120.728 16.7031V12.7969C120.728 12.0156 121.119 11.625 121.9 11.625C122.681 11.625 123.072 12.0156 123.072 12.7969V19.8281C123.072 20.6094 122.681 21 121.9 21H119.556C119.296 21 119.166 20.8698 119.166 20.6094C119.166 20.349 119.296 20.2188 119.556 20.2188H121.9C122.16 20.2188 122.291 20.0885 122.291 19.8281V12.7969C122.291 12.5365 122.16 12.4062 121.9 12.4062C121.64 12.4062 121.509 12.5365 121.509 12.7969ZM121.509 10.4531C121.509 10.7135 121.379 10.8438 121.119 10.8438C120.858 10.8438 120.728 10.7135 120.728 10.4531V8.89062C120.728 8.63021 120.858 8.5 121.119 8.5C121.379 8.5 121.509 8.63021 121.509 8.89062V10.4531Z" fill="white"/>
<path d="M70.8807 39V31.7273H73.3381C73.9063 31.7273 74.3726 31.8243 74.7372 32.0185C75.1018 32.2102 75.3717 32.4742 75.5469 32.8104C75.7221 33.1465 75.8097 33.5289 75.8097 33.9574C75.8097 34.3859 75.7221 34.7659 75.5469 35.0973C75.3717 35.4287 75.103 35.6892 74.7408 35.8786C74.3786 36.0656 73.9157 36.1591 73.3523 36.1591H71.3636V35.3636H73.3239C73.7121 35.3636 74.0246 35.3068 74.2614 35.1932C74.5005 35.0795 74.6733 34.9186 74.7798 34.7102C74.8887 34.4995 74.9432 34.2486 74.9432 33.9574C74.9432 33.6662 74.8887 33.4117 74.7798 33.1939C74.6709 32.9761 74.4969 32.808 74.2578 32.6896C74.0187 32.5689 73.7027 32.5085 73.3097 32.5085H71.7614V39H70.8807ZM74.304 35.733L76.0938 39H75.071L73.3097 35.733H74.304ZM79.3208 39.1136C78.8284 39.1136 78.3964 38.9964 78.0247 38.7621C77.6554 38.5277 77.3665 38.1998 77.1582 37.7784C76.9522 37.357 76.8493 36.8646 76.8493 36.3011C76.8493 35.733 76.9522 35.237 77.1582 34.8132C77.3665 34.3894 77.6554 34.0604 78.0247 33.826C78.3964 33.5916 78.8284 33.4744 79.3208 33.4744C79.8133 33.4744 80.2441 33.5916 80.6135 33.826C80.9851 34.0604 81.274 34.3894 81.4799 34.8132C81.6883 35.237 81.7924 35.733 81.7924 36.3011C81.7924 36.8646 81.6883 37.357 81.4799 37.7784C81.274 38.1998 80.9851 38.5277 80.6135 38.7621C80.2441 38.9964 79.8133 39.1136 79.3208 39.1136ZM79.3208 38.3608C79.6949 38.3608 80.0027 38.2649 80.2441 38.0732C80.4856 37.8814 80.6644 37.6293 80.7804 37.3168C80.8964 37.0043 80.9544 36.6657 80.9544 36.3011C80.9544 35.9366 80.8964 35.5968 80.7804 35.282C80.6644 34.9671 80.4856 34.7126 80.2441 34.5185C80.0027 34.3243 79.6949 34.2273 79.3208 34.2273C78.9468 34.2273 78.639 34.3243 78.3975 34.5185C78.1561 34.7126 77.9773 34.9671 77.8613 35.282C77.7453 35.5968 77.6873 35.9366 77.6873 36.3011C77.6873 36.6657 77.7453 37.0043 77.8613 37.3168C77.9773 37.6293 78.1561 37.8814 78.3975 38.0732C78.639 38.2649 78.9468 38.3608 79.3208 38.3608ZM83.9098 35.7188V39H83.0717V33.5455H83.8814V34.3977H83.9524C84.0803 34.1207 84.2744 33.8982 84.5348 33.7301C84.7952 33.5597 85.1314 33.4744 85.5433 33.4744C85.9126 33.4744 86.2358 33.5502 86.5128 33.7017C86.7898 33.8509 87.0052 34.0781 87.1591 34.3835C87.313 34.6866 87.3899 35.0701 87.3899 35.5341V39H86.5518V35.5909C86.5518 35.1624 86.4406 34.8286 86.218 34.5895C85.9955 34.348 85.6901 34.2273 85.3018 34.2273C85.0343 34.2273 84.7952 34.2853 84.5845 34.4013C84.3762 34.5173 84.2116 34.6866 84.0909 34.9091C83.9702 35.1316 83.9098 35.4015 83.9098 35.7188ZM91.123 41.1591C90.7182 41.1591 90.3702 41.107 90.079 41.0028C89.7878 40.901 89.5452 40.7661 89.351 40.598C89.1593 40.4323 89.0066 40.2547 88.8929 40.0653L89.5605 39.5966C89.6363 39.696 89.7322 39.8097 89.8482 39.9375C89.9642 40.0677 90.1228 40.1802 90.324 40.2749C90.5276 40.3719 90.794 40.4205 91.123 40.4205C91.5634 40.4205 91.9268 40.3139 92.2132 40.1009C92.4997 39.8878 92.6429 39.554 92.6429 39.0994V37.9915H92.5719C92.5104 38.0909 92.4228 38.214 92.3091 38.3608C92.1979 38.5052 92.0369 38.6342 91.8262 38.7479C91.6178 38.8591 91.3361 38.9148 90.981 38.9148C90.5407 38.9148 90.1453 38.8106 89.7949 38.6023C89.4469 38.3939 89.1711 38.0909 88.9675 37.6932C88.7663 37.2955 88.6657 36.8125 88.6657 36.2443C88.6657 35.6856 88.7639 35.1991 88.9604 34.7848C89.1569 34.3681 89.4303 34.0462 89.7807 33.8189C90.1311 33.5893 90.5359 33.4744 90.9952 33.4744C91.3503 33.4744 91.632 33.5336 91.8404 33.652C92.0511 33.768 92.2121 33.9006 92.3233 34.0497C92.437 34.1965 92.5246 34.3172 92.5861 34.4119H92.6713V33.5455H93.481V39.1562C93.481 39.625 93.3745 40.0062 93.1614 40.2997C92.9507 40.5956 92.6666 40.8123 92.3091 40.9496C91.954 41.0893 91.5587 41.1591 91.123 41.1591ZM91.0946 38.1619C91.4308 38.1619 91.7149 38.085 91.9469 37.9311C92.1789 37.7772 92.3553 37.5559 92.476 37.267C92.5968 36.9782 92.6571 36.6326 92.6571 36.2301C92.6571 35.8371 92.598 35.4903 92.4796 35.1896C92.3612 34.889 92.186 34.6534 91.954 34.483C91.722 34.3125 91.4355 34.2273 91.0946 34.2273C90.7395 34.2273 90.4436 34.3172 90.2069 34.4972C89.9725 34.6771 89.7961 34.9186 89.6777 35.2216C89.5617 35.5246 89.5037 35.8608 89.5037 36.2301C89.5037 36.6089 89.5629 36.9439 89.6813 37.2351C89.802 37.5239 89.9796 37.7512 90.214 37.9169C90.4507 38.0803 90.7443 38.1619 91.0946 38.1619ZM100.044 39.1136C99.5321 39.1136 99.0918 38.9929 98.7225 38.7514C98.3532 38.5099 98.0691 38.1773 97.8702 37.7536C97.6713 37.3298 97.5719 36.8456 97.5719 36.3011C97.5719 35.7472 97.6737 35.2583 97.8773 34.8345C98.0833 34.4084 98.3697 34.0758 98.7367 33.8366C99.106 33.5952 99.5369 33.4744 100.029 33.4744C100.413 33.4744 100.758 33.5455 101.066 33.6875C101.374 33.8295 101.626 34.0284 101.823 34.2841C102.019 34.5398 102.141 34.8381 102.188 35.179H101.35C101.286 34.9304 101.144 34.7102 100.924 34.5185C100.706 34.3243 100.413 34.2273 100.044 34.2273C99.7168 34.2273 99.4303 34.3125 99.1841 34.483C98.9403 34.651 98.7497 34.889 98.6124 35.1967C98.4775 35.5021 98.41 35.8608 98.41 36.2727C98.41 36.6941 98.4763 37.0611 98.6088 37.3736C98.7438 37.6861 98.9332 37.9287 99.177 38.1016C99.4232 38.2744 99.7121 38.3608 100.044 38.3608C100.261 38.3608 100.459 38.3229 100.637 38.2472C100.814 38.1714 100.964 38.0625 101.088 37.9205C101.211 37.7784 101.298 37.608 101.35 37.4091H102.188C102.141 37.7311 102.024 38.0211 101.837 38.2791C101.652 38.5348 101.407 38.7384 101.102 38.8899C100.799 39.0391 100.446 39.1136 100.044 39.1136ZM104.252 35.7188V39H103.414V31.7273H104.252V34.3977H104.323C104.45 34.116 104.642 33.8923 104.898 33.7266C105.156 33.5585 105.499 33.4744 105.928 33.4744C106.299 33.4744 106.625 33.549 106.904 33.6982C107.184 33.8449 107.4 34.071 107.554 34.3764C107.71 34.6795 107.789 35.0653 107.789 35.5341V39H106.95V35.5909C106.95 35.1577 106.838 34.8227 106.613 34.5859C106.391 34.3468 106.082 34.2273 105.686 34.2273C105.412 34.2273 105.165 34.2853 104.948 34.4013C104.732 34.5173 104.562 34.6866 104.436 34.9091C104.313 35.1316 104.252 35.4015 104.252 35.7188ZM113.754 33.1335H114.535C114.535 33.6733 114.416 34.1018 114.18 34.419C113.945 34.7363 113.533 34.8949 112.944 34.8949V34.2983C113.181 34.2983 113.356 34.2498 113.469 34.1527C113.585 34.0556 113.661 33.9195 113.697 33.7443C113.735 33.5691 113.754 33.3655 113.754 33.1335ZM111.538 39.1136C111.045 39.1136 110.613 38.9964 110.241 38.7621C109.872 38.5277 109.583 38.1998 109.375 37.7784C109.169 37.357 109.066 36.8646 109.066 36.3011C109.066 35.733 109.169 35.237 109.375 34.8132C109.583 34.3894 109.872 34.0604 110.241 33.826C110.613 33.5916 111.045 33.4744 111.538 33.4744C112.03 33.4744 112.461 33.5916 112.83 33.826C113.202 34.0604 113.491 34.3894 113.697 34.8132C113.905 35.237 114.009 35.733 114.009 36.3011C114.009 36.8646 113.905 37.357 113.697 37.7784C113.491 38.1998 113.202 38.5277 112.83 38.7621C112.461 38.9964 112.03 39.1136 111.538 39.1136ZM111.538 38.3608C111.912 38.3608 112.219 38.2649 112.461 38.0732C112.702 37.8814 112.881 37.6293 112.997 37.3168C113.113 37.0043 113.171 36.6657 113.171 36.3011C113.171 35.9366 113.113 35.5968 112.997 35.282C112.881 34.9671 112.702 34.7126 112.461 34.5185C112.219 34.3243 111.912 34.2273 111.538 34.2273C111.164 34.2273 110.856 34.3243 110.614 34.5185C110.373 34.7126 110.194 34.9671 110.078 35.282C109.962 35.5968 109.904 35.9366 109.904 36.3011C109.904 36.6657 109.962 37.0043 110.078 37.3168C110.194 37.6293 110.373 37.8814 110.614 38.0732C110.856 38.2649 111.164 38.3608 111.538 38.3608ZM115.298 39V33.5455H116.136V39H115.298ZM115.724 32.6364C115.561 32.6364 115.42 32.5807 115.302 32.4695C115.186 32.3582 115.128 32.2244 115.128 32.0682C115.128 31.9119 115.186 31.7782 115.302 31.6669C115.42 31.5556 115.561 31.5 115.724 31.5C115.888 31.5 116.027 31.5556 116.143 31.6669C116.262 31.7782 116.321 31.9119 116.321 32.0682C116.321 32.2244 116.262 32.3582 116.143 32.4695C116.027 32.5807 115.888 32.6364 115.724 32.6364ZM120.597 39V31.7273H121.436V34.4119H121.507C121.568 34.3172 121.653 34.1965 121.762 34.0497C121.874 33.9006 122.032 33.768 122.238 33.652C122.446 33.5336 122.728 33.4744 123.083 33.4744C123.543 33.4744 123.947 33.5893 124.298 33.8189C124.648 34.0485 124.922 34.3741 125.118 34.7955C125.315 35.2169 125.413 35.714 125.413 36.2869C125.413 36.8646 125.315 37.3653 125.118 37.7891C124.922 38.2105 124.649 38.5372 124.301 38.7692C123.953 38.9988 123.552 39.1136 123.097 39.1136C122.747 39.1136 122.467 39.0556 122.256 38.9396C122.045 38.8213 121.883 38.6875 121.769 38.5384C121.656 38.3868 121.568 38.2614 121.507 38.1619H121.407V39H120.597ZM121.421 36.2727C121.421 36.6847 121.482 37.0481 121.602 37.3629C121.723 37.6754 121.9 37.9205 122.132 38.098C122.364 38.2732 122.648 38.3608 122.984 38.3608C123.334 38.3608 123.627 38.2685 123.861 38.0838C124.098 37.8968 124.275 37.6458 124.394 37.331C124.514 37.0137 124.575 36.661 124.575 36.2727C124.575 35.8892 124.516 35.5436 124.397 35.2358C124.281 34.9257 124.105 34.6806 123.868 34.5007C123.634 34.3184 123.339 34.2273 122.984 34.2273C122.643 34.2273 122.356 34.3137 122.124 34.4865C121.892 34.657 121.717 34.8961 121.599 35.2038C121.481 35.5092 121.421 35.8655 121.421 36.2727ZM128.911 39.1136C128.418 39.1136 127.986 38.9964 127.615 38.7621C127.245 38.5277 126.956 38.1998 126.748 37.7784C126.542 37.357 126.439 36.8646 126.439 36.3011C126.439 35.733 126.542 35.237 126.748 34.8132C126.956 34.3894 127.245 34.0604 127.615 33.826C127.986 33.5916 128.418 33.4744 128.911 33.4744C129.403 33.4744 129.834 33.5916 130.203 33.826C130.575 34.0604 130.864 34.3894 131.07 34.8132C131.278 35.237 131.382 35.733 131.382 36.3011C131.382 36.8646 131.278 37.357 131.07 37.7784C130.864 38.1998 130.575 38.5277 130.203 38.7621C129.834 38.9964 129.403 39.1136 128.911 39.1136ZM128.911 38.3608C129.285 38.3608 129.593 38.2649 129.834 38.0732C130.075 37.8814 130.254 37.6293 130.37 37.3168C130.486 37.0043 130.544 36.6657 130.544 36.3011C130.544 35.9366 130.486 35.5968 130.37 35.282C130.254 34.9671 130.075 34.7126 129.834 34.5185C129.593 34.3243 129.285 34.2273 128.911 34.2273C128.537 34.2273 128.229 34.3243 127.987 34.5185C127.746 34.7126 127.567 34.9671 127.451 35.282C127.335 35.5968 127.277 35.9366 127.277 36.3011C127.277 36.6657 127.335 37.0043 127.451 37.3168C127.567 37.6293 127.746 37.8814 127.987 38.0732C128.229 38.2649 128.537 38.3608 128.911 38.3608ZM127.078 32.8636L128.527 31.571H129.308L130.757 32.8636H129.735L128.925 32.1108L128.115 32.8636H127.078ZM130.374 31.9972L131.07 30.7188H132.107L131.112 31.9972H130.374ZM133.5 35.7188V39H132.662V33.5455H133.471V34.3977H133.542C133.67 34.1207 133.864 33.8982 134.125 33.7301C134.385 33.5597 134.721 33.4744 135.133 33.4744C135.502 33.4744 135.826 33.5502 136.103 33.7017C136.38 33.8509 136.595 34.0781 136.749 34.3835C136.903 34.6866 136.98 35.0701 136.98 35.5341V39H136.142V35.5909C136.142 35.1624 136.03 34.8286 135.808 34.5895C135.585 34.348 135.28 34.2273 134.892 34.2273C134.624 34.2273 134.385 34.2853 134.174 34.4013C133.966 34.5173 133.801 34.6866 133.681 34.9091C133.56 35.1316 133.5 35.4015 133.5 35.7188ZM141.324 41.0455V33.5455H142.133V34.4119H142.233C142.294 34.3172 142.38 34.1965 142.488 34.0497C142.6 33.9006 142.758 33.768 142.964 33.652C143.173 33.5336 143.454 33.4744 143.809 33.4744C144.269 33.4744 144.674 33.5893 145.024 33.8189C145.374 34.0485 145.648 34.3741 145.844 34.7955C146.041 35.2169 146.139 35.714 146.139 36.2869C146.139 36.8646 146.041 37.3653 145.844 37.7891C145.648 38.2105 145.376 38.5372 145.028 38.7692C144.68 38.9988 144.278 39.1136 143.824 39.1136C143.473 39.1136 143.193 39.0556 142.982 38.9396C142.771 38.8213 142.609 38.6875 142.496 38.5384C142.382 38.3868 142.294 38.2614 142.233 38.1619H142.162V41.0455H141.324ZM142.148 36.2727C142.148 36.6847 142.208 37.0481 142.329 37.3629C142.449 37.6754 142.626 37.9205 142.858 38.098C143.09 38.2732 143.374 38.3608 143.71 38.3608C144.06 38.3608 144.353 38.2685 144.587 38.0838C144.824 37.8968 145.001 37.6458 145.12 37.331C145.241 37.0137 145.301 36.661 145.301 36.2727C145.301 35.8892 145.242 35.5436 145.123 35.2358C145.007 34.9257 144.831 34.6806 144.594 34.5007C144.36 34.3184 144.065 34.2273 143.71 34.2273C143.369 34.2273 143.083 34.3137 142.851 34.4865C142.619 34.657 142.443 34.8961 142.325 35.2038C142.207 35.5092 142.148 35.8655 142.148 36.2727ZM148.256 35.7188V39H147.417V31.7273H148.256V34.3977H148.327C148.454 34.116 148.646 33.8923 148.902 33.7266C149.16 33.5585 149.503 33.4744 149.932 33.4744C150.303 33.4744 150.629 33.549 150.908 33.6982C151.188 33.8449 151.404 34.071 151.558 34.3764C151.714 34.6795 151.792 35.0653 151.792 35.5341V39H150.954V35.5909C150.954 35.1577 150.842 34.8227 150.617 34.5859C150.394 34.3468 150.086 34.2273 149.69 34.2273C149.416 34.2273 149.169 34.2853 148.952 34.4013C148.736 34.5173 148.566 34.6866 148.44 34.9091C148.317 35.1316 148.256 35.4015 148.256 35.7188ZM158.24 33.304H158.979C158.979 33.6638 158.932 33.9657 158.837 34.2095C158.742 34.451 158.577 34.6333 158.34 34.7564C158.103 34.8771 157.772 34.9375 157.346 34.9375V34.3551C157.639 34.3551 157.847 34.3196 157.971 34.2486C158.096 34.1752 158.172 34.0616 158.198 33.9077C158.226 33.7514 158.24 33.5502 158.24 33.304ZM156.763 36.7699V33.5455H157.601V39H156.763V38.0767H156.706C156.578 38.3537 156.38 38.5893 156.11 38.7834C155.84 38.9751 155.499 39.071 155.087 39.071C154.746 39.071 154.443 38.9964 154.178 38.8473C153.913 38.6958 153.704 38.4685 153.553 38.1655C153.401 37.8601 153.326 37.4754 153.326 37.0114V33.5455H154.164V36.9545C154.164 37.3523 154.275 37.6695 154.498 37.9062C154.722 38.143 155.009 38.2614 155.357 38.2614C155.565 38.2614 155.777 38.2081 155.993 38.1016C156.21 37.995 156.393 37.8317 156.539 37.6115C156.689 37.3913 156.763 37.1108 156.763 36.7699ZM163.978 33.1335H164.759C164.759 33.6733 164.641 34.1018 164.404 34.419C164.17 34.7363 163.758 34.8949 163.169 34.8949V34.2983C163.405 34.2983 163.58 34.2498 163.694 34.1527C163.81 34.0556 163.886 33.9195 163.921 33.7443C163.959 33.5691 163.978 33.3655 163.978 33.1335ZM161.762 39.1136C161.27 39.1136 160.838 38.9964 160.466 38.7621C160.097 38.5277 159.808 38.1998 159.6 37.7784C159.394 37.357 159.291 36.8646 159.291 36.3011C159.291 35.733 159.394 35.237 159.6 34.8132C159.808 34.3894 160.097 34.0604 160.466 33.826C160.838 33.5916 161.27 33.4744 161.762 33.4744C162.255 33.4744 162.686 33.5916 163.055 33.826C163.427 34.0604 163.715 34.3894 163.921 34.8132C164.13 35.237 164.234 35.733 164.234 36.3011C164.234 36.8646 164.13 37.357 163.921 37.7784C163.715 38.1998 163.427 38.5277 163.055 38.7621C162.686 38.9964 162.255 39.1136 161.762 39.1136ZM161.762 38.3608C162.136 38.3608 162.444 38.2649 162.686 38.0732C162.927 37.8814 163.106 37.6293 163.222 37.3168C163.338 37.0043 163.396 36.6657 163.396 36.3011C163.396 35.9366 163.338 35.5968 163.222 35.282C163.106 34.9671 162.927 34.7126 162.686 34.5185C162.444 34.3243 162.136 34.2273 161.762 34.2273C161.388 34.2273 161.08 34.3243 160.839 34.5185C160.597 34.7126 160.419 34.9671 160.303 35.282C160.187 35.5968 160.129 35.9366 160.129 36.3011C160.129 36.6657 160.187 37.0043 160.303 37.3168C160.419 37.6293 160.597 37.8814 160.839 38.0732C161.08 38.2649 161.388 38.3608 161.762 38.3608ZM166.361 35.7188V39H165.523V33.5455H166.333V34.3977H166.404C166.531 34.1207 166.726 33.8982 166.986 33.7301C167.246 33.5597 167.583 33.4744 167.994 33.4744C168.364 33.4744 168.687 33.5502 168.964 33.7017C169.241 33.8509 169.456 34.0781 169.61 34.3835C169.764 34.6866 169.841 35.0701 169.841 35.5341V39H169.003V35.5909C169.003 35.1624 168.892 34.8286 168.669 34.5895C168.447 34.348 168.141 34.2273 167.753 34.2273C167.485 34.2273 167.246 34.2853 167.036 34.4013C166.827 34.5173 166.663 34.6866 166.542 34.9091C166.421 35.1316 166.361 35.4015 166.361 35.7188ZM173.574 41.1591C173.169 41.1591 172.821 41.107 172.53 41.0028C172.239 40.901 171.996 40.7661 171.802 40.598C171.61 40.4323 171.458 40.2547 171.344 40.0653L172.012 39.5966C172.087 39.696 172.183 39.8097 172.299 39.9375C172.415 40.0677 172.574 40.1802 172.775 40.2749C172.979 40.3719 173.245 40.4205 173.574 40.4205C174.015 40.4205 174.378 40.3139 174.664 40.1009C174.951 39.8878 175.094 39.554 175.094 39.0994V37.9915H175.023C174.962 38.0909 174.874 38.214 174.76 38.3608C174.649 38.5052 174.488 38.6342 174.277 38.7479C174.069 38.8591 173.787 38.9148 173.432 38.9148C172.992 38.9148 172.596 38.8106 172.246 38.6023C171.898 38.3939 171.622 38.0909 171.419 37.6932C171.217 37.2955 171.117 36.8125 171.117 36.2443C171.117 35.6856 171.215 35.1991 171.412 34.7848C171.608 34.3681 171.882 34.0462 172.232 33.8189C172.582 33.5893 172.987 33.4744 173.446 33.4744C173.801 33.4744 174.083 33.5336 174.292 33.652C174.502 33.768 174.663 33.9006 174.775 34.0497C174.888 34.1965 174.976 34.3172 175.037 34.4119H175.123V33.5455H175.932V39.1562C175.932 39.625 175.826 40.0062 175.613 40.2997C175.402 40.5956 175.118 40.8123 174.76 40.9496C174.405 41.0893 174.01 41.1591 173.574 41.1591ZM173.546 38.1619C173.882 38.1619 174.166 38.085 174.398 37.9311C174.63 37.7772 174.806 37.5559 174.927 37.267C175.048 36.9782 175.108 36.6326 175.108 36.2301C175.108 35.8371 175.049 35.4903 174.931 35.1896C174.812 34.889 174.637 34.6534 174.405 34.483C174.173 34.3125 173.887 34.2273 173.546 34.2273C173.191 34.2273 172.895 34.3172 172.658 34.4972C172.424 34.6771 172.247 34.9186 172.129 35.2216C172.013 35.5246 171.955 35.8608 171.955 36.2301C171.955 36.6089 172.014 36.9439 172.132 37.2351C172.253 37.5239 172.431 37.7512 172.665 37.9169C172.902 38.0803 173.195 38.1619 173.546 38.1619Z" fill="white"/>
<defs>
<clipPath id="clip0_229_1908">
<rect width="53.8" height="32" fill="white" transform="translate(8 8)"/>
</clipPath>
<clipPath id="clip1_229_1908">
<rect width="53.8" height="32" fill="white" transform="translate(8 8)"/>
</clipPath>
<clipPath id="clip2_229_1908">
<rect width="53.8" height="31.9968" fill="white" transform="translate(8 8.00158)"/>
</clipPath>
</defs>
</svg>
